<?xml version="1.0" encoding="UTF-8"?>
<svg xmlns="http://www.w3.org/2000/svg" viewBox="0 0 444.56 459.17">
  <defs>
    <style>
      .cls-1 {
        fill: #fff;
      }

      .cls-2 {
        fill: #fafafa;
      }

      .cls-3 {
        fill: #f5f5f5;
      }

      .cls-4 {
        fill: #455a64;
      }

      .cls-5 {
        fill: #ffbf9d;
      }

      .cls-6 {
        fill: #e0e0e0;
      }

      .cls-7 {
        fill: #ff9a6c;
      }

      .cls-8 {
        fill: #146eb4;
      }

      .cls-9 {
        fill: none;
        opacity: .3;
      }

      .cls-10 {
        fill: #263238;
      }
    </style>
  </defs>
  <g id="Background_Complete" data-name="Background Complete">
    <g>
      <g>
        <rect class="cls-1" x="126.69" y="17.56" width="146.69" height="213.26" rx="4.78" ry="4.78"/>
        <path class="cls-6" d="m268.53,231.32h-136.99c-2.96,0-5.36-2.4-5.36-5.36V22.41c0-2.96,2.4-5.36,5.36-5.36h136.99c2.96,0,5.36,2.4,5.36,5.36v203.56c0,2.96-2.4,5.36-5.36,5.36ZM131.54,18.07c-2.4,0-4.34,1.95-4.34,4.34v203.56c0,2.4,1.95,4.34,4.34,4.34h136.99c2.39,0,4.34-1.95,4.34-4.34V22.41c0-2.4-1.95-4.34-4.34-4.34h-136.99Z"/>
      </g>
      <rect class="cls-6" x="140.97" y="207.56" width="122.06" height="4.98"/>
      <rect class="cls-6" x="140.97" y="215" width="122.06" height="4.98"/>
      <g>
        <rect class="cls-3" x="140.97" y="102.71" width="122.06" height="88.33"/>
        <path class="cls-10" d="m262.4,118.02c0,.15-27.27.26-60.91.26s-60.92-.12-60.92-.26,27.27-.26,60.92-.26,60.91.12,60.91.26Z"/>
        <path class="cls-10" d="m157.03,191.03c-.15,0-.26-19.65-.26-43.88s.12-43.88.26-43.88.26,19.64.26,43.88-.12,43.88-.26,43.88Z"/>
        <path class="cls-10" d="m211.93,192.05c-.15,0-.26-19.88-.26-44.39s.12-44.39.26-44.39.26,19.87.26,44.39-.12,44.39-.26,44.39Z"/>
        <path class="cls-10" d="m239.38,192.05c-.15,0-.26-19.88-.26-44.39s.12-44.39.26-44.39.26,19.87.26,44.39-.12,44.39-.26,44.39Z"/>
        <rect class="cls-6" x="145.23" y="108.47" width="7.11" height="5.22"/>
        <rect class="cls-6" x="145.23" y="127.09" width="7.11" height="5.22"/>
        <rect class="cls-6" x="145.23" y="138.9" width="7.11" height="5.22"/>
        <rect class="cls-6" x="145.23" y="149.23" width="7.11" height="5.22"/>
        <rect class="cls-6" x="218.03" y="108.47" width="15.09" height="5.22"/>
        <rect class="cls-6" x="220.4" y="122.95" width="10.41" height="5.22"/>
        <rect class="cls-6" x="220.4" y="138.79" width="10.41" height="5.22"/>
        <rect class="cls-6" x="246.74" y="138.79" width="10.41" height="5.22"/>
        <rect class="cls-6" x="220.4" y="149.32" width="10.41" height="5.22"/>
        <rect class="cls-6" x="246.66" y="148.83" width="10.41" height="5.22"/>
        <rect class="cls-6" x="246.66" y="123.3" width="10.41" height="5.22"/>
        <rect class="cls-6" x="245.02" y="108.47" width="12.05" height="5.22"/>
        <rect class="cls-6" x="163.91" y="108.47" width="39.46" height="5.22"/>
        <rect class="cls-6" x="163.91" y="125.99" width="23.46" height="5.22"/>
        <rect class="cls-6" x="163.91" y="138.41" width="39.46" height="5.22"/>
        <rect class="cls-6" x="163.91" y="148.83" width="20.95" height="5.22"/>
        <rect class="cls-6" x="239.38" y="191.03" width="23.64" height="12.02"/>
      </g>
      <rect class="cls-6" x="204.66" y="39.98" width="52.48" height="4.98"/>
      <rect class="cls-6" x="144.03" y="55.48" width="12.83" height="4.98"/>
      <rect class="cls-6" x="143.66" y="63.83" width="34.25" height="4.98"/>
      <rect class="cls-6" x="245.79" y="55.48" width="12.83" height="4.98" transform="translate(504.42 115.95) rotate(180)"/>
      <rect class="cls-6" x="224.75" y="63.83" width="34.25" height="4.98" transform="translate(483.74 132.63) rotate(180)"/>
      <rect class="cls-6" x="143.66" y="79.22" width="34.25" height="4.98"/>
      <rect class="cls-6" x="143.66" y="87.87" width="87.43" height="4.98"/>
      <g>
        <path class="cls-6" d="m144.85,37.46h2.33v8.23h-2.33v-8.23Z"/>
        <path class="cls-6" d="m156.67,37.46v8.23h-1.92l-3.63-4.38v4.38h-2.28v-8.23h1.92l3.63,4.38v-4.38h2.28Z"/>
        <path class="cls-6" d="m166.64,37.46l-3.53,8.23h-2.29l-3.51-8.23h2.52l2.23,5.36,2.28-5.36h2.3Z"/>
        <path class="cls-6" d="m166.59,41.58c0-2.47,1.94-4.28,4.57-4.28s4.57,1.81,4.57,4.28-1.94,4.28-4.57,4.28-4.57-1.81-4.57-4.28Zm6.79,0c0-1.42-.98-2.35-2.22-2.35s-2.22.93-2.22,2.35.98,2.35,2.22,2.35,2.22-.93,2.22-2.35Z"/>
        <path class="cls-6" d="m176.96,37.46h2.33v8.23h-2.33v-8.23Z"/>
        <path class="cls-6" d="m180.52,41.58c0-2.5,1.92-4.28,4.52-4.28,1.52,0,2.74.55,3.54,1.55l-1.48,1.34c-.52-.62-1.15-.96-1.94-.96-1.35,0-2.29.94-2.29,2.35s.94,2.35,2.29,2.35c.79,0,1.42-.34,1.94-.96l1.48,1.34c-.8,1-2.02,1.55-3.54,1.55-2.61,0-4.52-1.77-4.52-4.28Z"/>
        <path class="cls-6" d="m196.23,43.89v1.8h-6.6v-8.23h6.45v1.8h-4.15v1.39h3.65v1.74h-3.65v1.5h4.3Z"/>
      </g>
      <path class="cls-6" d="m136.56,25.2c0,1.23-1,2.24-2.24,2.24s-2.24-1-2.24-2.24,1-2.24,2.24-2.24,2.24,1,2.24,2.24Z"/>
      <path class="cls-6" d="m142.31,25.2c0,1.23-1,2.24-2.24,2.24s-2.24-1-2.24-2.24,1-2.24,2.24-2.24,2.24,1,2.24,2.24Z"/>
      <path class="cls-6" d="m148.07,25.2c0,1.23-1,2.24-2.24,2.24s-2.24-1-2.24-2.24,1-2.24,2.24-2.24,2.24,1,2.24,2.24Z"/>
    </g>
    <g>
      <g>
        <rect class="cls-1" x="275.93" y="166.95" width="146.69" height="213.26" rx="4.78" ry="4.78"/>
        <path class="cls-6" d="m417.77,380.72h-136.99c-2.96,0-5.36-2.4-5.36-5.36v-203.56c0-2.96,2.4-5.36,5.36-5.36h136.99c2.95,0,5.36,2.4,5.36,5.36v203.56c0,2.96-2.4,5.36-5.36,5.36Zm-136.99-213.26c-2.4,0-4.34,1.95-4.34,4.34v203.56c0,2.4,1.95,4.34,4.34,4.34h136.99c2.39,0,4.34-1.95,4.34-4.34v-203.56c0-2.4-1.95-4.34-4.34-4.34h-136.99Z"/>
      </g>
      <rect class="cls-6" x="290.2" y="356.96" width="122.06" height="4.98"/>
      <rect class="cls-6" x="290.2" y="364.39" width="122.06" height="4.98"/>
      <g>
        <rect class="cls-3" x="290.2" y="252.1" width="122.06" height="88.33"/>
        <path class="cls-6" d="m411.64,267.42c0,.15-27.27.26-60.91.26s-60.92-.12-60.92-.26,27.27-.26,60.92-.26,60.91.12,60.91.26Z"/>
        <path class="cls-6" d="m306.27,340.43c-.15,0-.26-19.65-.26-43.88s.12-43.88.26-43.88.26,19.64.26,43.88-.12,43.88-.26,43.88Z"/>
        <path class="cls-6" d="m361.17,341.45c-.15,0-.26-19.88-.26-44.39s.12-44.39.26-44.39.26,19.87.26,44.39-.12,44.39-.26,44.39Z"/>
        <path class="cls-6" d="m388.62,341.45c-.15,0-.26-19.88-.26-44.39s.12-44.39.26-44.39.26,19.87.26,44.39-.12,44.39-.26,44.39Z"/>
        <rect class="cls-6" x="294.47" y="257.86" width="7.11" height="5.22"/>
        <rect class="cls-6" x="294.47" y="276.49" width="7.11" height="5.22"/>
        <rect class="cls-6" x="294.47" y="288.3" width="7.11" height="5.22"/>
        <rect class="cls-6" x="294.47" y="298.63" width="7.11" height="5.22"/>
        <rect class="cls-6" x="367.27" y="257.86" width="15.09" height="5.22"/>
        <rect class="cls-6" x="369.64" y="272.35" width="10.41" height="5.22"/>
        <rect class="cls-6" x="369.64" y="288.19" width="10.41" height="5.22"/>
        <rect class="cls-6" x="395.98" y="288.19" width="10.41" height="5.22"/>
        <rect class="cls-6" x="369.64" y="298.72" width="10.41" height="5.22"/>
        <rect class="cls-6" x="395.9" y="298.22" width="10.41" height="5.22"/>
        <rect class="cls-6" x="395.9" y="272.69" width="10.41" height="5.22"/>
        <rect class="cls-6" x="394.25" y="257.86" width="12.05" height="5.22"/>
        <rect class="cls-6" x="313.15" y="257.86" width="39.46" height="5.22"/>
        <rect class="cls-6" x="313.15" y="275.39" width="23.46" height="5.22"/>
        <rect class="cls-6" x="313.15" y="287.81" width="39.46" height="5.22"/>
        <rect class="cls-6" x="313.15" y="298.22" width="20.95" height="5.22"/>
        <rect class="cls-6" x="388.62" y="340.43" width="23.64" height="12.02"/>
      </g>
      <rect class="cls-6" x="353.9" y="189.38" width="52.48" height="4.98"/>
      <rect class="cls-6" x="293.27" y="204.88" width="12.83" height="4.98"/>
      <rect class="cls-6" x="292.9" y="213.22" width="34.25" height="4.98"/>
      <rect class="cls-6" x="395.03" y="204.88" width="12.83" height="4.98" transform="translate(802.89 414.75) rotate(180)"/>
      <rect class="cls-6" x="373.99" y="213.22" width="34.25" height="4.98" transform="translate(782.22 431.43) rotate(180)"/>
      <rect class="cls-6" x="292.9" y="228.62" width="34.25" height="4.98"/>
      <rect class="cls-6" x="292.9" y="237.27" width="87.43" height="4.98"/>
      <g>
        <path class="cls-6" d="m294.09,186.86h2.33v8.23h-2.33v-8.23Z"/>
        <path class="cls-6" d="m305.9,186.86v8.23h-1.91l-3.63-4.38v4.38h-2.28v-8.23h1.92l3.63,4.38v-4.38h2.28Z"/>
        <path class="cls-6" d="m315.87,186.86l-3.53,8.23h-2.29l-3.51-8.23h2.52l2.23,5.36,2.28-5.36h2.3Z"/>
        <path class="cls-6" d="m315.83,190.98c0-2.47,1.94-4.28,4.57-4.28s4.57,1.81,4.57,4.28-1.94,4.28-4.57,4.28-4.57-1.81-4.57-4.28Zm6.79,0c0-1.42-.98-2.35-2.22-2.35s-2.22.93-2.22,2.35.98,2.35,2.22,2.35,2.22-.93,2.22-2.35Z"/>
        <path class="cls-6" d="m326.2,186.86h2.33v8.23h-2.33v-8.23Z"/>
        <path class="cls-6" d="m329.76,190.98c0-2.5,1.91-4.28,4.52-4.28,1.52,0,2.74.55,3.54,1.55l-1.48,1.34c-.52-.62-1.15-.96-1.94-.96-1.35,0-2.29.94-2.29,2.35s.94,2.35,2.29,2.35c.79,0,1.42-.34,1.94-.96l1.48,1.34c-.8,1-2.02,1.55-3.54,1.55-2.61,0-4.52-1.77-4.52-4.28Z"/>
        <path class="cls-6" d="m345.47,193.29v1.8h-6.6v-8.23h6.45v1.8h-4.15v1.39h3.65v1.74h-3.65v1.5h4.3Z"/>
      </g>
      <path class="cls-6" d="m285.8,174.6c0,1.23-1,2.24-2.24,2.24s-2.24-1-2.24-2.24,1-2.24,2.24-2.24,2.24,1,2.24,2.24Z"/>
      <path class="cls-6" d="m291.55,174.6c0,1.23-1,2.24-2.24,2.24s-2.24-1-2.24-2.24,1-2.24,2.24-2.24,2.24,1,2.24,2.24Z"/>
      <path class="cls-6" d="m297.31,174.6c0,1.23-1,2.24-2.24,2.24s-2.24-1-2.24-2.24,1-2.24,2.24-2.24,2.24,1,2.24,2.24Z"/>
    </g>
  </g>
  <g id="Floor">
    <path class="cls-10" d="m433.32,447.51c0,.14-97.01.26-216.65.26s-216.67-.12-216.67-.26,96.99-.26,216.67-.26,216.65.12,216.65.26Z"/>
  </g>
  <g id="Invoice">
    <g>
      <g>
        <rect class="cls-1" x="43.66" y="52.96" width="146.69" height="213.26" rx="4.78" ry="4.78"/>
        <path class="cls-8" d="m185.5,266.72H48.51c-2.96,0-5.36-2.4-5.36-5.36V57.81c0-2.96,2.4-5.36,5.36-5.36h136.99c2.96,0,5.36,2.4,5.36,5.36v203.56c0,2.96-2.4,5.36-5.36,5.36ZM48.51,53.47c-2.4,0-4.34,1.95-4.34,4.34v203.56c0,2.4,1.95,4.34,4.34,4.34h136.99c2.4,0,4.34-1.95,4.34-4.34V57.81c0-2.4-1.95-4.34-4.34-4.34H48.51Z"/>
      </g>
      <rect class="cls-6" x="57.93" y="242.96" width="122.06" height="4.98"/>
      <rect class="cls-6" x="57.93" y="250.4" width="122.06" height="4.98"/>
      <g>
        <rect class="cls-3" x="57.93" y="138.11" width="122.06" height="88.33"/>
        <path class="cls-8" d="m179.37,153.42c0,.15-27.27.26-60.91.26s-60.92-.12-60.92-.26,27.27-.26,60.92-.26,60.91.12,60.91.26Z"/>
        <path class="cls-8" d="m74,226.43c-.15,0-.26-19.65-.26-43.88s.12-43.88.26-43.88.26,19.64.26,43.88-.12,43.88-.26,43.88Z"/>
        <path class="cls-8" d="m128.9,227.45c-.15,0-.26-19.88-.26-44.39s.12-44.39.26-44.39.26,19.87.26,44.39-.12,44.39-.26,44.39Z"/>
        <path class="cls-8" d="m156.35,227.45c-.15,0-.26-19.88-.26-44.39s.12-44.39.26-44.39.26,19.87.26,44.39-.12,44.39-.26,44.39Z"/>
        <rect class="cls-6" x="62.2" y="143.87" width="7.11" height="5.22"/>
        <rect class="cls-6" x="62.2" y="162.49" width="7.11" height="5.22"/>
        <rect class="cls-6" x="62.2" y="174.3" width="7.11" height="5.22"/>
        <rect class="cls-6" x="62.2" y="184.63" width="7.11" height="5.22"/>
        <rect class="cls-6" x="135" y="143.87" width="15.09" height="5.22"/>
        <rect class="cls-6" x="137.37" y="158.35" width="10.41" height="5.22"/>
        <rect class="cls-6" x="137.37" y="174.19" width="10.41" height="5.22"/>
        <rect class="cls-6" x="163.7" y="174.19" width="10.41" height="5.22"/>
        <rect class="cls-6" x="137.37" y="184.72" width="10.41" height="5.22"/>
        <rect class="cls-6" x="163.63" y="184.23" width="10.41" height="5.22"/>
        <rect class="cls-6" x="163.63" y="158.7" width="10.41" height="5.22"/>
        <rect class="cls-6" x="161.98" y="143.87" width="12.05" height="5.22"/>
        <rect class="cls-6" x="80.88" y="143.87" width="39.46" height="5.22"/>
        <rect class="cls-6" x="80.88" y="161.39" width="23.46" height="5.22"/>
        <rect class="cls-6" x="80.88" y="173.81" width="39.46" height="5.22"/>
        <rect class="cls-6" x="80.88" y="184.23" width="20.95" height="5.22"/>
        <rect class="cls-8" x="156.35" y="226.43" width="23.64" height="12.03"/>
      </g>
      <rect class="cls-6" x="121.63" y="75.38" width="52.48" height="4.98"/>
      <rect class="cls-6" x="61" y="90.88" width="12.83" height="4.98"/>
      <rect class="cls-6" x="60.63" y="99.23" width="34.25" height="4.98"/>
      <rect class="cls-6" x="162.76" y="90.88" width="12.83" height="4.98" transform="translate(338.35 186.75) rotate(180)"/>
      <rect class="cls-6" x="141.71" y="99.23" width="34.25" height="4.98" transform="translate(317.67 203.43) rotate(180)"/>
      <rect class="cls-8" x="60.63" y="114.62" width="34.25" height="4.98"/>
      <rect class="cls-6" x="60.63" y="123.27" width="87.43" height="4.98"/>
      <g>
        <path class="cls-8" d="m61.82,72.87h2.33v8.23h-2.33v-8.23Z"/>
        <path class="cls-8" d="m73.63,72.87v8.23h-1.92l-3.63-4.38v4.38h-2.28v-8.23h1.92l3.63,4.38v-4.38h2.28Z"/>
        <path class="cls-8" d="m83.6,72.87l-3.53,8.23h-2.29l-3.51-8.23h2.52l2.23,5.36,2.28-5.36h2.3Z"/>
        <path class="cls-8" d="m83.56,76.98c0-2.47,1.94-4.28,4.57-4.28s4.57,1.81,4.57,4.28-1.94,4.28-4.57,4.28-4.57-1.81-4.57-4.28Zm6.79,0c0-1.42-.98-2.35-2.22-2.35s-2.22.93-2.22,2.35.98,2.35,2.22,2.35,2.22-.93,2.22-2.35Z"/>
        <path class="cls-8" d="m93.93,72.87h2.33v8.23h-2.33v-8.23Z"/>
        <path class="cls-8" d="m97.49,76.98c0-2.5,1.92-4.28,4.52-4.28,1.52,0,2.74.55,3.54,1.55l-1.48,1.34c-.52-.62-1.15-.96-1.94-.96-1.35,0-2.29.94-2.29,2.35s.94,2.35,2.29,2.35c.79,0,1.42-.34,1.94-.96l1.48,1.34c-.8,1-2.02,1.55-3.54,1.55-2.61,0-4.52-1.78-4.52-4.28Z"/>
        <path class="cls-8" d="m113.19,79.29v1.8h-6.6v-8.23h6.45v1.8h-4.15v1.39h3.65v1.74h-3.65v1.5h4.3Z"/>
      </g>
      <path class="cls-6" d="m53.52,60.6c0,1.23-1,2.24-2.24,2.24s-2.24-1-2.24-2.24,1-2.24,2.24-2.24,2.24,1,2.24,2.24Z"/>
      <path class="cls-6" d="m59.28,60.6c0,1.23-1,2.24-2.24,2.24s-2.24-1-2.24-2.24,1-2.24,2.24-2.24,2.24,1,2.24,2.24Z"/>
      <path class="cls-6" d="m65.04,60.6c0,1.23-1,2.24-2.24,2.24s-2.24-1-2.24-2.24,1-2.24,2.24-2.24,2.24,1,2.24,2.24Z"/>
    </g>
  </g>
  <g id="Device">
    <g>
      <g>
        <path class="cls-8" d="m328.87,426.56l-130.76-.58c-15.73-.07-28.42-11.85-28.35-26.33l1.38-301.6c.07-14.48,12.88-26.17,28.62-26.1.01,0,.03,0,.04,0l130.72.52c15.73.07,28.42,11.85,28.35,26.32l-1.38,301.63c-.04,14.47-12.83,26.17-28.56,26.13-.02,0-.05,0-.07,0Z"/>
        <path class="cls-1" d="m329.42,80.9l-25.31-.11-74.06-.32h-8.91l-22.2-.09c-11.02-.05-19.99,8.25-20.04,18.54,0,0,0,0,0,0l-1.35,298.95c-.05,10.29,8.84,18.67,19.86,18.71h0l130.51.56c11.02.03,19.98-8.28,20.01-18.57h0s1.35-298.96,1.35-298.96c.05-10.29-8.83-18.67-19.85-18.72h-.01Z"/>
        <g>
          <path class="cls-8" d="m330.59,107.48c0,.9-.73,1.63-1.63,1.63s-1.63-.73-1.63-1.63c0-.9.73-1.63,1.63-1.63h0c.9,0,1.62.73,1.62,1.63Z"/>
          <path class="cls-8" d="m330.58,113.39c0,.9-.74,1.63-1.64,1.62-.9,0-1.63-.74-1.62-1.64,0-.9.73-1.62,1.63-1.62.9,0,1.63.74,1.63,1.64Z"/>
          <path class="cls-8" d="m330.56,119.23c0,.91-.73,1.65-1.63,1.65-.91,0-1.65-.73-1.65-1.63,0-.91.73-1.65,1.63-1.65h.02c.9,0,1.63.73,1.63,1.63Z"/>
        </g>
        <path class="cls-6" d="m297.65,114.38h-73.26c-1.45,0-2.63-1.18-2.63-2.63h0c0-1.45,1.18-2.63,2.63-2.63h73.26c1.45,0,2.63,1.18,2.63,2.63h0c0,1.45-1.18,2.63-2.63,2.63Z"/>
      </g>
      <g>
        <rect class="cls-8" x="216.75" y="346.1" width="97.67" height="29.96" rx="14.75" ry="14.75"/>
        <g>
          <path class="cls-1" d="m261.76,359.73c0,1.94-1.46,3.14-3.79,3.14h-1.49v2.23h-2.41v-8.53h3.9c2.33,0,3.79,1.21,3.79,3.16Zm-2.44,0c0-.79-.5-1.26-1.5-1.26h-1.34v2.5h1.34c1,0,1.5-.46,1.5-1.24Z"/>
          <path class="cls-1" d="m268.22,363.44h-3.61l-.67,1.66h-2.46l3.77-8.53h2.38l3.78,8.53h-2.51l-.67-1.66Zm-.71-1.78l-1.1-2.73-1.1,2.73h2.19Z"/>
          <path class="cls-1" d="m276.12,362.04v3.06h-2.41v-3.09l-3.25-5.44h2.55l2.02,3.39,2.02-3.39h2.34l-3.27,5.47Z"/>
        </g>
      </g>
      <g>
        <path class="cls-8" d="m196.72,164.82h126.23c.85,0,1.54.69,1.54,1.54v.05c0,.85-.69,1.54-1.54,1.54h-126.23c-.85,0-1.54-.69-1.54-1.54v-.05c0-.85.69-1.54,1.54-1.54Z"/>
        <g class="cls-9">
          <path d="m333.15,293.4c-4.01-11.03-5.9-22.72-5.9-34.45v-62.53c0-20.81-16.58-30.03-16.58-30.03h-114.02s16.58,9.22,16.58,30.03v73.44s.73,46.41,23.75,51.16l110.35-.15h10.87v-7.2c-6.68-5.05-21.61-10.81-25.05-20.26Z"/>
        </g>
        <g>
          <path class="cls-1" d="m337.9,287.91c-4.01-11.03-5.9-22.72-5.9-34.45v-62.53c0-20.81-19.68-24.54-19.68-24.54h-114.02s19.68,3.73,19.68,24.54v73.44s.73,46.41,23.75,51.16l119.34-.5c-11.51-2.38-18.78-15.04-23.17-27.11Z"/>
          <path class="cls-8" d="m337.9,287.91s.32.77.9,2.28c.63,1.49,1.52,3.73,2.95,6.54,1.43,2.8,3.37,6.22,6.32,9.75,1.5,1.74,3.25,3.5,5.4,5.03,2.14,1.53,4.72,2.79,7.63,3.38l1.23.25h-1.25c-27.15.15-68.87.36-119.34.62h-.02s-.02,0-.02,0c-4.75-1-9.01-4-12.02-7.95-3.06-3.94-5.22-8.58-6.86-13.42-1.66-4.85-2.79-9.93-3.63-15.12-.8-5.2-1.38-10.51-1.44-15.91,0-21.54,0-44.13,0-67.37,0-1.66,0-3.32,0-4.98l-.14-2.46-.07-1.23c-.06-.4-.15-.8-.22-1.21-.45-3.24-1.7-6.32-3.47-9.01-1.78-2.69-4.15-4.96-6.83-6.7-2.67-1.75-5.66-3.05-8.72-3.76l-2.26-.52h2.31c41.66.02,80.38.03,114.02.04h.04c2.46.55,4.76,1.51,6.92,2.65,2.15,1.16,4.15,2.57,5.84,4.27,3.51,3.29,5.63,7.71,6.5,12.16.86,4.49.5,8.93.58,13.19,0,4.27,0,8.42-.01,12.44-.02,16.08-.04,30.07-.05,41.58-.1,11.52,1.58,20.47,3.07,26.42.75,2.98,1.46,5.23,1.95,6.74.25.75.44,1.31.57,1.7.13.38.18.58.18.58,0,0-.3-.76-.82-2.26-.51-1.5-1.24-3.75-2.01-6.73-1.53-5.95-3.26-14.91-3.2-26.45-.01-11.52-.03-25.51-.05-41.58,0-4.02,0-8.17-.01-12.44-.08-4.26.27-8.71-.59-13.11-.86-4.37-2.94-8.71-6.39-11.93-1.66-1.67-3.63-3.05-5.75-4.19-2.12-1.13-4.41-2.07-6.79-2.6h.04c-33.64.02-72.36.03-114.02.04l.05-.52c3.17.73,6.17,2.04,8.91,3.83,2.73,1.78,5.16,4.09,6.98,6.85,1.81,2.75,3.09,5.91,3.55,9.21.07.41.16.82.22,1.23l.07,1.25.14,2.5v4.98c0,23.24,0,45.82,0,67.37.06,5.36.63,10.67,1.43,15.84.84,5.17,1.96,10.23,3.6,15.04,1.63,4.8,3.77,9.4,6.78,13.28,2.97,3.89,7.11,6.81,11.74,7.79h-.05c50.47-.17,92.19-.31,119.34-.4l-.03.26c-2.95-.61-5.55-1.9-7.71-3.45-2.17-1.55-3.92-3.34-5.42-5.09-2.95-3.56-4.88-6.99-6.29-9.81-1.41-2.83-2.28-5.08-2.89-6.58-.56-1.52-.84-2.31-.84-2.31Z"/>
        </g>
        <g>
          <path class="cls-6" d="m365.01,315.01c8-5.84,13.2-15.36,13.8-25.25l-128.93-.52c.65,5.98-.03,12.1-1.98,17.8-1.12,3.26-2.76,6.52-5.6,8.48l122.71-.52Z"/>
          <path class="cls-8" d="m365.01,315.01s-.2.02-.6.02c-.42,0-1.01.02-1.78.03-1.59.02-3.91.04-6.9.07-6.04.04-14.79.11-25.73.18-21.93.12-52.62.28-87.7.46h-.83s.68-.47.68-.47c1.83-1.28,3.21-3.17,4.22-5.23,1.01-2.07,1.72-4.31,2.29-6.59,1.12-4.57,1.47-9.41.95-14.22l-.03-.29h.3c1.19,0,2.47.01,3.76.02,51.62.25,97.32.47,125.17.61h.17s-.01.16-.01.16c-.31,4.72-1.59,8.82-3.15,12.15-1.56,3.33-3.41,5.9-5.05,7.84-1.66,1.93-3.14,3.21-4.15,4.06-1.05.81-1.6,1.2-1.6,1.2,0,0,.13-.12.39-.33.27-.22.65-.53,1.16-.93.99-.86,2.45-2.16,4.08-4.1,1.62-1.94,3.43-4.51,4.96-7.83,1.52-3.31,2.77-7.39,3.05-12.06l.15.16c-27.85-.09-73.56-.23-125.17-.39-1.29,0-2.57-.01-3.76-.02l.26-.29c.53,4.87.17,9.77-.97,14.4-.58,2.31-1.3,4.57-2.34,6.7-1.03,2.11-2.46,4.08-4.39,5.43l-.15-.47c35.06-.11,65.72-.2,87.63-.27,10.95-.01,19.71-.02,25.75-.03,3.01,0,5.33.01,6.92.01.78,0,1.38.01,1.79.01.4,0,.61.02.61.02Z"/>
        </g>
        <path class="cls-8" d="m317.14,190.51c0,.15-19.06.26-42.57.26s-42.58-.12-42.58-.26,19.06-.26,42.58-.26,42.57.12,42.57.26Z"/>
        <path class="cls-8" d="m317.14,208.66c0,.15-19.06.26-42.57.26s-42.58-.12-42.58-.26,19.06-.26,42.58-.26,42.57.12,42.57.26Z"/>
        <path class="cls-8" d="m322.21,258.61c0,.15-20.2.26-45.1.26s-45.11-.12-45.11-.26,20.19-.26,45.11-.26,45.1.12,45.1.26Z"/>
        <g>
          <path class="cls-8" d="m264.51,182.95c0,1.47-1.22,2.34-3.51,2.34h-4.61v-8.53h4.36c2.24,0,3.34.91,3.34,2.23,0,.82-.41,1.47-1.14,1.85.96.34,1.56,1.07,1.56,2.11Zm-5.73-4.45v1.65h1.66c.8,0,1.22-.28,1.22-.83s-.41-.82-1.22-.82h-1.66Zm3.29,4.18c0-.59-.44-.87-1.27-.87h-2.02v1.73h2.02c.83,0,1.27-.28,1.27-.87Z"/>
          <path class="cls-8" d="m265.77,176.76h2.41v8.53h-2.41v-8.53Z"/>
          <path class="cls-8" d="m269.9,176.76h2.41v6.62h4.07v1.91h-6.48v-8.53Z"/>
          <path class="cls-8" d="m277.34,176.76h2.41v6.62h4.07v1.91h-6.48v-8.53Z"/>
        </g>
        <rect class="cls-6" x="233.12" y="197.05" width="43.25" height="6.46"/>
        <rect class="cls-6" x="293.65" y="197.05" width="25.66" height="6.46"/>
        <rect class="cls-6" x="233.12" y="216.62" width="41.44" height="6.46"/>
        <rect class="cls-6" x="233.12" y="230.45" width="17.32" height="6.46"/>
        <rect class="cls-6" x="233.12" y="243.23" width="28.08" height="6.46"/>
        <rect class="cls-6" x="236.4" y="278.61" width="87.62" height="6.46"/>
        <rect class="cls-8" x="307.42" y="216.62" width="12.58" height="6.46"/>
        <rect class="cls-8" x="307.42" y="228.98" width="12.58" height="6.46"/>
        <rect class="cls-8" x="307.42" y="242.73" width="12.58" height="6.46"/>
        <rect class="cls-8" x="302.35" y="264.39" width="17.43" height="6.46"/>
      </g>
    </g>
  </g>
  <g id="Character">
    <g>
      <polygon class="cls-8" points="89.17 457.52 82.36 457.52 74.14 409.39 84.14 409.39 89.17 457.52"/>
      <polygon class="cls-8" points="25.52 457.52 32.33 457.52 40.56 409.39 30.56 409.39 25.52 457.52"/>
      <polygon class="cls-8" points="203.58 457.52 196.78 457.52 188.55 409.39 198.55 409.39 203.58 457.52"/>
      <polygon class="cls-8" points="139.94 457.52 146.74 457.52 154.97 409.39 144.97 409.39 139.94 457.52"/>
      <rect class="cls-8" x="19.17" y="390.13" width="184.66" height="20.3"/>
      <rect class="cls-8" x="60.03" y="351.67" width="132.28" height="28.23" rx="8.94" ry="8.94"/>
      <path class="cls-8" d="m152.3,335.57h46.1c5.41,0,9.79,4.39,9.79,9.79v45.3h-55.89v-55.09h0Z"/>
      <path class="cls-8" d="m65.54,276.76h88.93c7.24,0,13.11,5.88,13.11,13.11v61.8h-102.04v-74.92h0Z"/>
      <polygon class="cls-8" points="188.31 390.98 74.14 391.08 74.14 378.39 188.31 378.39 188.31 390.98"/>
      <g>
        <path class="cls-8" d="m24.31,276.76h112.55v74.92H19.17v-69.78c0-2.83,2.3-5.14,5.14-5.14Z"/>
        <g class="cls-9">
          <path d="m24.26,276.76h23.93v67.09c0,4.32-3.51,7.83-7.83,7.83h-13.37c-4.32,0-7.83-3.51-7.83-7.83v-62c0-2.81,2.28-5.09,5.09-5.09Z"/>
        </g>
      </g>
      <g>
        <g>
          <g>
            <g>
              <path class="cls-5" d="m99.68,251.02l-5.68-31.75c-1.49-9.62,2.86-18.51,12.52-19.74l.9-.06c9.05-.62,17.06,5.81,18.4,14.78,1.25,8.35,2.52,17.58,2.77,22.09.52,9.33-8.7,11.41-8.7,11.41-.02,0,.56,5.65.87,8.38h0l-1.56,7.22-19.51-12.34Z"/>
              <path class="cls-7" d="m119.87,247.79s-5.85.75-12.38-2.76c0,0,3.4,6.81,12.64,5.33l-.26-2.57Z"/>
              <path class="cls-10" d="m123.51,222.94c.07.7-.46,1.34-1.19,1.43-.73.09-1.38-.41-1.45-1.11-.07-.7.46-1.34,1.19-1.43.73-.09,1.38.41,1.46,1.11Z"/>
              <path class="cls-10" d="m124.08,218.19c-.15.18-1.21-.49-2.64-.39-1.43.08-2.43.89-2.6.72-.08-.07.06-.4.5-.76.43-.36,1.17-.74,2.07-.79.89-.06,1.67.22,2.12.53.46.31.63.61.56.7Z"/>
              <path class="cls-10" d="m111.02,223.9c.07.7-.46,1.34-1.19,1.43-.73.09-1.38-.41-1.45-1.11-.07-.7.46-1.34,1.19-1.43.73-.09,1.38.41,1.45,1.11Z"/>
              <path class="cls-10" d="m110.06,219.48c-.15.18-1.21-.49-2.64-.39-1.43.08-2.43.89-2.6.72-.08-.07.06-.4.5-.76.43-.36,1.17-.74,2.07-.8.89-.06,1.67.22,2.12.53.46.31.63.61.56.69Z"/>
              <path class="cls-10" d="m115.95,230.14c-.01-.08.87-.3,2.3-.58.36-.06.7-.16.75-.41.07-.27-.11-.65-.32-1.07-.4-.86-.83-1.76-1.27-2.71-1.77-3.86-3.08-7.05-2.93-7.12.16-.07,1.72,3,3.49,6.87.43.95.84,1.86,1.23,2.73.17.41.44.86.29,1.42-.08.28-.33.5-.56.58-.23.09-.44.11-.62.13-1.45.18-2.35.25-2.36.16Z"/>
              <path class="cls-10" d="m110.22,214.97c-.17.38-1.59.09-3.28.17-1.7.04-3.09.44-3.28.07-.09-.17.18-.52.75-.86.57-.34,1.46-.63,2.48-.67,1.02-.04,1.93.19,2.52.49.6.29.89.62.81.8Z"/>
              <path class="cls-10" d="m123.86,213.98c-.27.35-1.46.11-2.87.21-1.4.06-2.57.43-2.87.12-.13-.15.03-.5.52-.85.49-.35,1.32-.67,2.28-.73.96-.05,1.82.17,2.34.46.52.29.71.61.6.78Z"/>
              <path class="cls-5" d="m95.2,225.81c-.16-.06-6.53-1.46-5.89,4.9.64,6.36,8.02,4.57,8.02,4.57,0-.18-2.12-9.47-2.12-9.47Z"/>
              <path class="cls-7" d="m94,232.72s-.1.09-.28.19c-.17.1-.48.19-.83.1-.7-.18-1.37-1.19-1.51-2.33-.07-.58,0-1.14.15-1.62.15-.48.42-.84.75-.93.33-.11.59.07.68.24.1.17.08.3.11.31.02.01.13-.12.05-.38-.04-.12-.13-.27-.29-.37-.16-.11-.4-.15-.63-.1-.49.08-.88.58-1.06,1.1-.2.53-.29,1.16-.21,1.81.17,1.28.95,2.41,1.89,2.58.46.07.82-.1,1-.27.18-.18.2-.32.18-.33Z"/>
            </g>
            <g>
              <path class="cls-10" d="m137.68,204.18c-.14-.36-.44-.65-.79-.81-.77-.36-1.6-.22-2.42-.15-2.02.17-4.07-.15-5.96-.89.6-.38,1.14-.82,1.59-1.37.93-1.13,1.36-2.75.76-4.08-.11-.25-.29-.5-.56-.56-.43-.09-.75.36-1,.71-.84,1.15-1.67,1.69-3.1,1.69-.89,0-1.76-.12-2.49-.48-.03-.03-.06-.06-.09-.08-.36-.31-.72-.6-1.07-.89,0,0,0,0,0,0h0c-2.63-2.14-4.84-3.58-7.05-4.22-3.23-.94-8.47-.94-11.62.23-3.15,1.17-5.8,4.08-5.93,7.44-1.97-1.36-4.69-1.08-6.81.03l-.06-.02c-2.38,1.12-3.52,3.86-4,6.44-.03.14-.05.28-.07.43-.7,1.4-1.72,2.64-3,3.56-.22.16-.48.36-.48.64,0,.27.25.48.49.61.63.36,1.35.57,2.07.63-.17.62-.37,1.22-.65,1.81-.23.5-.51,1.09-.22,1.56.23.36.72.47,1.13.37.41-.1.76-.37,1.1-.63-.21.68-.42,1.37-.63,2.05.91.07,1.82-.09,2.66-.44.75,2.3,1.58,6.61,2.34,8.14,1.69-.14,2.08-.36,2.96-.16,1.14.26.91,2.25,2.29,1.55.7-.35,1.55-3.23,1.72-4,1.13-5.09,1.15-10.43.06-15.52.91-1.19,2.06-2.2,3.35-2.96l-.1.11c2.51-1.16,5.36-2.34,7.95-1.36,2.01.76,3.33,2.63,4.91,4.08,3.01,2.74,6.23,4.04,10.29,3.81.64,2.77,1.2,7.35,1.6,9.96l1.72-5.46v.02c.15-.32.27-.65.39-.97l.04-.1h0c.18-.53.35-1.05.59-1.57,0,0,.02.01.03.02,1.54,1.11,3.45-1.01,2.18-2.42-.25-.28-.54-.52-.87-.72.71.55,1.7.74,2.53.4.82-.35,1.4-1.27,1.24-2.15-.11-.6-.6-1.1-1.17-1.28,1.16-.02,2.3-.39,3.25-1.06.62-.44,1.2-1.12.9-1.92Z"/>
              <path class="cls-4" d="m100.99,201.49s-.37.28-.85.95c-.48.66-.98,1.77-1.12,3.23-.08.73-.09,1.53,0,2.39.08.86.24,1.77.4,2.73.16.96.33,1.98.37,3.05.02.53.01,1.08-.05,1.63-.06.54-.15,1.13-.5,1.63-.28.4-.8.62-1.27.57-.47-.04-.91-.24-1.25-.55-.67-.64-.9-1.51-1.13-2.28h.2c-.25.74-.51,1.46-.94,2.07-.42.6-1.05,1.04-1.71,1.16-.33.06-.67.04-.98-.07-.31-.11-.54-.34-.72-.58-.16-.25-.27-.53-.28-.81-.01-.28.07-.55.23-.75l.11.08c-.64.89-1.35,1.4-1.85,1.7-.25.15-.46.24-.6.3-.14.06-.21.08-.22.08,0,0,.07-.04.2-.11.13-.07.33-.17.57-.33.48-.31,1.17-.83,1.78-1.71l.11.08c-.28.36-.24.95.07,1.39.16.22.38.41.65.51.27.1.58.12.88.06.61-.12,1.19-.53,1.59-1.1.41-.57.66-1.28.9-2.02l.1-.31.09.32c.23.77.47,1.6,1.08,2.18.3.28.7.46,1.12.49.42.04.83-.14,1.08-.48.31-.43.4-.99.46-1.52.06-.54.07-1.07.05-1.6-.04-1.05-.2-2.06-.35-3.02-.15-.96-.31-1.88-.38-2.75-.08-.87-.06-1.69.03-2.42.17-1.48.7-2.61,1.21-3.26.51-.66.92-.9.92-.9Z"/>
              <path class="cls-4" d="m130.67,207.71s-.02.03-.07.07c-.06.05-.13.12-.22.19-.09.09-.21.19-.37.29-.15.11-.32.24-.54.35-.82.5-2.17,1.04-3.91,1.11-1.73.07-3.85-.33-5.82-1.52-1.99-1.15-3.82-2.96-5.37-5.09-.79-1.06-1.45-2.16-2.17-3.17-.71-1.01-1.47-1.93-2.36-2.63-.88-.7-1.86-1.19-2.84-1.36-.49-.09-.97-.08-1.43-.02-.46.07-.88.21-1.27.38-.78.35-1.38.86-1.83,1.36-.45.51-.73,1.03-.92,1.47-.34.9-.31,1.45-.34,1.44,0,0,0-.03,0-.1,0-.08,0-.17.02-.29.02-.25.09-.63.25-1.09.18-.45.45-.99.9-1.51.45-.52,1.06-1.05,1.85-1.42.4-.18.84-.33,1.31-.4.47-.06.98-.08,1.49.01,1.02.17,2.04.67,2.94,1.38.91.71,1.69,1.65,2.41,2.66.72,1.01,1.39,2.11,2.17,3.16,1.54,2.11,3.34,3.9,5.3,5.04,1.94,1.18,4.01,1.59,5.71,1.54,1.72-.05,3.05-.56,3.88-1.03.83-.47,1.21-.86,1.23-.83Z"/>
              <path class="cls-4" d="m131.12,203.54s-.1.11-.31.27c-.21.16-.53.37-.94.6-.41.23-.93.46-1.51.67-.59.2-1.26.36-1.97.46-.72.09-1.4.1-2.03.06-.62-.05-1.18-.14-1.64-.26-.46-.11-.82-.23-1.06-.34-.24-.1-.37-.16-.37-.18.01-.04.55.18,1.46.36.45.1,1,.17,1.61.21.61.03,1.29.01,1.99-.08.7-.1,1.36-.25,1.94-.44.58-.19,1.09-.4,1.51-.61.83-.42,1.3-.76,1.32-.73Z"/>
            </g>
          </g>
          <path class="cls-10" d="m116.3,234.49c-.1-.22-1.53.52-3.19-.18-1.66-.69-2.29-2.31-2.5-2.21-.1.03-.1.49.22,1.14.31.64.99,1.46,2.01,1.89,1.01.42,2.01.31,2.63.06.63-.26.9-.6.84-.7Z"/>
        </g>
        <g>
          <path class="cls-10" d="m205.08,371.2l12.3,16.42s20.82-6.99,23.39-4.17l-30.99,24.99-20.21-24.8,15.51-12.44Z"/>
          <path class="cls-6" d="m206.72,394.01c-.47.65-.34,1.66.29,2.15.63.49,1.65.37,2.13-.27.48-.64.36-1.85-.32-2.27-.68-.42-1.88-.21-2.19.53"/>
          <path class="cls-4" d="m209.79,408.44l-1.94-2.58,30.43-23s1.86-.51,2.49.58l-30.99,24.99Z"/>
          <path class="cls-1" d="m217.76,387.06c.12.16-.58.83-.94,1.92-.38,1.08-.24,2.04-.42,2.1-.16.08-.67-1-.22-2.31.44-1.31,1.5-1.87,1.58-1.7Z"/>
          <path class="cls-1" d="m222.09,385.78c.15.12-.29.9-.29,1.96-.03,1.05.4,1.85.24,1.97-.12.14-.94-.66-.92-1.97.01-1.31.85-2.09.97-1.95Z"/>
          <path class="cls-1" d="m227.07,388.19c-.11.14-.93-.44-1.21-1.58-.29-1.14.16-2.04.33-1.97.19.06.08.87.33,1.8.22.94.69,1.61.55,1.75Z"/>
          <path class="cls-1" d="m214.54,383.63c.05.19-.81.54-1.62,1.29-.82.73-1.26,1.56-1.44,1.49-.18-.04.02-1.12.99-1.99.96-.87,2.06-.97,2.08-.79Z"/>
        </g>
        <g>
          <path class="cls-10" d="m177.45,427.19l-.78,20.5s20.58,7.68,20.8,11.48l-39.81-.08-.1-32,19.88.1Z"/>
          <path class="cls-6" d="m164.37,445.94c-.77.21-1.3,1.07-1.13,1.85.18.78,1.05,1.33,1.83,1.13.77-.2,1.45-1.21,1.18-1.97-.26-.75-1.33-1.34-2.03-.97"/>
          <path class="cls-4" d="m157.67,459.09l.12-3.23,38.12,1.29s1.77.77,1.57,2.02l-39.81-.08Z"/>
          <path class="cls-1" d="m177.32,447.49c0,.19-.98.28-1.94.9-.97.6-1.47,1.44-1.65,1.36-.18-.04.11-1.2,1.29-1.93,1.17-.74,2.34-.51,2.3-.33Z"/>
          <path class="cls-1" d="m181.49,449.23c.04.19-.8.52-1.46,1.34-.69.8-.85,1.69-1.05,1.68-.18.03-.31-1.11.53-2.11.83-1.01,1.98-1.09,1.98-.91Z"/>
          <path class="cls-1" d="m183.85,454.23c-.18.04-.45-.93.06-1.99.49-1.07,1.41-1.49,1.49-1.32.11.16-.48.73-.88,1.61-.42.87-.48,1.69-.67,1.71Z"/>
          <path class="cls-1" d="m176.98,442.8c-.08.18-.97-.09-2.07-.02-1.1.05-1.96.42-2.06.25-.11-.14.72-.86,2.02-.93,1.29-.08,2.21.54,2.11.7Z"/>
        </g>
        <g>
          <path class="cls-10" d="m96.55,337.28c.52-.16,18.63-8.11,33.53-14.24,9.9-4.08,22.23-6.26,22.23-6.26,0,0,15.12-8.8,20.86-.8,5.73,8,46.48,63.77,46.19,64.63-.29.86-19.77,18.15-19.77,18.15,0,0-41.97-53.44-42.83-53.16-.86.29-20.27,15.48-20.27,15.48,0,0-5.83,6.02-10.13,6.6-4.3.57-29.47-1.42-29.47-1.42l-9.53-25.83,9.19-3.15Z"/>
          <path class="cls-10" d="m117.96,359.79c.9.6,10.46,7.3,10.46,7.3l21.63,5,4.41,71.05,25.85-.92s.04-51.23.04-63.23-.3-23.1-3.9-27c-3.6-3.9-19.69-6.37-19.69-6.37l-38.8,14.17Z"/>
          <path class="cls-4" d="m180.31,376.23s-.03-.29-.04-.84c0-.6-.02-1.4-.03-2.41-.03-2.09-.09-5.12-.34-8.85-.15-1.86-.33-3.9-.68-6.06-.1-.54-.21-1.08-.31-1.64-.15-.54-.27-1.1-.44-1.65-.35-1.1-.83-2.18-1.72-2.97-1.86-1.54-4.3-2.53-6.82-3.41-2.54-.86-5.23-1.56-8.01-2.19-1.46-.32-2.9-.62-4.27-.86l.21-.05c-8.19,6.4-15.46,12.09-20.74,16.21-2.6,2-4.71,3.63-6.21,4.78-.71.53-1.27.95-1.69,1.27-.39.29-.6.43-.61.41-.01-.01.18-.18.55-.5.41-.34.95-.79,1.63-1.35,1.48-1.19,3.55-2.86,6.11-4.92,5.25-4.16,12.49-9.9,20.63-16.35l.09-.07.12.02c1.38.24,2.83.53,4.3.86,2.79.63,5.5,1.34,8.07,2.22,2.54.9,5.01,1.9,6.98,3.54.98.88,1.49,2.08,1.84,3.2.18.57.29,1.14.44,1.7.1.56.2,1.12.3,1.66.34,2.19.5,4.24.62,6.11.2,3.75.2,6.78.17,8.88-.02,1.05-.05,1.86-.07,2.41-.03.55-.06.84-.07.84Z"/>
        </g>
        <polygon class="cls-2" points="96.94 252.36 98.52 244.34 115.98 254.16 120 248.91 120.41 250.53 137.76 280.1 148.82 315.83 101.42 335.21 96.24 306.04 96.94 252.36"/>
        <path class="cls-10" d="m133.5,311.92s-.06-.2-.13-.58c-.07-.45-.16-1-.27-1.69-.21-1.47-.56-3.59-1.03-6.2-.94-5.22-2.52-12.38-4.9-20.11-2.39-7.73-5.13-14.54-7.29-19.38-1.08-2.42-1.99-4.37-2.64-5.7-.29-.63-.54-1.14-.73-1.55-.16-.36-.24-.55-.22-.56.02,0,.13.17.32.51.22.4.49.89.82,1.5.71,1.31,1.67,3.23,2.8,5.64,2.26,4.81,5.06,11.62,7.46,19.37,2.39,7.76,3.91,14.96,4.76,20.21.43,2.62.72,4.75.87,6.23.07.69.12,1.25.17,1.7.03.39.04.6.02.6Z"/>
        <path class="cls-10" d="m122.74,255.88s-.19.32-.6.85c-.49.6-1.09,1.35-1.81,2.23l-.11.14-.14-.12c-1.22-1.08-2.69-2.39-4.36-3.86l.4-.11c-.49,1.71-1.02,3.58-1.59,5.55l-.09.31-.29-.14c-.4-.2-.83-.41-1.26-.62-4.19-2.07-7.96-3.97-10.68-5.37-1.28-.67-2.35-1.23-3.21-1.68-.75-.41-1.16-.65-1.14-.68s.46.14,1.24.49c.88.41,1.98.92,3.29,1.53,2.76,1.31,6.57,3.16,10.75,5.23.43.21.86.43,1.26.62l-.38.17c.58-1.96,1.13-3.83,1.63-5.54l.11-.38.29.27c1.62,1.51,3.07,2.86,4.26,3.97l-.25.02c.77-.85,1.41-1.55,1.93-2.13.46-.49.72-.75.74-.73Z"/>
        <g class="cls-9">
          <path d="m96.9,366.27l4.52.34,6.54-34.19s-7.13,4.34-7.31,4.89c-.18.55-3.75,28.96-3.75,28.96Z"/>
        </g>
        <path class="cls-4" d="m97.87,247.67l-2.74,5.07-14.95,8.05,4.91,55.32s-9.51,26.98-9.51,38.92,2.65,17.69,5.75,19.24c3.1,1.55,15.04-4.2,15.04-4.2,0,0,1.29-7.04,8.22-22.99,6.94-15.95,14.33-33.39,14.33-33.39,0,0,2.21-8.62-2.87-24.32-5.09-15.7-18.17-41.68-18.17-41.68Z"/>
        <g>
          <g>
            <path class="cls-5" d="m168.13,272.04s-.31-8.33.13-9.73c0-.01,0-.03.01-.04.67-2.08,3.09-4.26,5.24-4.65,1.13-.2,2.04-.15,2.42.23.42.41.98,3.52.98,3.52l11.13-2.06s-6.58,10.26-8.43,13.02c-1.86,2.75-3.78,4.58-3.78,4.58l-12.29,29.29-4.99-16.68,9.58-17.48Z"/>
            <path class="cls-10" d="m192.56,241.83c-2.78,5.3-12.12,23.47-14.79,28.66-.4.78-1.35,1.11-2.15.75h0c-.87-.39-1.23-1.43-.8-2.27l14.74-28.69c.43-.85,1.48-1.17,2.31-.71h0c.81.44,1.11,1.45.68,2.26Z"/>
            <path class="cls-5" d="m188.8,249.45c.27.04,1.35-.24,1.51,1.01.15,1.25-.04,5.56-.66,5.84s-1.58.72-1.58.72c0,0,.57,2.72-.07,3.67-.64.95-1.85,1.58-1.85,1.58,0,0-.05,2.26-.73,3.14-.67.88-2.25,2.34-2.25,2.34,0,0-.44,3.6-2.12,4.27-1.68.67-2.06,1.2-2.06,1.2l-.53-2.17s-4.57-3.14-5.49-3.72c-.92-.57-1.34-1.87-.45-2.45.9-.57,6.82,2.45,6.82,2.45l2.14-2.21-1.27-2.44s-2.61-2.84-2.55-3.44c.06-.6,1.17-1.61,2.22-1.5,1.04.11,3.65,2.4,3.65,2.4h0c.19.49.87.53,1.12.06l.16-.3s-.91-2.82-1.39-4.93c-.13-.56.05-1.52.59-1.76,1.08-.49,1.99-.53,2.58.5h0l2.21-4.28Z"/>
            <path class="cls-7" d="m171.04,261.43c0,.06.5.09,1.34.09l-.16-.12c.12.53.24,1.26.72,1.99.23.36.6.71,1.07.9.45.19,1.05.25,1.57-.03.45-.25.7-.7.83-1.1.13-.41.18-.8.22-1.17.08-.74.05-1.41-.01-1.97-.14-1.12-.43-1.75-.48-1.74-.08.02.08.68.13,1.76.02.54,0,1.18-.09,1.88-.1.68-.23,1.54-.84,1.88-.34.19-.77.16-1.14.01-.37-.15-.66-.4-.88-.7-.44-.61-.61-1.3-.78-1.81l-.04-.13h-.12c-.84.1-1.33.18-1.33.24Z"/>
            <path class="cls-7" d="m178.46,271.05c.04-.06-.72-.65-1.97-1.55-.68-.48-1.42-1-2.22-1.57-.42-.29-.85-.59-1.3-.9-.38-.31-.75-.78-.81-1.24-.08-.44.41-.76.86-.7.5.04,1.02.19,1.49.34.95.32,1.8.67,2.51.97,1.42.6,2.28,1,2.32.94.03-.06-.78-.57-2.17-1.27-.7-.34-1.53-.74-2.51-1.09-.49-.17-1.01-.34-1.62-.4-.29-.05-.71.05-.96.26-.29.2-.49.62-.43.99.11.72.54,1.2,1.01,1.58.46.31.91.61,1.35.9.82.53,1.58,1.02,2.27,1.47,1.3.83,2.13,1.31,2.17,1.25Z"/>
          </g>
          <path class="cls-7" d="m185.51,263.28c.13-.02.04-.94-.56-1.89-.59-.94-1.39-1.42-1.46-1.31-.09.11.49.72,1.03,1.59.55.86.85,1.65.99,1.61Z"/>
          <path class="cls-7" d="m186.22,253.26c-.13.07.29.99.88,2.04.58,1.04.92,1.95,1.06,1.92.13-.02,0-1.06-.61-2.16-.61-1.08-1.21-1.85-1.33-1.79Z"/>
        </g>
        <path class="cls-4" d="m163.83,279.1c-.44.66-7.04,12.09-7.04,12.09,0,0-15.08-34.46-20.3-35.01-5.39-.57-1.21,14.92-1.21,14.92l12.96,39.55s9.11,2.82,14.19-.5c5.09-3.32,16.54-26.16,16.54-26.16l-15.14-4.9Z"/>
        <path class="cls-4" d="m120.4,250.29s12.51,24.42,16.09,37.36c2.35,8.49,5.69,31.44,5.69,31.44l10.3-2.28-8.8-30.77-7.19-29.85-11.13-2.2-4.97-3.69Z"/>
        <path class="cls-10" d="m116.56,308.83s-.12-.17-.31-.52c-.21-.4-.49-.91-.82-1.54-.73-1.41-1.73-3.35-2.95-5.71-2.48-4.9-5.85-11.58-9.57-18.95-1.84-3.72-3.66-7.21-5.17-10.51-1.5-3.3-2.58-6.48-3.03-9.28-.47-2.8-.4-5.14-.17-6.7.11-.78.25-1.38.35-1.78.11-.4.18-.6.19-.59.05.02-.2.85-.37,2.4-.17,1.55-.19,3.85.31,6.59.49,2.74,1.58,5.86,3.09,9.12,1.52,3.26,3.35,6.76,5.19,10.47,3.68,7.4,7.01,14.1,9.45,19.03,1.17,2.4,2.12,4.37,2.82,5.8.3.65.55,1.18.75,1.59.17.37.25.56.23.57Z"/>
        <path class="cls-10" d="m140.48,263.88s.09.16.22.49c.14.39.31.86.52,1.43.43,1.25,1,3.07,1.64,5.35,1.26,4.55,2.64,10.94,3.82,18.05.58,3.55,1.14,6.93,1.65,10.01.26,1.53.5,2.99.73,4.37.24,1.35.58,2.59.93,3.71.7,2.24,1.37,4.03,1.77,5.29.2.63.35,1.12.44,1.46.09.34.12.52.11.52-.02,0-.09-.16-.21-.49-.14-.38-.32-.85-.53-1.42-.46-1.24-1.18-3-1.94-5.25-.37-1.12-.75-2.37-1.01-3.75-.24-1.37-.51-2.83-.78-4.36-.52-3.08-1.09-6.46-1.69-10.01-1.18-7.1-2.49-13.47-3.66-18.04-.59-2.28-1.1-4.12-1.47-5.38-.17-.58-.31-1.07-.42-1.46-.09-.34-.13-.52-.11-.52Z"/>
        <path class="cls-10" d="m125.36,253.98s.18.07.5.25c.32.19.77.49,1.33.92,1.11.86,2.62,2.23,4.3,4.09.84.93,1.73,1.98,2.62,3.16.88,1.2,1.71,2.53,2.56,3.96,1.68,2.85,3.35,6.12,4.59,9.75,1.29,3.6,2.24,7.15,2.66,10.45.44,3.3.32,6.32.02,8.81-.3,2.49-.75,4.47-1.11,5.83-.18.68-.34,1.2-.45,1.55-.12.35-.18.53-.2.53-.02,0,.02-.2.1-.56.09-.42.21-.94.35-1.57.3-1.36.69-3.34.94-5.82.24-2.47.32-5.45-.14-8.7-.44-3.25-1.39-6.76-2.67-10.33-1.24-3.59-2.87-6.83-4.51-9.68-.83-1.42-1.64-2.77-2.49-3.95-.85-1.18-1.72-2.24-2.54-3.17-1.64-1.88-3.09-3.28-4.15-4.18-1.06-.9-1.72-1.3-1.7-1.34Z"/>
        <path class="cls-10" d="m95.63,344.05s.09.19.2.58c.1.38.23.95.35,1.69.23,1.47.4,3.61.1,6.18l-.03.24-.24-.04c-2.83-.48-6.24-.92-9.93-1.11-3.8-.2-7.34-.11-10.26.08l-.5.03.3-.39c1.44-1.9,2.66-3.51,3.59-4.74.88-1.13,1.39-1.76,1.43-1.73.04.03-.41.71-1.22,1.89-.89,1.26-2.06,2.91-3.44,4.86l-.2-.36c2.94-.26,6.5-.38,10.33-.18,3.71.19,7.15.66,9.98,1.2l-.27.2c.35-2.51.25-4.62.1-6.08-.15-1.46-.34-2.29-.28-2.3Z"/>
        <path class="cls-4" d="m80.17,260.79s-9.26,6.18-10.5,13.24c-1.66,9.51,1.62,42.83,2.49,50.41.87,7.57,5.84,14.28,11.03,14.71,5.19.43,46.3-14.49,46.3-14.49l-4.11-15.14-29.85,6.06-3.03-35.05-12.33-19.73Z"/>
        <path class="cls-4" d="m92.89,284.98l2.64,30.58,29.85-6.06,4.11,15.14s-31.42,12.42-35.83,12.97c-4.41.55-16.36,2.79-18.93-5.2"/>
        <g>
          <path class="cls-8" d="m135.01,294.1h22.82c.52,0,.95.42.95.95v13.8c0,.52-.42.95-.95.95h-22.82c-.52,0-.95-.42-.95-.95v-13.8c0-.52.42-.95.95-.95Z" transform="translate(-169.49 415.13) rotate(-83.84)"/>
          <path class="cls-8" d="m140.88,288.92s-.32-.06-.7.28c-.2.18-.28.46-.29.86-.04.39-.07.83-.12,1.33-.2,2.05-.48,4.92-.83,8.44-.37,3.58-.81,7.82-1.29,12.52-.1.51.23.92.79.91.6.06,1.21.13,1.83.19,1.23.13,2.49.26,3.77.4,2.56.27,5.21.56,7.93.85.25.03.5-.09.64-.29.07-.11.11-.21.12-.35l.05-.5c.07-.67.14-1.34.22-2,.14-1.32.29-2.63.43-3.91.28-2.56.55-5.03.81-7.39.26-2.35.51-4.59.75-6.68.06-.52.12-1.04.17-1.54.02-.24.07-.53.07-.72,0-.19-.09-.38-.23-.51-.15-.14-.3-.2-.54-.21-.24-.03-.47-.05-.71-.08-.47-.05-.92-.11-1.37-.16-3.52-.41-6.38-.75-8.42-.99-.95-.12-1.72-.22-2.29-.3-.52-.07-.8-.12-.79-.14,0-.02.28,0,.81.03.57.05,1.34.12,2.3.2,2.05.2,4.92.48,8.44.83.45.05.9.09,1.37.14.23.02.47.05.71.07.24,0,.57.11.78.31.22.2.36.49.37.8,0,.31-.05.52-.07.78-.05.51-.11,1.02-.16,1.54-.22,2.1-.45,4.34-.7,6.69-.25,2.36-.51,4.83-.78,7.39-.14,1.28-.28,2.59-.42,3.91-.07.66-.14,1.33-.21,2l-.05.5c-.01.19-.09.42-.21.6-.24.36-.7.57-1.13.52-2.72-.29-5.37-.58-7.93-.86-1.28-.14-2.54-.28-3.77-.41-.62-.07-1.23-.14-1.83-.2-.28,0-.75-.14-.96-.44-.25-.27-.33-.73-.26-1.02.53-4.69,1-8.93,1.41-12.5.41-3.52.75-6.38.99-8.43.06-.49.12-.93.17-1.32.02-.37.14-.75.37-.92.46-.35.8-.2.78-.21Z"/>
        </g>
        <g>
          <rect class="cls-1" x="149.19" y="299.71" width="1.64" height="2.91" transform="translate(33.17 -14.35) rotate(6.16)"/>
          <rect class="cls-1" x="149.65" y="295.49" width="1.64" height="2.91" transform="translate(32.72 -14.43) rotate(6.16)"/>
          <rect class="cls-1" x="148.74" y="303.94" width="1.64" height="2.91" transform="translate(33.62 -14.28) rotate(6.16)"/>
          <rect class="cls-1" x="148.26" y="308.11" width="1.64" height="2.91" transform="translate(34.06 -14.2) rotate(6.16)"/>
        </g>
        <path class="cls-10" d="m74.74,332.42s.06.09.14.27c.09.2.21.47.37.8.34.68.99,1.65,2.14,2.54,1.15.9,2.86,1.59,4.93,1.9,2.07.32,4.48.3,7.12.04,1.32-.13,2.7-.34,4.16-.53,1.4-.24,2.86-.75,4.35-1.22,2.99-.99,6.17-2.15,9.53-3.39,6.71-2.49,14.1-5.34,21.91-8.42l-.16.32c-.73-2.68-1.49-5.5-2.27-8.36-.62-2.29-1.24-4.56-1.84-6.78l.32.19c-10.97,2.21-21.14,4.26-29.86,6.01l-.25.05-.02-.25c-.75-9.2-1.38-16.84-1.82-22.21-.2-2.65-.36-4.73-.47-6.2-.05-.69-.08-1.23-.11-1.63-.02-.37-.02-.56-.01-.56s.04.19.08.55c.04.4.1.94.17,1.62.14,1.46.34,3.54.6,6.18.49,5.37,1.18,13.01,2.02,22.2l-.27-.2c8.72-1.78,18.88-3.86,29.85-6.1l.25-.05.07.25c.6,2.22,1.22,4.49,1.84,6.78.78,2.86,1.54,5.68,2.27,8.36l.06.23-.23.09c-7.82,3.07-15.22,5.9-21.94,8.37-3.36,1.23-6.55,2.37-9.56,3.34-1.51.47-2.95.96-4.44,1.21-1.45.18-2.84.38-4.17.5-2.67.24-5.11.23-7.21-.12-2.1-.34-3.84-1.07-5-2.02-1.17-.94-1.8-1.95-2.11-2.65-.13-.34-.24-.61-.32-.82-.07-.19-.1-.28-.09-.28Z"/>
        <path class="cls-10" d="m74.66,266.97c0-.05,1.02-.19,2.66,0,1.64.19,3.89.82,6.08,2.12,2.18,1.3,3.81,2.98,4.76,4.33.96,1.35,1.33,2.32,1.28,2.34-.08.05-.57-.85-1.59-2.1-1.01-1.26-2.62-2.83-4.74-4.1-2.12-1.25-4.27-1.92-5.86-2.21-1.59-.29-2.6-.29-2.6-.39Z"/>
        <path class="cls-5" d="m126.03,310.86s9.58-9.31,11.29-11.21c1.71-1.9,11.96-2.38,13.5-1.69s1.32,2.8.39,3.11c-.93.31-6.49-.06-8.2.61-1.71.66,4.37.46,6.86,2.31,2.48,1.85,1.1,3.06.15,3.13,0,0,1.33,1.18.28,2.31-1.05,1.13-2.24.61-2.24.61,0,0,1.68.72,1.03,2.11s-2.99.81-2.99.81c0,0-3.68-1.37-4.28-1.14-.6.24-2.48,3.25-4.53,4.96-2.6,2.16-5.84,1.6-6.64,1.52l-2.08,1.86c-.68-2.23-2.53-9.31-2.53-9.31Z"/>
        <rect class="cls-1" x="143.08" y="292.18" width="2.25" height="2.46" transform="translate(-162.98 405.32) rotate(-83.84)"/>
      </g>
      <g>
        <path class="cls-8" d="m92.82,391.08H19.17v-55.51h68.58c2.61,0,4.73,1.08,4.73,2.42l.34,53.09Z"/>
        <g class="cls-9">
          <polygon points="61.94 410.43 19.17 410.43 19.17 335.57 61.71 335.68 61.94 410.43"/>
        </g>
        <path class="cls-10" d="m85.01,335.65c0,.15-14.01.26-31.29.26s-31.29-.12-31.29-.26,14.01-.26,31.29-.26,31.29.12,31.29.26Z"/>
        <path class="cls-10" d="m92.44,410.68c-.15,0-.26-13.72-.26-30.64s.12-30.65.26-30.65.26,13.72.26,30.65-.12,30.64-.26,30.64Z"/>
      </g>
      <path class="cls-10" d="m152.89,390.81c0,.15-13.47.26-30.08.26s-30.09-.12-30.09-.26,13.47-.26,30.09-.26,30.08.12,30.08.26Z"/>
    </g>
  </g>
</svg>