<svg width="637" height="658" viewBox="0 0 637 658" fill="none" xmlns="http://www.w3.org/2000/svg">
<path d="M384.871 25.1641H188.38C184.598 25.1641 181.531 28.2308 181.531 32.0139V323.92C181.531 327.703 184.598 330.77 188.38 330.77H384.871C388.654 330.77 391.72 327.703 391.72 323.92V32.0139C391.72 28.2308 388.654 25.1641 384.871 25.1641Z" fill="white"/>
<path d="M384.771 331.486H188.481C184.239 331.486 180.801 328.047 180.801 323.805V32.1141C180.801 27.8724 184.239 24.4331 188.481 24.4331H384.771C389.012 24.4331 392.451 27.8724 392.451 32.1141V323.82C392.451 328.061 389.012 331.501 384.771 331.501V331.486ZM188.481 25.8948C185.042 25.8948 182.262 28.6892 182.262 32.1141V323.82C182.262 327.259 185.056 330.039 188.481 330.039H384.771C388.195 330.039 390.989 327.245 390.989 323.82V32.1141C390.989 28.6748 388.195 25.8948 384.771 25.8948H188.481Z" fill="#E0E0E0"/>
<path d="M376.89 297.438H201.993V304.574H376.89V297.438Z" fill="#E0E0E0"/>
<path d="M376.89 308.1H201.993V315.236H376.89V308.1Z" fill="#E0E0E0"/>
<path d="M376.89 147.186H201.993V273.764H376.89V147.186Z" fill="#F5F5F5"/>
<path d="M375.987 169.125C375.987 169.34 336.913 169.498 288.711 169.498C240.509 169.498 201.42 169.326 201.42 169.125C201.42 168.924 240.494 168.752 288.711 168.752C336.927 168.752 375.987 168.924 375.987 169.125Z" fill="#263238"/>
<path d="M225.005 273.75C224.79 273.75 224.632 245.591 224.632 210.869C224.632 176.147 224.804 147.988 225.005 147.988C225.205 147.988 225.377 176.133 225.377 210.869C225.377 245.605 225.205 273.75 225.005 273.75Z" fill="#263238"/>
<path d="M303.67 275.212C303.455 275.212 303.297 246.723 303.297 211.6C303.297 176.476 303.469 147.988 303.67 147.988C303.871 147.988 304.042 176.462 304.042 211.6C304.042 246.737 303.871 275.212 303.67 275.212Z" fill="#263238"/>
<path d="M343.002 275.212C342.787 275.212 342.63 246.723 342.63 211.6C342.63 176.476 342.802 147.988 343.002 147.988C343.203 147.988 343.375 176.462 343.375 211.6C343.375 246.737 343.203 275.212 343.002 275.212Z" fill="#263238"/>
<path d="M218.285 155.44H208.097V162.92H218.285V155.44Z" fill="#E0E0E0"/>
<path d="M218.285 182.123H208.097V189.603H218.285V182.123Z" fill="#E0E0E0"/>
<path d="M218.285 199.047H208.097V206.527H218.285V199.047Z" fill="#E0E0E0"/>
<path d="M218.285 213.85H208.097V221.33H218.285V213.85Z" fill="#E0E0E0"/>
<path d="M334.033 155.44H312.41V162.92H334.033V155.44Z" fill="#E0E0E0"/>
<path d="M330.722 176.19H315.806V183.67H330.722V176.19Z" fill="#E0E0E0"/>
<path d="M330.722 198.889H315.806V206.369H330.722V198.889Z" fill="#E0E0E0"/>
<path d="M368.465 198.889H353.548V206.369H368.465V198.889Z" fill="#E0E0E0"/>
<path d="M330.722 213.979H315.806V221.459H330.722V213.979Z" fill="#E0E0E0"/>
<path d="M368.35 213.276H353.434V220.757H368.35V213.276Z" fill="#E0E0E0"/>
<path d="M368.35 176.691H353.434V184.172H368.35V176.691Z" fill="#E0E0E0"/>
<path d="M368.35 155.44H351.084V162.92H368.35V155.44Z" fill="#E0E0E0"/>
<path d="M291.404 155.44H234.863V162.92H291.404V155.44Z" fill="#E0E0E0"/>
<path d="M268.478 180.546H234.863V188.027H268.478V180.546Z" fill="#E0E0E0"/>
<path d="M291.404 198.344H234.863V205.825H291.404V198.344Z" fill="#E0E0E0"/>
<path d="M264.882 213.276H234.863V220.757H264.882V213.276Z" fill="#E0E0E0"/>
<path d="M376.875 273.75H343.002V290.975H376.875V273.75Z" fill="#E0E0E0"/>
<path d="M368.45 57.2922H293.253V64.4287H368.45V57.2922Z" fill="#E0E0E0"/>
<path d="M224.761 79.5042H206.377V86.6406H224.761V79.5042Z" fill="#E0E0E0"/>
<path d="M254.923 91.4697H205.847V98.6062H254.923V91.4697Z" fill="#E0E0E0"/>
<path d="M352.201 86.6548H370.585V79.5183H352.201V86.6548Z" fill="#E0E0E0"/>
<path d="M322.025 98.5918H371.101V91.4554H322.025V98.5918Z" fill="#E0E0E0"/>
<path d="M254.923 113.524H205.847V120.66H254.923V113.524Z" fill="#E0E0E0"/>
<path d="M331.124 125.92H205.847V133.056H331.124V125.92Z" fill="#E0E0E0"/>
<path d="M207.552 53.6809H210.891V65.4747H207.552V53.6809Z" fill="#E0E0E0"/>
<path d="M224.489 53.6809V65.4747H221.738L216.537 59.198V65.4747H213.27V53.6809H216.021L221.222 59.9575V53.6809H224.489Z" fill="#E0E0E0"/>
<path d="M238.775 53.6809L233.717 65.4747H230.436L225.406 53.6809H229.017L232.212 61.3619L235.479 53.6809H238.775Z" fill="#E0E0E0"/>
<path d="M238.703 59.585C238.703 56.0454 241.483 53.4517 245.251 53.4517C249.02 53.4517 251.8 56.0454 251.8 59.585C251.8 63.1246 249.02 65.7183 245.251 65.7183C241.483 65.7183 238.703 63.1246 238.703 59.585ZM248.432 59.585C248.432 57.5501 247.028 56.2174 245.251 56.2174C243.475 56.2174 242.07 57.5501 242.07 59.585C242.07 61.6199 243.475 62.9526 245.251 62.9526C247.028 62.9526 248.432 61.6199 248.432 59.585Z" fill="#E0E0E0"/>
<path d="M253.562 53.6809H256.901V65.4747H253.562V53.6809Z" fill="#E0E0E0"/>
<path d="M258.663 59.585C258.663 56.0024 261.414 53.4517 265.14 53.4517C267.318 53.4517 269.066 54.2398 270.212 55.6728L268.092 57.5931C267.347 56.7046 266.444 56.2174 265.312 56.2174C263.377 56.2174 262.031 57.5644 262.031 59.585C262.031 61.6056 263.377 62.9526 265.312 62.9526C266.444 62.9526 267.347 62.4654 268.092 61.5769L270.212 63.4971C269.066 64.9302 267.318 65.7183 265.14 65.7183C261.4 65.7183 258.663 63.1819 258.663 59.585Z" fill="#E0E0E0"/>
<path d="M281.174 62.8952V65.4747H271.717V53.6809H280.959V56.2603H275.012V58.2522H280.242V60.7457H275.012V62.8952H281.174Z" fill="#E0E0E0"/>
<path d="M195.674 36.1123C195.674 37.8749 194.241 39.3223 192.464 39.3223C190.688 39.3223 189.255 37.8893 189.255 36.1123C189.255 34.3354 190.688 32.9023 192.464 32.9023C194.241 32.9023 195.674 34.3354 195.674 36.1123Z" fill="#E0E0E0"/>
<path d="M203.913 36.1123C203.913 37.8749 202.48 39.3223 200.703 39.3223C198.927 39.3223 197.494 37.8893 197.494 36.1123C197.494 34.3354 198.927 32.9023 200.703 32.9023C202.48 32.9023 203.913 34.3354 203.913 36.1123Z" fill="#E0E0E0"/>
<path d="M212.166 36.1123C212.166 37.8749 210.733 39.3223 208.956 39.3223C207.18 39.3223 205.747 37.8893 205.747 36.1123C205.747 34.3354 207.18 32.9023 208.956 32.9023C210.733 32.9023 212.166 34.3354 212.166 36.1123Z" fill="#E0E0E0"/>
<path d="M598.714 239.243H402.223C398.44 239.243 395.374 242.309 395.374 246.093V537.999C395.374 541.782 398.44 544.849 402.223 544.849H598.714C602.496 544.849 605.563 541.782 605.563 537.999V246.093C605.563 242.309 602.496 239.243 598.714 239.243Z" fill="white"/>
<path d="M598.613 545.58H402.324C398.082 545.58 394.643 542.14 394.643 537.899V246.193C394.643 241.951 398.082 238.512 402.324 238.512H598.613C602.84 238.512 606.294 241.951 606.294 246.193V537.899C606.294 542.14 602.855 545.58 598.613 545.58ZM402.324 239.974C398.885 239.974 396.105 242.768 396.105 246.193V537.899C396.105 541.338 398.899 544.118 402.324 544.118H598.613C602.038 544.118 604.832 541.323 604.832 537.899V246.193C604.832 242.754 602.038 239.974 598.613 239.974H402.324Z" fill="#E0E0E0"/>
<path d="M590.718 511.531H415.821V518.667H590.718V511.531Z" fill="#E0E0E0"/>
<path d="M590.718 522.178H415.821V529.315H590.718V522.178Z" fill="#E0E0E0"/>
<path d="M590.718 361.264H415.821V487.843H590.718V361.264Z" fill="#F5F5F5"/>
<path d="M589.83 383.218C589.83 383.433 550.755 383.591 502.553 383.591C454.351 383.591 415.262 383.419 415.262 383.218C415.262 383.018 454.337 382.846 502.553 382.846C550.77 382.846 589.83 383.018 589.83 383.218Z" fill="#E0E0E0"/>
<path d="M438.848 487.843C438.633 487.843 438.475 459.684 438.475 424.962C438.475 390.24 438.647 362.081 438.848 362.081C439.048 362.081 439.22 390.226 439.22 424.962C439.22 459.699 439.048 487.843 438.848 487.843Z" fill="#E0E0E0"/>
<path d="M517.513 489.305C517.298 489.305 517.14 460.816 517.14 425.693C517.14 390.57 517.312 362.081 517.513 362.081C517.713 362.081 517.885 390.555 517.885 425.693C517.885 460.831 517.713 489.305 517.513 489.305Z" fill="#E0E0E0"/>
<path d="M556.845 489.305C556.63 489.305 556.472 460.816 556.472 425.693C556.472 390.57 556.644 362.081 556.845 362.081C557.046 362.081 557.218 390.555 557.218 425.693C557.218 460.831 557.046 489.305 556.845 489.305Z" fill="#E0E0E0"/>
<path d="M432.127 369.519H421.94V376.999H432.127V369.519Z" fill="#E0E0E0"/>
<path d="M432.127 396.216H421.94V403.696H432.127V396.216Z" fill="#E0E0E0"/>
<path d="M432.127 413.14H421.94V420.62H432.127V413.14Z" fill="#E0E0E0"/>
<path d="M432.127 427.943H421.94V435.423H432.127V427.943Z" fill="#E0E0E0"/>
<path d="M547.875 369.519H526.253V376.999H547.875V369.519Z" fill="#E0E0E0"/>
<path d="M544.565 390.283H529.649V397.763H544.565V390.283Z" fill="#E0E0E0"/>
<path d="M544.565 412.982H529.649V420.463H544.565V412.982Z" fill="#E0E0E0"/>
<path d="M582.307 412.982H567.391V420.463H582.307V412.982Z" fill="#E0E0E0"/>
<path d="M544.565 428.072H529.649V435.552H544.565V428.072Z" fill="#E0E0E0"/>
<path d="M582.193 427.355H567.276V434.836H582.193V427.355Z" fill="#E0E0E0"/>
<path d="M582.193 390.77H567.276V398.251H582.193V390.77Z" fill="#E0E0E0"/>
<path d="M582.178 369.519H564.912V376.999H582.178V369.519Z" fill="#E0E0E0"/>
<path d="M505.247 369.519H448.706V376.999H505.247V369.519Z" fill="#E0E0E0"/>
<path d="M482.321 394.639H448.706V402.12H482.321V394.639Z" fill="#E0E0E0"/>
<path d="M505.247 412.438H448.706V419.918H505.247V412.438Z" fill="#E0E0E0"/>
<path d="M478.725 427.355H448.706V434.836H478.725V427.355Z" fill="#E0E0E0"/>
<path d="M590.718 487.843H556.845V505.068H590.718V487.843Z" fill="#E0E0E0"/>
<path d="M582.293 271.385H507.095V278.522H582.293V271.385Z" fill="#E0E0E0"/>
<path d="M438.604 293.597H420.22V300.734H438.604V293.597Z" fill="#E0E0E0"/>
<path d="M468.766 305.549H419.69V312.685H468.766V305.549Z" fill="#E0E0E0"/>
<path d="M566.03 300.748H584.414V293.612H566.03V300.748Z" fill="#E0E0E0"/>
<path d="M535.868 312.699H584.944V305.563H535.868V312.699Z" fill="#E0E0E0"/>
<path d="M468.766 327.617H419.69V334.754H468.766V327.617Z" fill="#E0E0E0"/>
<path d="M544.966 340.013H419.69V347.149H544.966V340.013Z" fill="#E0E0E0"/>
<path d="M421.395 267.774H424.734V279.568H421.395V267.774Z" fill="#E0E0E0"/>
<path d="M438.317 267.774V279.568H435.581L430.379 273.291V279.568H427.112V267.774H429.863L435.065 274.051V267.774H438.332H438.317Z" fill="#E0E0E0"/>
<path d="M452.603 267.774L447.545 279.568H444.264L439.234 267.774H442.845L446.041 275.455L449.308 267.774H452.603Z" fill="#E0E0E0"/>
<path d="M452.546 273.678C452.546 270.139 455.325 267.545 459.094 267.545C462.862 267.545 465.642 270.139 465.642 273.678C465.642 277.218 462.862 279.812 459.094 279.812C455.325 279.812 452.546 277.218 452.546 273.678ZM462.275 273.678C462.275 271.643 460.871 270.311 459.094 270.311C457.317 270.311 455.913 271.643 455.913 273.678C455.913 275.713 457.317 277.046 459.094 277.046C460.871 277.046 462.275 275.713 462.275 273.678Z" fill="#E0E0E0"/>
<path d="M467.405 267.774H470.743V279.568H467.405V267.774Z" fill="#E0E0E0"/>
<path d="M472.506 273.678C472.506 270.096 475.243 267.545 478.982 267.545C481.16 267.545 482.909 268.333 484.055 269.766L481.934 271.686C481.189 270.798 480.286 270.311 479.154 270.311C477.22 270.311 475.873 271.658 475.873 273.678C475.873 275.699 477.22 277.046 479.154 277.046C480.286 277.046 481.189 276.559 481.934 275.67L484.055 277.59C482.909 279.023 481.16 279.812 478.982 279.812C475.243 279.812 472.506 277.275 472.506 273.678Z" fill="#E0E0E0"/>
<path d="M495.016 276.988V279.568H485.559V267.774H494.801V270.354H488.855V272.346H494.085V274.839H488.855V276.988H495.016Z" fill="#E0E0E0"/>
<path d="M409.516 250.205C409.516 251.968 408.084 253.415 406.307 253.415C404.53 253.415 403.097 251.982 403.097 250.205C403.097 248.428 404.53 246.995 406.307 246.995C408.084 246.995 409.516 248.428 409.516 250.205Z" fill="#E0E0E0"/>
<path d="M417.756 250.205C417.756 251.968 416.323 253.415 414.546 253.415C412.769 253.415 411.336 251.982 411.336 250.205C411.336 248.428 412.769 246.995 414.546 246.995C416.323 246.995 417.756 248.428 417.756 250.205Z" fill="#E0E0E0"/>
<path d="M426.009 250.205C426.009 251.968 424.576 253.415 422.799 253.415C421.023 253.415 419.59 251.982 419.59 250.205C419.59 248.428 421.023 246.995 422.799 246.995C424.576 246.995 426.009 248.428 426.009 250.205Z" fill="#E0E0E0"/>
<path d="M620.894 641.291C620.894 641.492 481.891 641.664 310.462 641.664C139.032 641.664 0 641.492 0 641.291C0 641.09 138.975 640.918 310.462 640.918C481.948 640.918 620.894 641.09 620.894 641.291Z" fill="#263238"/>
<path d="M265.899 75.8928H69.4085C65.6258 75.8928 62.5593 78.9596 62.5593 82.7427V374.649C62.5593 378.432 65.6258 381.499 69.4085 381.499H265.899C269.682 381.499 272.748 378.432 272.748 374.649V82.7427C272.748 78.9596 269.682 75.8928 265.899 75.8928Z" fill="white"/>
<path d="M265.799 382.215H69.5088C65.2675 382.215 61.8286 378.776 61.8286 374.534V82.8429C61.8286 78.6011 65.2675 75.1619 69.5088 75.1619H265.799C270.04 75.1619 273.479 78.6011 273.479 82.8429V374.548C273.479 378.79 270.04 382.229 265.799 382.229V382.215ZM69.5088 76.6235C66.0699 76.6235 63.2901 79.4179 63.2901 82.8429V374.548C63.2901 377.988 66.0843 380.768 69.5088 380.768H265.799C269.238 380.768 272.017 377.973 272.017 374.548V82.8429C272.017 79.4036 269.223 76.6235 265.799 76.6235H69.5088Z" fill="#146EB4"/>
<path d="M257.904 348.167H83.0066V355.303H257.904V348.167Z" fill="#E0E0E0"/>
<path d="M257.904 358.828H83.0066V365.965H257.904V358.828Z" fill="#E0E0E0"/>
<path d="M257.904 197.914H83.0066V324.493H257.904V197.914Z" fill="#F5F5F5"/>
<path d="M257.015 219.854C257.015 220.069 217.941 220.226 169.739 220.226C121.537 220.226 82.4478 220.054 82.4478 219.854C82.4478 219.653 121.522 219.481 169.739 219.481C217.955 219.481 257.015 219.653 257.015 219.854Z" fill="#146EB4"/>
<path d="M106.033 324.479C105.818 324.479 105.66 296.32 105.66 261.598C105.66 226.876 105.832 198.717 106.033 198.717C106.234 198.717 106.406 226.861 106.406 261.598C106.406 296.334 106.234 324.479 106.033 324.479Z" fill="#146EB4"/>
<path d="M184.698 325.94C184.483 325.94 184.325 297.452 184.325 262.329C184.325 227.205 184.497 198.717 184.698 198.717C184.899 198.717 185.071 227.191 185.071 262.329C185.071 297.466 184.899 325.94 184.698 325.94Z" fill="#146EB4"/>
<path d="M224.03 325.94C223.815 325.94 223.658 297.452 223.658 262.329C223.658 227.205 223.83 198.717 224.03 198.717C224.231 198.717 224.403 227.191 224.403 262.329C224.403 297.466 224.231 325.94 224.03 325.94Z" fill="#146EB4"/>
<path d="M99.3128 206.168H89.125V213.649H99.3128V206.168Z" fill="#E0E0E0"/>
<path d="M99.3128 232.851H89.125V240.332H99.3128V232.851Z" fill="#E0E0E0"/>
<path d="M99.3128 249.775H89.125V257.256H99.3128V249.775Z" fill="#E0E0E0"/>
<path d="M99.3128 264.578H89.125V272.059H99.3128V264.578Z" fill="#E0E0E0"/>
<path d="M215.061 206.168H193.438V213.649H215.061V206.168Z" fill="#E0E0E0"/>
<path d="M211.751 226.919H196.834V234.399H211.751V226.919Z" fill="#E0E0E0"/>
<path d="M211.751 249.618H196.834V257.098H211.751V249.618Z" fill="#E0E0E0"/>
<path d="M249.478 249.618H234.562V257.098H249.478V249.618Z" fill="#E0E0E0"/>
<path d="M211.751 264.707H196.834V272.188H211.751V264.707Z" fill="#E0E0E0"/>
<path d="M249.378 264.005H234.462V271.485H249.378V264.005Z" fill="#E0E0E0"/>
<path d="M249.378 227.42H234.462V234.901H249.378V227.42Z" fill="#E0E0E0"/>
<path d="M249.364 206.168H232.097V213.649H249.364V206.168Z" fill="#E0E0E0"/>
<path d="M172.432 206.168H115.891V213.649H172.432V206.168Z" fill="#E0E0E0"/>
<path d="M149.506 231.275H115.891V238.755H149.506V231.275Z" fill="#E0E0E0"/>
<path d="M172.432 249.073H115.891V256.554H172.432V249.073Z" fill="#E0E0E0"/>
<path d="M145.91 264.005H115.891V271.485H145.91V264.005Z" fill="#E0E0E0"/>
<path d="M257.903 324.479H224.03V341.718H257.903V324.479Z" fill="#146EB4"/>
<path d="M249.478 108.021H174.281V115.157H249.478V108.021Z" fill="#E0E0E0"/>
<path d="M105.789 130.233H87.4055V137.369H105.789V130.233Z" fill="#E0E0E0"/>
<path d="M135.951 142.198H86.8752V149.335H135.951V142.198Z" fill="#E0E0E0"/>
<path d="M233.215 137.384H251.599V130.247H233.215V137.384Z" fill="#E0E0E0"/>
<path d="M203.053 149.321H252.129V142.184H203.053V149.321Z" fill="#E0E0E0"/>
<path d="M135.951 164.253H86.8752V171.389H135.951V164.253Z" fill="#146EB4"/>
<path d="M212.152 176.648H86.8752V183.785H212.152V176.648Z" fill="#E0E0E0"/>
<path d="M88.5803 104.424H91.9189V116.218H88.5803V104.424Z" fill="#146EB4"/>
<path d="M105.503 104.424V116.218H102.752L97.5502 109.941V116.218H94.2832V104.424H97.0343L102.236 110.701V104.424H105.503Z" fill="#146EB4"/>
<path d="M119.788 104.424L114.73 116.218H111.449L106.42 104.424H110.031L113.226 112.105L116.493 104.424H119.788Z" fill="#146EB4"/>
<path d="M119.731 110.314C119.731 106.774 122.511 104.18 126.279 104.18C130.048 104.18 132.827 106.774 132.827 110.314C132.827 113.853 130.048 116.447 126.279 116.447C122.511 116.447 119.731 113.853 119.731 110.314ZM129.46 110.314C129.46 108.279 128.056 106.946 126.279 106.946C124.502 106.946 123.098 108.279 123.098 110.314C123.098 112.349 124.502 113.681 126.279 113.681C128.056 113.681 129.46 112.349 129.46 110.314Z" fill="#146EB4"/>
<path d="M134.59 104.424H137.929V116.218H134.59V104.424Z" fill="#146EB4"/>
<path d="M139.691 110.314C139.691 106.731 142.442 104.18 146.168 104.18C148.346 104.18 150.094 104.969 151.24 106.402L149.119 108.322C148.374 107.433 147.472 106.946 146.34 106.946C144.405 106.946 143.058 108.293 143.058 110.314C143.058 112.334 144.405 113.681 146.34 113.681C147.472 113.681 148.374 113.194 149.119 112.306L151.24 114.226C150.094 115.659 148.346 116.447 146.168 116.447C142.428 116.447 139.691 113.896 139.691 110.314Z" fill="#146EB4"/>
<path d="M162.187 113.624V116.203H152.73V104.41H161.972V106.989H156.026V108.981H161.256V111.474H156.026V113.624H162.187Z" fill="#146EB4"/>
<path d="M76.6876 86.8411C76.6876 88.6037 75.2547 90.051 73.478 90.051C71.7012 90.051 70.2683 88.618 70.2683 86.8411C70.2683 85.0641 71.7012 83.6311 73.478 83.6311C75.2547 83.6311 76.6876 85.0641 76.6876 86.8411Z" fill="#E0E0E0"/>
<path d="M84.941 86.8411C84.941 88.6037 83.5081 90.051 81.7314 90.051C79.9546 90.051 78.5217 88.618 78.5217 86.8411C78.5217 85.0641 79.9546 83.6311 81.7314 83.6311C83.5081 83.6311 84.941 85.0641 84.941 86.8411Z" fill="#E0E0E0"/>
<path d="M93.1942 86.8411C93.1942 88.6037 91.7613 90.051 89.9845 90.051C88.2078 90.051 86.7749 88.618 86.7749 86.8411C86.7749 85.0641 88.2078 83.6311 89.9845 83.6311C91.7613 83.6311 93.1942 85.0641 93.1942 86.8411Z" fill="#E0E0E0"/>
<path d="M471.23 611.269L283.867 610.438C261.328 610.338 243.145 593.457 243.245 572.707L245.223 140.508C245.323 119.758 263.678 103.006 286.232 103.106C286.246 103.106 286.275 103.106 286.289 103.106L473.595 103.851C496.134 103.951 514.317 120.832 514.217 141.568L512.239 573.81C512.182 594.546 493.856 611.312 471.316 611.255C471.288 611.255 471.245 611.255 471.216 611.255L471.23 611.269Z" fill="#146EB4"/>
<path d="M472.019 115.932L435.752 115.774L329.634 115.315H316.867L285.057 115.186C269.266 115.115 256.414 127.009 256.342 141.755L254.408 570.156C254.336 584.902 267.074 596.911 282.864 596.968L469.869 597.77C485.66 597.813 498.498 585.905 498.541 571.159L500.476 142.743C500.547 127.998 487.823 115.989 472.033 115.917H472.019V115.932Z" fill="white"/>
<path d="M473.695 154.021C473.695 155.311 472.649 156.357 471.359 156.357C470.07 156.357 469.024 155.311 469.024 154.021C469.024 152.731 470.07 151.685 471.359 151.685C472.649 151.685 473.681 152.731 473.681 154.021H473.695Z" fill="#146EB4"/>
<path d="M473.681 162.49C473.681 163.78 472.62 164.826 471.331 164.812C470.041 164.812 468.995 163.751 469.009 162.462C469.009 161.172 470.055 160.14 471.345 160.14C472.635 160.14 473.681 161.201 473.681 162.49Z" fill="#146EB4"/>
<path d="M473.652 170.859C473.652 172.163 472.606 173.223 471.316 173.223C470.012 173.223 468.952 172.177 468.952 170.888C468.952 169.584 469.998 168.523 471.288 168.523H471.316C472.606 168.523 473.652 169.569 473.652 170.859Z" fill="#146EB4"/>
<path d="M426.496 163.909H321.523C319.446 163.909 317.755 162.218 317.755 160.14C317.755 158.062 319.446 156.371 321.523 156.371H426.496C428.574 156.371 430.264 158.062 430.264 160.14C430.264 162.218 428.574 163.909 426.496 163.909Z" fill="#E0E0E0"/>
<path d="M429.39 495.969H331.711C320.039 495.969 310.576 505.432 310.576 517.106V517.765C310.576 529.438 320.039 538.902 331.711 538.902H429.39C441.063 538.902 450.525 529.438 450.525 517.765V517.106C450.525 505.432 441.063 495.969 429.39 495.969Z" fill="#146EB4"/>
<path d="M375.07 515.501C375.07 518.281 372.978 520 369.639 520H367.505V523.196H364.051V510.972H369.639C372.978 510.972 375.07 512.706 375.07 515.501ZM371.574 515.501C371.574 514.368 370.857 513.695 369.425 513.695H367.505V517.277H369.425C370.857 517.277 371.574 516.618 371.574 515.501Z" fill="white"/>
<path d="M384.327 520.817H379.154L378.194 523.196H374.669L380.071 510.972H383.481L388.897 523.196H385.301L384.341 520.817H384.327ZM383.309 518.266L381.733 514.354L380.157 518.266H383.295H383.309Z" fill="white"/>
<path d="M395.646 518.811V523.196H392.193V518.768L387.536 510.972H391.19L394.084 515.83L396.979 510.972H400.332L395.646 518.811Z" fill="white"/>
<path d="M281.876 236.19H462.748C463.966 236.19 464.954 237.179 464.954 238.397V238.469C464.954 239.687 463.966 240.676 462.748 240.676H281.876C280.658 240.676 279.669 239.687 279.669 238.469V238.397C279.669 237.179 280.658 236.19 281.876 236.19Z" fill="#146EB4"/>
<path d="M484.169 412.581C478.423 396.775 475.715 380.023 475.715 363.213V273.606C475.715 243.785 447.516 238.44 447.516 238.44H284.139C284.139 238.44 312.338 243.785 312.338 273.606V378.848C312.338 378.848 313.384 445.354 346.369 452.161L517.369 451.444C500.876 448.034 490.459 429.892 484.169 412.595V412.581Z" fill="white"/>
<path d="M484.169 412.581C484.169 412.581 484.628 413.684 485.459 415.848C486.361 417.983 487.637 421.193 489.686 425.22C491.735 429.232 494.515 434.133 498.741 439.192C500.891 441.685 503.398 444.208 506.479 446.4C509.545 448.593 513.242 450.398 517.412 451.244L519.174 451.602H517.383C478.481 451.817 418.701 452.118 346.384 452.49H346.355H346.326C339.52 451.057 333.416 446.758 329.103 441.098C324.719 435.452 321.624 428.803 319.274 421.867C316.895 414.917 315.276 407.637 314.072 400.199C312.926 392.748 312.095 385.138 312.009 377.4C312.009 346.533 312.009 314.161 312.009 280.858C312.009 278.479 312.009 276.1 312.009 273.721L311.808 270.196L311.708 268.433C311.622 267.86 311.493 267.287 311.393 266.699C310.748 262.056 308.957 257.643 306.421 253.788C303.87 249.933 300.474 246.68 296.634 244.187C292.808 241.679 288.524 239.816 284.139 238.798L280.901 238.053H284.211C343.905 238.082 399.386 238.096 447.588 238.111H447.645C451.17 238.899 454.466 240.274 457.561 241.908C460.641 243.57 463.507 245.591 465.929 248.027C470.958 252.742 473.996 259.076 475.242 265.453C476.475 271.887 475.959 278.249 476.073 284.354C476.073 290.473 476.073 296.42 476.059 302.181C476.03 325.224 476.002 345.272 475.987 361.766C475.844 378.274 478.251 391.1 480.386 399.626C481.461 403.897 482.478 407.121 483.18 409.285C483.539 410.36 483.811 411.162 483.997 411.721C484.183 412.266 484.255 412.552 484.255 412.552C484.255 412.552 483.825 411.463 483.08 409.313C482.349 407.164 481.303 403.94 480.2 399.669C478.008 391.143 475.529 378.303 475.615 361.766C475.601 345.257 475.572 325.21 475.543 302.181C475.543 296.42 475.543 290.473 475.529 284.354C475.414 278.249 475.916 271.873 474.683 265.567C473.451 259.305 470.471 253.086 465.527 248.471C463.149 246.078 460.326 244.101 457.288 242.467C454.251 240.848 450.969 239.501 447.559 238.741H447.616C399.414 238.77 343.933 238.784 284.24 238.798L284.311 238.053C288.854 239.099 293.152 240.977 297.078 243.542C300.99 246.092 304.472 249.403 307.08 253.358C309.673 257.299 311.507 261.827 312.167 266.556C312.267 267.144 312.396 267.731 312.482 268.319L312.582 270.11L312.783 273.692V280.829C312.783 314.132 312.783 346.49 312.783 377.371C312.869 385.052 313.685 392.662 314.832 400.071C316.035 407.479 317.64 414.73 319.99 421.623C322.326 428.502 325.392 435.094 329.705 440.654C333.961 446.228 339.893 450.413 346.527 451.817H346.455C418.773 451.573 478.552 451.373 517.455 451.244L517.412 451.616C513.185 450.742 509.459 448.894 506.364 446.672C503.255 444.451 500.748 441.886 498.598 439.378C494.371 434.277 491.606 429.361 489.585 425.32C487.565 421.265 486.318 418.041 485.444 415.891C484.642 413.713 484.241 412.581 484.241 412.581H484.169Z" fill="#146EB4"/>
<path d="M523.014 451.416C534.477 443.047 541.928 429.405 542.788 415.232L358.047 414.487C358.979 423.056 358.004 431.826 355.21 439.995C353.605 444.666 351.255 449.338 347.186 452.147L523.014 451.401V451.416Z" fill="#E0E0E0"/>
<path d="M523.015 451.416C523.015 451.416 522.728 451.444 522.155 451.444C521.553 451.444 520.708 451.473 519.604 451.487C517.326 451.516 514.002 451.545 509.717 451.588C501.063 451.645 488.525 451.745 472.849 451.846C441.426 452.018 397.451 452.247 347.186 452.505H345.997L346.971 451.831C349.593 449.997 351.571 447.289 353.018 444.337C354.465 441.37 355.482 438.16 356.299 434.893C357.904 428.344 358.406 421.408 357.66 414.515L357.617 414.1H358.047C359.752 414.1 361.587 414.114 363.435 414.128C437.4 414.487 502.883 414.802 542.788 415.003H543.032L543.017 415.232C542.573 421.996 540.739 427.871 538.504 432.643C536.269 437.415 533.618 441.098 531.268 443.878C528.889 446.644 526.769 448.478 525.321 449.696C523.817 450.857 523.029 451.416 523.029 451.416C523.029 451.416 523.215 451.244 523.588 450.943C523.975 450.628 524.519 450.183 525.25 449.61C526.668 448.378 528.76 446.515 531.096 443.735C533.417 440.955 536.011 437.272 538.203 432.514C540.381 427.771 542.172 421.924 542.573 415.232L542.788 415.461C502.883 415.332 437.386 415.132 363.435 414.902C361.587 414.902 359.752 414.888 358.047 414.874L358.42 414.458C359.179 421.437 358.663 428.459 357.03 435.094C356.199 438.404 355.167 441.643 353.677 444.695C352.201 447.719 350.152 450.542 347.387 452.476L347.172 451.803C397.408 451.645 441.341 451.516 472.735 451.416C488.425 451.401 500.977 451.387 509.631 451.373C513.944 451.373 517.269 451.387 519.547 451.387C520.665 451.387 521.524 451.401 522.112 451.401C522.685 451.401 522.986 451.43 522.986 451.43L523.015 451.416Z" fill="#146EB4"/>
<path d="M454.423 273.005C454.423 273.22 427.112 273.377 393.425 273.377C359.738 273.377 332.413 273.205 332.413 273.005C332.413 272.804 359.724 272.632 393.425 272.632C427.126 272.632 454.423 272.804 454.423 273.005Z" fill="#146EB4"/>
<path d="M454.423 299.014C454.423 299.229 427.112 299.387 393.425 299.387C359.738 299.387 332.413 299.215 332.413 299.014C332.413 298.813 359.724 298.641 393.425 298.641C427.126 298.641 454.423 298.813 454.423 299.014Z" fill="#146EB4"/>
<path d="M461.687 370.593C461.687 370.808 432.743 370.966 397.065 370.966C361.386 370.966 332.427 370.794 332.427 370.593C332.427 370.393 361.357 370.221 397.065 370.221C432.772 370.221 461.687 370.393 461.687 370.593Z" fill="#146EB4"/>
<path d="M379.01 262.171C379.01 264.278 377.262 265.524 373.981 265.524H367.375V253.301H373.623C376.832 253.301 378.409 254.605 378.409 256.496C378.409 257.672 377.821 258.603 376.775 259.148C378.151 259.635 379.01 260.681 379.01 262.171ZM370.8 255.794V258.159H373.179C374.325 258.159 374.927 257.757 374.927 256.969C374.927 256.181 374.339 255.794 373.179 255.794H370.8ZM375.514 261.784C375.514 260.939 374.884 260.538 373.694 260.538H370.8V263.017H373.694C374.884 263.017 375.514 262.615 375.514 261.77V261.784Z" fill="#146EB4"/>
<path d="M380.816 253.301H384.269V265.524H380.816V253.301Z" fill="#146EB4"/>
<path d="M386.734 253.301H390.187V262.787H396.019V265.524H386.734V253.301Z" fill="#146EB4"/>
<path d="M397.394 253.301H400.848V262.787H406.679V265.524H397.394V253.301Z" fill="#146EB4"/>
<path d="M396.004 282.377H334.032V291.634H396.004V282.377Z" fill="#E0E0E0"/>
<path d="M457.532 282.377H420.764V291.634H457.532V282.377Z" fill="#E0E0E0"/>
<path d="M393.411 310.421H334.032V319.678H393.411V310.421Z" fill="#E0E0E0"/>
<path d="M358.85 330.24H334.032V339.497H358.85V330.24Z" fill="#E0E0E0"/>
<path d="M374.267 348.553H334.032V357.811H374.267V348.553Z" fill="#E0E0E0"/>
<path d="M464.281 399.254H338.732V408.511H464.281V399.254Z" fill="#E0E0E0"/>
<path d="M458.521 310.421H440.495V319.678H458.521V310.421Z" fill="#146EB4"/>
<path d="M458.521 328.133H440.495V337.39H458.521V328.133Z" fill="#146EB4"/>
<path d="M458.521 347.837H440.495V357.094H458.521V347.837Z" fill="#146EB4"/>
<path d="M458.206 378.876H433.23V388.134H458.206V378.876Z" fill="#146EB4"/>
<path d="M127.77 655.636H118.012L106.233 586.664H120.562L127.77 655.636Z" fill="#146EB4"/>
<path d="M36.5669 655.636H46.3248L58.1174 586.664H43.7886L36.5669 655.636Z" fill="#146EB4"/>
<path d="M291.705 655.636H281.962L270.169 586.664H284.498L291.705 655.636Z" fill="#146EB4"/>
<path d="M200.517 655.636H210.26L222.053 586.664H207.724L200.517 655.636Z" fill="#146EB4"/>
<path d="M292.063 559.064H27.4683V588.155H292.063V559.064Z" fill="#146EB4"/>
<path d="M262.747 503.95H98.8256C91.7508 503.95 86.0156 509.686 86.0156 516.761V531.593C86.0156 538.669 91.7508 544.404 98.8256 544.404H262.747C269.821 544.404 275.557 538.669 275.557 531.593V516.761C275.557 509.686 269.821 503.95 262.747 503.95Z" fill="#146EB4"/>
<path d="M218.227 480.879H284.283C292.035 480.879 298.311 487.17 298.311 494.908V559.824H218.227V480.879Z" fill="#146EB4"/>
<path d="M93.9106 396.603H221.336C231.71 396.603 240.121 405.029 240.121 415.39V503.95H93.9106V396.588V396.603Z" fill="#146EB4"/>
<path d="M269.825 560.282L106.233 560.425V542.24H269.825V560.282Z" fill="#146EB4"/>
<path d="M34.833 396.603H196.103V503.965H27.468V403.968C27.468 399.913 30.7636 396.603 34.833 396.603Z" fill="#146EB4"/>
<path d="M142.829 359.717L134.69 314.218C132.555 300.433 138.788 287.693 152.63 285.931L153.919 285.845C166.887 284.956 178.364 294.17 180.284 307.025C182.075 318.99 183.895 332.217 184.253 338.68C184.998 352.05 171.787 355.031 171.787 355.031C171.759 355.031 172.59 363.127 173.034 367.04L170.799 377.386L142.843 359.702L142.829 359.717Z" fill="#FFBF9D"/>
<path d="M171.759 355.088C171.759 355.088 163.376 356.163 154.02 351.133C154.02 351.133 158.892 360.892 172.131 358.771L171.759 355.088Z" fill="#FF9A6C"/>
<path d="M176.974 319.477C177.075 320.481 176.315 321.398 175.269 321.527C174.223 321.656 173.292 320.939 173.192 319.936C173.091 318.933 173.851 318.016 174.897 317.887C175.943 317.758 176.874 318.474 176.989 319.477H176.974Z" fill="#263238"/>
<path d="M177.791 312.671C177.576 312.929 176.057 311.968 174.008 312.112C171.959 312.226 170.526 313.387 170.283 313.144C170.168 313.043 170.369 312.57 170.999 312.054C171.615 311.539 172.676 310.994 173.965 310.922C175.241 310.836 176.358 311.238 177.003 311.682C177.662 312.126 177.906 312.556 177.805 312.685L177.791 312.671Z" fill="#263238"/>
<path d="M159.078 320.853C159.178 321.856 158.419 322.773 157.373 322.902C156.327 323.031 155.395 322.315 155.295 321.312C155.195 320.309 155.954 319.392 157 319.263C158.046 319.134 158.978 319.85 159.078 320.853Z" fill="#263238"/>
<path d="M157.702 314.519C157.487 314.777 155.968 313.817 153.919 313.96C151.87 314.075 150.438 315.236 150.194 314.992C150.079 314.892 150.28 314.419 150.91 313.903C151.527 313.387 152.587 312.843 153.876 312.757C155.152 312.671 156.269 313.072 156.914 313.516C157.573 313.96 157.817 314.39 157.717 314.505L157.702 314.519Z" fill="#263238"/>
<path d="M166.142 329.795C166.128 329.681 167.388 329.366 169.438 328.964C169.953 328.878 170.441 328.735 170.512 328.377C170.612 327.99 170.355 327.445 170.054 326.843C169.48 325.611 168.864 324.321 168.234 322.96C165.698 317.428 163.821 312.857 164.036 312.757C164.265 312.656 166.5 317.056 169.036 322.602C169.652 323.963 170.24 325.267 170.799 326.514C171.042 327.101 171.429 327.746 171.214 328.549C171.1 328.95 170.741 329.265 170.412 329.38C170.082 329.509 169.781 329.537 169.523 329.566C167.446 329.824 166.156 329.924 166.142 329.795Z" fill="#263238"/>
<path d="M157.931 308.056C157.688 308.601 155.653 308.185 153.232 308.3C150.796 308.357 148.804 308.93 148.532 308.4C148.403 308.157 148.79 307.655 149.606 307.168C150.423 306.681 151.698 306.265 153.16 306.208C154.621 306.15 155.925 306.48 156.771 306.91C157.63 307.325 158.046 307.798 157.931 308.056Z" fill="#263238"/>
<path d="M177.476 306.638C177.089 307.139 175.384 306.795 173.364 306.939C171.358 307.025 169.681 307.555 169.251 307.111C169.065 306.896 169.294 306.394 169.996 305.892C170.698 305.391 171.888 304.932 173.263 304.846C174.639 304.775 175.871 305.09 176.616 305.506C177.361 305.921 177.634 306.38 177.476 306.623V306.638Z" fill="#263238"/>
<path d="M136.41 323.59C136.18 323.504 127.053 321.498 127.97 330.612C128.887 339.726 139.462 337.161 139.462 337.161C139.462 336.903 136.424 323.59 136.424 323.59H136.41Z" fill="#FFBF9D"/>
<path d="M134.69 333.493C134.69 333.493 134.547 333.622 134.289 333.765C134.045 333.908 133.601 334.037 133.1 333.908C132.097 333.65 131.137 332.203 130.936 330.569C130.836 329.738 130.936 328.936 131.151 328.248C131.366 327.56 131.753 327.044 132.226 326.915C132.698 326.757 133.071 327.015 133.2 327.259C133.343 327.503 133.315 327.689 133.358 327.703C133.386 327.717 133.544 327.531 133.429 327.159C133.372 326.987 133.243 326.772 133.014 326.628C132.784 326.471 132.44 326.413 132.111 326.485C131.409 326.6 130.85 327.316 130.592 328.061C130.305 328.821 130.177 329.724 130.291 330.655C130.535 332.489 131.652 334.109 132.999 334.352C133.658 334.453 134.174 334.209 134.432 333.965C134.69 333.708 134.719 333.507 134.69 333.493Z" fill="#FF9A6C"/>
<path d="M197.278 292.594C197.078 292.078 196.648 291.663 196.146 291.433C195.043 290.917 193.854 291.118 192.679 291.218C189.784 291.462 186.847 291.003 184.139 289.943C184.999 289.398 185.772 288.768 186.417 287.98C187.75 286.36 188.366 284.039 187.506 282.133C187.348 281.775 187.091 281.417 186.704 281.331C186.088 281.202 185.629 281.846 185.271 282.348C184.067 283.996 182.878 284.77 180.829 284.77C179.554 284.77 178.307 284.598 177.261 284.082C177.218 284.039 177.175 283.996 177.132 283.967C176.616 283.523 176.1 283.108 175.599 282.692C171.83 279.625 168.664 277.562 165.497 276.645C160.869 275.298 153.361 275.298 148.847 276.974C144.333 278.651 140.536 282.821 140.35 287.636C137.527 285.687 133.63 286.088 130.592 287.679L130.506 287.65C127.096 289.255 125.462 293.182 124.775 296.879C124.732 297.079 124.703 297.28 124.674 297.495C123.671 299.501 122.21 301.278 120.376 302.597C120.061 302.826 119.688 303.112 119.688 303.514C119.688 303.901 120.046 304.202 120.39 304.388C121.293 304.904 122.324 305.205 123.356 305.291C123.113 306.179 122.826 307.039 122.425 307.884C122.095 308.601 121.694 309.446 122.11 310.12C122.439 310.636 123.141 310.793 123.729 310.65C124.316 310.507 124.818 310.12 125.305 309.747C125.004 310.722 124.703 311.711 124.402 312.685C125.706 312.785 127.01 312.556 128.214 312.055C129.288 315.35 130.478 321.527 131.567 323.719C133.988 323.519 134.547 323.203 135.808 323.49C137.441 323.863 137.112 326.714 139.089 325.711C140.092 325.21 141.31 321.083 141.554 319.979C143.173 312.685 143.202 305.033 141.64 297.739C142.944 296.033 144.591 294.586 146.44 293.497L146.297 293.655C149.893 291.992 153.977 290.301 157.688 291.706C160.568 292.795 162.459 295.474 164.723 297.552C169.036 301.479 173.65 303.342 179.468 303.012C180.385 306.982 181.187 313.545 181.76 317.285L184.225 309.461V309.489C184.44 309.031 184.612 308.558 184.784 308.099L184.841 307.956C185.099 307.197 185.342 306.451 185.686 305.706C185.686 305.706 185.715 305.721 185.729 305.735C187.936 307.326 190.673 304.288 188.853 302.267C188.495 301.866 188.079 301.522 187.606 301.235C188.624 302.023 190.042 302.296 191.232 301.808C192.407 301.307 193.238 299.988 193.008 298.727C192.851 297.868 192.149 297.151 191.332 296.893C192.994 296.864 194.627 296.334 195.989 295.374C196.877 294.744 197.708 293.769 197.278 292.623V292.594Z" fill="#263238"/>
<path d="M144.706 288.739C144.706 288.739 144.176 289.14 143.488 290.101C142.8 291.046 142.084 292.637 141.883 294.729C141.769 295.775 141.754 296.922 141.883 298.154C141.998 299.387 142.227 300.691 142.456 302.066C142.686 303.442 142.929 304.904 142.987 306.437C143.015 307.197 143.001 307.985 142.915 308.773C142.829 309.547 142.7 310.392 142.198 311.109C141.797 311.682 141.052 311.997 140.379 311.926C139.705 311.868 139.075 311.582 138.588 311.137C137.628 310.22 137.298 308.973 136.968 307.87H137.255C136.897 308.931 136.524 309.962 135.908 310.836C135.306 311.696 134.404 312.327 133.458 312.499C132.985 312.585 132.498 312.556 132.054 312.398C131.61 312.241 131.28 311.911 131.022 311.567C130.793 311.209 130.635 310.808 130.621 310.407C130.607 310.005 130.721 309.618 130.95 309.332L131.108 309.446C130.191 310.722 129.174 311.453 128.457 311.883C128.099 312.097 127.798 312.226 127.597 312.312C127.397 312.398 127.297 312.427 127.282 312.427C127.282 312.427 127.383 312.37 127.569 312.269C127.755 312.169 128.042 312.026 128.386 311.797C129.073 311.352 130.062 310.607 130.936 309.346L131.094 309.461C130.692 309.977 130.75 310.822 131.194 311.453C131.423 311.768 131.738 312.04 132.125 312.183C132.512 312.327 132.956 312.355 133.386 312.269C134.26 312.097 135.091 311.51 135.665 310.693C136.252 309.876 136.61 308.859 136.954 307.798L137.097 307.354L137.226 307.813C137.556 308.916 137.9 310.106 138.774 310.937C139.204 311.338 139.777 311.596 140.379 311.639C140.981 311.696 141.568 311.438 141.926 310.951C142.37 310.335 142.499 309.532 142.585 308.773C142.671 307.999 142.686 307.24 142.657 306.48C142.6 304.975 142.37 303.528 142.155 302.152C141.941 300.777 141.711 299.458 141.611 298.212C141.496 296.965 141.525 295.79 141.654 294.744C141.898 292.623 142.657 291.003 143.388 290.072C144.119 289.126 144.706 288.782 144.706 288.782V288.739Z" fill="#455A64"/>
<path d="M187.234 297.653C187.234 297.653 187.205 297.696 187.134 297.753C187.048 297.825 186.947 297.925 186.818 298.025C186.689 298.154 186.517 298.297 186.288 298.441C186.073 298.598 185.83 298.785 185.514 298.942C184.339 299.659 182.405 300.433 179.912 300.533C177.433 300.633 174.395 300.06 171.572 298.355C168.721 296.707 166.099 294.113 163.878 291.061C162.746 289.542 161.8 287.965 160.769 286.518C159.751 285.071 158.662 283.752 157.387 282.749C156.126 281.746 154.722 281.044 153.318 280.8C152.615 280.671 151.928 280.686 151.269 280.772C150.609 280.872 150.008 281.072 149.449 281.316C148.331 281.818 147.471 282.549 146.827 283.265C146.182 283.996 145.781 284.741 145.508 285.372C145.021 286.661 145.064 287.449 145.021 287.435C145.021 287.435 145.021 287.392 145.021 287.292C145.021 287.177 145.021 287.048 145.05 286.876C145.079 286.518 145.179 285.973 145.408 285.314C145.666 284.669 146.053 283.896 146.698 283.15C147.342 282.405 148.217 281.646 149.349 281.115C149.922 280.858 150.552 280.643 151.226 280.542C151.899 280.456 152.63 280.428 153.361 280.557C154.822 280.8 156.284 281.517 157.573 282.534C158.877 283.552 159.995 284.899 161.026 286.346C162.058 287.793 163.018 289.37 164.136 290.874C166.342 293.898 168.922 296.463 171.73 298.097C174.51 299.788 177.476 300.375 179.912 300.304C182.376 300.232 184.282 299.501 185.471 298.828C186.661 298.154 187.205 297.595 187.234 297.638V297.653Z" fill="#455A64"/>
<path d="M187.879 291.677C187.879 291.677 187.735 291.835 187.434 292.064C187.134 292.293 186.675 292.594 186.088 292.924C185.5 293.253 184.755 293.583 183.924 293.884C183.079 294.17 182.118 294.4 181.101 294.543C180.069 294.672 179.095 294.686 178.192 294.629C177.304 294.557 176.502 294.428 175.842 294.256C175.183 294.099 174.668 293.927 174.324 293.769C173.98 293.626 173.793 293.54 173.793 293.511C173.808 293.454 174.582 293.769 175.885 294.027C176.53 294.17 177.318 294.271 178.192 294.328C179.066 294.371 180.041 294.342 181.044 294.213C182.047 294.07 182.993 293.855 183.824 293.583C184.655 293.311 185.385 293.01 185.987 292.709C187.177 292.107 187.85 291.62 187.879 291.663V291.677Z" fill="#455A64"/>
<path d="M166.643 336.029C166.5 335.714 164.451 336.774 162.073 335.771C159.694 334.782 158.791 332.461 158.49 332.604C158.347 332.647 158.347 333.306 158.806 334.238C159.25 335.155 160.224 336.33 161.686 336.946C163.133 337.548 164.566 337.39 165.454 337.032C166.357 336.659 166.744 336.172 166.658 336.029H166.643Z" fill="#263238"/>
<path d="M293.854 531.937L311.479 555.467C311.479 555.467 341.311 545.451 344.994 549.492L300.589 585.303L271.63 549.764L293.854 531.937Z" fill="#263238"/>
<path d="M296.204 564.624C295.531 565.556 295.717 567.003 296.62 567.705C297.523 568.408 298.984 568.236 299.672 567.318C300.36 566.401 300.188 564.667 299.213 564.065C298.239 563.464 296.52 563.765 296.075 564.825" fill="#E0E0E0"/>
<path d="M300.603 585.303L297.823 581.606L341.426 548.646C341.426 548.646 344.091 547.916 344.994 549.478L300.589 585.289L300.603 585.303Z" fill="#455A64"/>
<path d="M312.023 554.665C312.195 554.894 311.192 555.854 310.676 557.416C310.132 558.964 310.332 560.34 310.074 560.426C309.845 560.54 309.114 558.993 309.759 557.115C310.39 555.238 311.909 554.436 312.023 554.679V554.665Z" fill="white"/>
<path d="M318.228 552.831C318.442 553.003 317.812 554.12 317.812 555.639C317.769 557.144 318.385 558.29 318.156 558.462C317.984 558.663 316.809 557.517 316.838 555.639C316.852 553.762 318.056 552.644 318.228 552.845V552.831Z" fill="white"/>
<path d="M325.363 556.284C325.206 556.485 324.031 555.654 323.629 554.02C323.214 552.386 323.859 551.097 324.102 551.197C324.375 551.283 324.217 552.444 324.575 553.777C324.89 555.124 325.564 556.084 325.363 556.284Z" fill="white"/>
<path d="M307.409 549.75C307.481 550.022 306.249 550.523 305.088 551.598C303.913 552.644 303.283 553.834 303.025 553.733C302.767 553.676 303.053 552.128 304.443 550.882C305.819 549.635 307.395 549.492 307.424 549.75H307.409Z" fill="white"/>
<path d="M254.264 612.172L253.146 641.549C253.146 641.549 282.635 652.554 282.95 658L225.907 657.885L225.764 612.029L254.25 612.172H254.264Z" fill="#263238"/>
<path d="M235.522 639.041C234.418 639.342 233.659 640.574 233.903 641.692C234.16 642.81 235.407 643.598 236.525 643.312C237.628 643.025 238.602 641.578 238.216 640.488C237.843 639.414 236.31 638.568 235.307 639.098" fill="#E0E0E0"/>
<path d="M225.922 657.885L226.094 653.257L280.715 655.105C280.715 655.105 283.251 656.209 282.964 658L225.922 657.885Z" fill="#455A64"/>
<path d="M254.078 641.262C254.078 641.534 252.673 641.663 251.298 642.552C249.908 643.412 249.192 644.615 248.934 644.501C248.676 644.443 249.091 642.781 250.782 641.735C252.458 640.675 254.135 641.004 254.078 641.262Z" fill="white"/>
<path d="M260.053 643.756C260.11 644.028 258.906 644.501 257.961 645.676C256.972 646.822 256.743 648.098 256.456 648.083C256.198 648.126 256.012 646.493 257.216 645.06C258.405 643.612 260.053 643.498 260.053 643.756Z" fill="white"/>
<path d="M263.434 650.921C263.176 650.978 262.789 649.588 263.52 648.069C264.222 646.536 265.541 645.934 265.655 646.177C265.813 646.407 264.967 647.223 264.394 648.485C263.792 649.731 263.707 650.906 263.434 650.935V650.921Z" fill="white"/>
<path d="M253.59 634.541C253.476 634.799 252.201 634.412 250.624 634.513C249.048 634.584 247.816 635.115 247.673 634.871C247.515 634.67 248.704 633.639 250.567 633.538C252.415 633.424 253.734 634.312 253.59 634.541Z" fill="white"/>
<path d="M138.344 483.329C139.089 483.1 165.039 471.707 186.389 462.923C200.574 457.076 218.241 453.952 218.241 453.952C218.241 453.952 239.907 441.342 248.131 452.806C256.342 464.27 314.731 544.189 314.316 545.422C313.9 546.654 285.988 571.431 285.988 571.431C285.988 571.431 225.85 494.851 224.618 495.252C223.385 495.667 195.573 517.435 195.573 517.435C195.573 517.435 187.22 526.062 181.058 526.893C174.897 527.71 138.831 524.858 138.831 524.858L125.176 487.843L138.344 483.329Z" fill="#263238"/>
<path d="M169.022 515.586C170.312 516.446 184.01 526.047 184.01 526.047L215.003 533.213L221.322 635.029L258.362 633.71C258.362 633.71 258.419 560.297 258.419 543.1C258.419 525.904 257.989 509.998 252.831 504.409C247.673 498.82 224.618 495.281 224.618 495.281L169.022 515.586Z" fill="#263238"/>
<path d="M258.362 539.145C258.362 539.145 258.319 538.73 258.305 537.941C258.305 537.082 258.276 535.935 258.262 534.488C258.219 531.493 258.133 527.151 257.775 521.806C257.56 519.14 257.302 516.217 256.8 513.122C256.657 512.348 256.499 511.574 256.356 510.771C256.141 509.998 255.969 509.195 255.726 508.407C255.224 506.831 254.536 505.283 253.261 504.151C250.596 501.944 247.1 500.525 243.489 499.264C239.849 498.032 235.995 497.029 232.011 496.126C229.919 495.667 227.856 495.237 225.893 494.893L226.194 494.822C214.459 503.993 204.042 512.147 196.476 518.051C192.751 520.917 189.727 523.253 187.578 524.901C186.561 525.66 185.758 526.262 185.156 526.721C184.598 527.136 184.297 527.337 184.282 527.308C184.268 527.294 184.54 527.05 185.07 526.592C185.658 526.105 186.432 525.46 187.406 524.657C189.527 522.952 192.493 520.559 196.161 517.607C203.683 511.646 214.057 503.42 225.721 494.177L225.85 494.077L226.022 494.105C227.999 494.449 230.077 494.865 232.183 495.338C236.181 496.241 240.064 497.258 243.747 498.519C247.386 499.809 250.925 501.242 253.748 503.592C255.152 504.853 255.883 506.573 256.385 508.178C256.643 508.994 256.8 509.811 257.015 510.614C257.158 511.416 257.302 512.219 257.445 512.993C257.932 516.131 258.161 519.069 258.333 521.748C258.62 527.122 258.62 531.464 258.577 534.474C258.548 535.978 258.505 537.139 258.477 537.927C258.434 538.715 258.391 539.131 258.376 539.131L258.362 539.145Z" fill="#455A64"/>
<path d="M138.903 361.637L141.167 350.144L166.185 364.217L171.945 356.693L172.533 359.015L197.393 401.389L213.241 452.591L145.322 480.363L137.9 438.562L138.903 361.637Z" fill="#FAFAFA"/>
<path d="M191.289 446.988C191.289 446.988 191.203 446.701 191.103 446.157C191.002 445.512 190.873 444.723 190.716 443.735C190.415 441.628 189.913 438.59 189.24 434.85C187.893 427.37 185.629 417.109 182.219 406.032C178.794 394.955 174.868 385.196 171.773 378.26C170.226 374.792 168.922 371.998 167.99 370.092C167.575 369.189 167.217 368.458 166.944 367.871C166.715 367.355 166.6 367.082 166.629 367.068C166.658 367.068 166.815 367.312 167.088 367.799C167.403 368.372 167.79 369.074 168.263 369.949C169.28 371.826 170.655 374.577 172.275 378.031C175.513 384.924 179.525 394.682 182.964 405.788C186.388 416.909 188.566 427.226 189.784 434.75C190.401 438.504 190.816 441.557 191.031 443.677C191.131 444.666 191.203 445.469 191.275 446.114C191.318 446.672 191.332 446.973 191.303 446.973L191.289 446.988Z" fill="#263238"/>
<path d="M175.871 366.681C175.871 366.681 175.599 367.14 175.011 367.899C174.309 368.759 173.45 369.834 172.418 371.095L172.26 371.296L172.06 371.124C170.312 369.576 168.205 367.699 165.812 365.592L166.386 365.435C165.683 367.885 164.924 370.565 164.107 373.388L163.978 373.832L163.563 373.631C162.99 373.345 162.373 373.044 161.757 372.743C155.754 369.777 150.352 367.054 146.454 365.048C144.62 364.088 143.087 363.285 141.855 362.64C140.78 362.053 140.193 361.709 140.221 361.666C140.25 361.623 140.88 361.866 141.998 362.368C143.259 362.955 144.835 363.686 146.712 364.56C150.667 366.438 156.126 369.089 162.116 372.055C162.732 372.356 163.348 372.671 163.921 372.944L163.377 373.187C164.208 370.379 164.996 367.699 165.712 365.248L165.87 364.704L166.285 365.091C168.607 367.255 170.684 369.189 172.389 370.78L172.031 370.808C173.134 369.59 174.051 368.587 174.797 367.756C175.456 367.054 175.828 366.681 175.857 366.71L175.871 366.681Z" fill="#263238"/>
<path d="M140.235 354.916L136.309 362.181L114.888 373.717L121.923 452.992C121.923 452.992 108.297 491.655 108.297 508.765C108.297 525.875 112.094 534.115 116.536 536.336C120.978 538.558 138.086 530.318 138.086 530.318C138.086 530.318 139.935 520.229 149.864 497.373C159.809 474.516 170.398 449.524 170.398 449.524C170.398 449.524 173.564 437.171 166.285 414.673C158.992 392.175 140.25 354.945 140.25 354.945L140.235 354.916Z" fill="#455A64"/>
<path d="M240.91 389.839C240.91 389.839 240.465 377.902 241.096 375.896C241.096 375.881 241.096 375.853 241.11 375.838C242.07 372.858 245.538 369.734 248.618 369.175C250.238 368.888 251.542 368.96 252.086 369.504C252.688 370.092 253.49 374.549 253.49 374.549L269.438 371.597C269.438 371.597 260.01 386.299 257.359 390.254C254.694 394.195 251.943 396.818 251.943 396.818L234.333 438.791L227.183 414.888L240.91 389.839Z" fill="#FFBF9D"/>
<path d="M275.915 346.547C271.931 354.142 258.548 380.18 254.723 387.618C254.149 388.736 252.788 389.208 251.642 388.693C250.395 388.134 249.879 386.643 250.496 385.44L271.616 344.326C272.232 343.108 273.737 342.65 274.926 343.309C276.087 343.939 276.517 345.387 275.901 346.547H275.915Z" fill="#263238"/>
<path d="M270.527 357.467C270.914 357.524 272.461 357.123 272.691 358.915C272.906 360.706 272.633 366.882 271.745 367.283C270.857 367.685 269.481 368.315 269.481 368.315C269.481 368.315 270.298 372.213 269.381 373.574C268.464 374.936 266.73 375.838 266.73 375.838C266.73 375.838 266.658 379.077 265.684 380.338C264.724 381.599 262.46 383.691 262.46 383.691C262.46 383.691 261.83 388.85 259.422 389.81C257.015 390.771 256.471 391.53 256.471 391.53L255.711 388.42C255.711 388.42 249.163 383.921 247.845 383.09C246.526 382.273 245.925 380.41 247.2 379.579C248.489 378.762 256.972 383.09 256.972 383.09L260.038 379.923L258.219 376.426C258.219 376.426 254.479 372.356 254.565 371.496C254.651 370.637 256.241 369.189 257.746 369.347C259.236 369.505 262.976 372.786 262.976 372.786C263.248 373.488 264.222 373.546 264.581 372.872L264.81 372.442C264.81 372.442 263.506 368.401 262.818 365.377C262.632 364.575 262.89 363.199 263.664 362.855C265.211 362.153 266.515 362.096 267.36 363.572L270.527 357.438V357.467Z" fill="#FFBF9D"/>
<path d="M245.079 374.635C245.079 374.721 245.796 374.764 246.999 374.764L246.77 374.592C246.942 375.351 247.114 376.397 247.802 377.443C248.131 377.959 248.662 378.461 249.335 378.733C249.98 379.005 250.84 379.091 251.585 378.69C252.229 378.332 252.588 377.687 252.774 377.114C252.96 376.526 253.032 375.967 253.089 375.437C253.204 374.377 253.161 373.416 253.075 372.614C252.874 371.009 252.459 370.106 252.387 370.121C252.272 370.149 252.502 371.095 252.573 372.643C252.602 373.416 252.573 374.334 252.444 375.337C252.301 376.311 252.115 377.544 251.241 378.031C250.754 378.303 250.137 378.26 249.607 378.045C249.077 377.83 248.662 377.472 248.346 377.042C247.716 376.168 247.472 375.179 247.229 374.448L247.171 374.262H246.999C245.796 374.405 245.094 374.52 245.094 374.606L245.079 374.635Z" fill="#FF9A6C"/>
<path d="M255.711 388.42C255.768 388.334 254.68 387.489 252.888 386.199C251.914 385.511 250.854 384.766 249.707 383.949C249.106 383.534 248.489 383.104 247.845 382.659C247.3 382.215 246.77 381.542 246.684 380.883C246.569 380.252 247.272 379.793 247.916 379.879C248.633 379.937 249.378 380.152 250.051 380.367C251.413 380.825 252.63 381.327 253.648 381.757C255.683 382.616 256.915 383.19 256.972 383.104C257.015 383.018 255.854 382.287 253.863 381.284C252.86 380.797 251.67 380.223 250.266 379.722C249.564 379.478 248.819 379.235 247.945 379.149C247.529 379.077 246.928 379.22 246.569 379.521C246.154 379.808 245.867 380.41 245.953 380.94C246.111 381.972 246.727 382.659 247.4 383.204C248.06 383.648 248.704 384.078 249.335 384.494C250.51 385.253 251.599 385.955 252.587 386.6C254.45 387.79 255.64 388.478 255.697 388.392L255.711 388.42Z" fill="#FF9A6C"/>
<path d="M265.813 377.286C265.999 377.257 265.87 375.939 265.011 374.577C264.165 373.23 263.019 372.542 262.919 372.7C262.79 372.858 263.621 373.732 264.394 374.978C265.183 376.211 265.612 377.343 265.813 377.286Z" fill="#FF9A6C"/>
<path d="M266.83 362.927C266.644 363.027 267.246 364.345 268.091 365.85C268.922 367.34 269.41 368.645 269.61 368.602C269.796 368.573 269.61 367.083 268.736 365.506C267.862 363.959 267.002 362.855 266.83 362.941V362.927Z" fill="#FF9A6C"/>
<path d="M234.748 399.956C234.118 400.902 224.661 417.281 224.661 417.281C224.661 417.281 203.053 367.899 195.573 367.111C187.85 366.294 193.84 388.492 193.84 388.492L212.41 445.168C212.41 445.168 225.463 449.209 232.742 444.451C240.036 439.694 256.442 406.963 256.442 406.963L234.748 399.942V399.956Z" fill="#455A64"/>
<path d="M172.518 358.671C172.518 358.671 190.444 393.665 195.573 412.208C198.941 424.375 203.726 457.262 203.726 457.262L218.485 453.995L205.876 409.901L195.573 367.125L179.625 363.973L172.504 358.685L172.518 358.671Z" fill="#455A64"/>
<path d="M167.016 442.56C167.016 442.56 166.844 442.316 166.572 441.814C166.271 441.241 165.87 440.51 165.397 439.608C164.351 437.587 162.918 434.807 161.17 431.425C157.616 424.403 152.788 414.831 147.457 404.269C144.821 398.938 142.213 393.937 140.049 389.208C137.9 384.479 136.352 379.922 135.708 375.91C135.034 371.897 135.134 368.544 135.464 366.309C135.622 365.191 135.822 364.331 135.966 363.758C136.123 363.185 136.223 362.898 136.238 362.912C136.309 362.941 135.951 364.13 135.708 366.352C135.464 368.573 135.435 371.869 136.152 375.795C136.854 379.722 138.416 384.193 140.579 388.864C142.757 393.536 145.38 398.552 148.016 403.868C153.289 414.472 158.061 424.074 161.557 431.138C163.233 434.578 164.594 437.401 165.597 439.45C166.027 440.381 166.386 441.141 166.672 441.728C166.916 442.259 167.03 442.531 167.002 442.545L167.016 442.56Z" fill="#263238"/>
<path d="M201.291 378.146C201.291 378.146 201.419 378.375 201.606 378.848C201.806 379.407 202.05 380.08 202.351 380.897C202.967 382.688 203.784 385.296 204.701 388.564C206.506 395.084 208.484 404.241 210.174 414.43C211.005 419.517 211.808 424.36 212.539 428.774C212.911 430.967 213.255 433.059 213.585 435.036C213.929 436.971 214.416 438.748 214.917 440.353C215.92 443.563 216.88 446.128 217.453 447.934C217.74 448.836 217.955 449.539 218.084 450.026C218.213 450.513 218.256 450.771 218.241 450.771C218.213 450.771 218.113 450.542 217.941 450.069C217.74 449.524 217.482 448.851 217.181 448.034C216.522 446.257 215.49 443.735 214.401 440.511C213.871 438.906 213.327 437.114 212.954 435.137C212.61 433.173 212.223 431.081 211.837 428.889C211.091 424.475 210.275 419.631 209.415 414.544C207.724 404.37 205.847 395.241 204.171 388.693C203.325 385.425 202.594 382.788 202.064 380.983C201.821 380.152 201.62 379.45 201.462 378.891C201.334 378.403 201.276 378.146 201.305 378.146H201.291Z" fill="#263238"/>
<path d="M179.625 363.958C179.625 363.958 179.883 364.059 180.342 364.317C180.8 364.589 181.445 365.019 182.247 365.635C183.838 366.868 186.002 368.831 188.409 371.496C189.612 372.829 190.888 374.334 192.163 376.025C193.424 377.744 194.613 379.65 195.831 381.699C198.238 385.783 200.631 390.469 202.408 395.671C204.256 400.83 205.618 405.917 206.219 410.646C206.85 415.375 206.678 419.703 206.248 423.271C205.818 426.839 205.173 429.677 204.658 431.626C204.4 432.6 204.17 433.345 204.013 433.847C203.841 434.348 203.755 434.606 203.726 434.606C203.698 434.606 203.755 434.32 203.87 433.804C203.998 433.202 204.17 432.457 204.371 431.554C204.801 429.605 205.36 426.768 205.718 423.214C206.062 419.674 206.176 415.404 205.517 410.747C204.887 406.089 203.526 401.059 201.692 395.944C199.915 390.799 197.579 386.156 195.229 382.072C194.04 380.037 192.879 378.102 191.661 376.411C190.443 374.721 189.197 373.201 188.022 371.869C185.672 369.175 183.594 367.168 182.075 365.879C180.557 364.589 179.611 364.016 179.64 363.958H179.625Z" fill="#263238"/>
<path d="M137.026 493.031C137.026 493.031 137.155 493.303 137.312 493.862C137.456 494.406 137.642 495.223 137.814 496.284C138.143 498.39 138.387 501.457 137.957 505.14L137.914 505.484L137.57 505.426C133.515 504.739 128.629 504.108 123.342 503.836C117.897 503.549 112.825 503.678 108.641 503.95L107.924 503.993L108.354 503.435C110.417 500.712 112.165 498.405 113.498 496.642C114.759 495.023 115.49 494.12 115.547 494.163C115.604 494.206 114.959 495.18 113.799 496.871C112.524 498.677 110.847 501.041 108.87 503.836L108.583 503.32C112.796 502.947 117.897 502.775 123.385 503.062C128.701 503.334 133.63 504.008 137.685 504.782L137.298 505.068C137.8 501.471 137.656 498.448 137.441 496.355C137.226 494.263 136.954 493.074 137.04 493.059L137.026 493.031Z" fill="#263238"/>
<path d="M114.874 373.717C114.874 373.717 101.605 382.573 99.8284 392.69C97.4498 406.318 102.15 454.067 103.396 464.929C104.643 475.777 111.764 485.393 119.201 486.009C126.638 486.625 185.543 465.244 185.543 465.244L179.654 443.548L136.883 452.232L132.541 402.005L114.874 373.732V373.717Z" fill="#455A64"/>
<path d="M133.1 408.382L136.883 452.204L179.654 443.52L185.543 465.216C185.543 465.216 140.522 483.014 134.203 483.802C127.884 484.59 110.761 487.8 107.079 476.35" fill="#455A64"/>
<path d="M196.876 447.759L200.385 415.246C200.465 414.505 201.129 413.957 201.884 414.039L221.544 416.161C222.285 416.241 222.832 416.905 222.751 417.66L219.242 450.173C219.162 450.914 218.498 451.462 217.743 451.38L198.083 449.258C197.343 449.178 196.795 448.514 196.876 447.759Z" fill="#146EB4"/>
<path d="M201.864 414.028C201.864 414.028 201.405 413.942 200.86 414.429C200.574 414.687 200.459 415.089 200.445 415.662C200.388 416.221 200.345 416.851 200.273 417.568C199.986 420.505 199.585 424.618 199.084 429.662C198.554 434.793 197.923 440.869 197.235 447.604C197.092 448.335 197.565 448.922 198.367 448.908C199.227 448.994 200.101 449.094 200.989 449.18C202.752 449.367 204.557 449.553 206.391 449.753C210.06 450.14 213.857 450.556 217.754 450.971C218.112 451.014 218.471 450.843 218.671 450.556C218.771 450.398 218.829 450.255 218.843 450.054L218.915 449.338C219.015 448.378 219.115 447.418 219.23 446.472C219.431 444.58 219.646 442.703 219.846 440.869C220.247 437.2 220.634 433.661 221.007 430.279C221.379 426.911 221.738 423.701 222.081 420.706C222.167 419.961 222.253 419.216 222.325 418.499C222.354 418.155 222.425 417.74 222.425 417.467C222.425 417.195 222.296 416.923 222.096 416.737C221.881 416.536 221.666 416.45 221.322 416.436C220.978 416.393 220.649 416.364 220.305 416.321C219.631 416.249 218.986 416.163 218.342 416.092C213.298 415.504 209.2 415.017 206.277 414.673C204.916 414.501 203.812 414.358 202.995 414.243C202.25 414.143 201.849 414.071 201.864 414.043C201.864 414.014 202.265 414.043 203.024 414.086C203.841 414.157 204.944 414.258 206.32 414.372C209.257 414.659 213.37 415.06 218.413 415.562C219.058 415.633 219.703 415.691 220.376 415.762C220.706 415.791 221.05 415.834 221.394 415.862C221.738 415.862 222.21 416.02 222.511 416.307C222.826 416.593 223.027 417.009 223.041 417.453C223.041 417.897 222.97 418.198 222.941 418.571C222.869 419.302 222.784 420.033 222.712 420.778C222.397 423.787 222.067 426.997 221.709 430.365C221.351 433.747 220.978 437.286 220.591 440.955C220.391 442.789 220.19 444.666 219.989 446.558C219.889 447.504 219.789 448.464 219.689 449.424L219.617 450.14C219.603 450.413 219.488 450.742 219.316 451C218.972 451.516 218.313 451.817 217.697 451.745C213.799 451.33 210.002 450.914 206.334 450.513C204.5 450.312 202.695 450.112 200.932 449.925C200.044 449.825 199.17 449.725 198.31 449.639C197.909 449.639 197.235 449.438 196.934 449.008C196.576 448.621 196.462 447.962 196.562 447.547C197.321 440.826 197.995 434.75 198.582 429.634C199.17 424.59 199.657 420.491 200.001 417.553C200.087 416.851 200.173 416.221 200.244 415.662C200.273 415.132 200.445 414.587 200.775 414.344C201.434 413.842 201.921 414.057 201.892 414.043L201.864 414.028Z" fill="#146EB4"/>
<path d="M216.32 429.64L213.983 429.388L213.536 433.534L215.872 433.786L216.32 429.64Z" fill="white"/>
<path d="M216.979 423.584L214.643 423.332L214.195 427.478L216.531 427.73L216.979 423.584Z" fill="white"/>
<path d="M215.673 435.698L213.336 435.446L212.889 439.592L215.225 439.844L215.673 435.698Z" fill="white"/>
<path d="M214.978 441.68L212.642 441.428L212.195 445.574L214.531 445.826L214.978 441.68Z" fill="white"/>
<path d="M107.093 476.365C107.093 476.365 107.179 476.494 107.294 476.752C107.423 477.038 107.595 477.425 107.824 477.898C108.311 478.872 109.242 480.262 110.89 481.538C112.538 482.828 114.988 483.816 117.954 484.261C120.92 484.719 124.374 484.691 128.156 484.318C130.048 484.132 132.025 483.831 134.117 483.558C136.123 483.215 138.215 482.484 140.35 481.81C144.634 480.391 149.191 478.729 154.005 476.952C163.62 473.384 174.209 469.3 185.4 464.886L185.171 465.345C184.125 461.504 183.036 457.463 181.918 453.365C181.029 450.083 180.141 446.83 179.281 443.649L179.74 443.921C164.021 447.088 149.449 450.026 136.954 452.534L136.596 452.605L136.567 452.247C135.493 439.063 134.59 428.115 133.959 420.42C133.673 416.622 133.444 413.641 133.286 411.535C133.214 410.546 133.171 409.772 133.128 409.199C133.1 408.669 133.1 408.396 133.114 408.396C133.128 408.396 133.171 408.669 133.229 409.185C133.286 409.758 133.372 410.532 133.472 411.506C133.673 413.598 133.959 416.579 134.332 420.362C135.034 428.058 136.023 439.006 137.226 452.175L136.84 451.889C149.334 449.338 163.892 446.357 179.611 443.147L179.969 443.076L180.069 443.434C180.929 446.615 181.818 449.868 182.706 453.15C183.824 457.248 184.913 461.289 185.959 465.13L186.045 465.459L185.715 465.588C174.51 469.988 163.907 474.043 154.278 477.583C149.463 479.345 144.892 480.979 140.579 482.369C138.416 483.043 136.352 483.745 134.217 484.103C132.14 484.361 130.148 484.648 128.242 484.819C124.417 485.163 120.92 485.149 117.911 484.648C114.902 484.16 112.409 483.114 110.747 481.753C109.07 480.406 108.168 478.958 107.723 477.955C107.537 477.468 107.38 477.081 107.265 476.78C107.165 476.508 107.122 476.379 107.136 476.379L107.093 476.365Z" fill="#263238"/>
<path d="M106.978 382.573C106.978 382.502 108.44 382.301 110.79 382.573C113.14 382.846 116.364 383.748 119.502 385.611C122.625 387.474 124.961 389.882 126.322 391.816C127.698 393.751 128.228 395.141 128.156 395.17C128.042 395.241 127.34 393.952 125.878 392.16C124.431 390.355 122.124 388.105 119.086 386.285C116.049 384.494 112.968 383.534 110.69 383.118C108.411 382.702 106.964 382.702 106.964 382.559L106.978 382.573Z" fill="#263238"/>
<path d="M180.585 445.469C180.585 445.469 194.312 432.127 196.763 429.405C199.213 426.682 213.9 425.994 216.106 426.983C218.313 427.972 217.998 430.995 216.665 431.439C215.333 431.884 207.366 431.353 204.916 432.314C202.465 433.259 211.177 432.973 214.745 435.624C218.299 438.275 216.321 440.009 214.96 440.109C214.96 440.109 216.866 441.8 215.361 443.42C213.857 445.039 212.152 444.294 212.152 444.294C212.152 444.294 214.559 445.325 213.628 447.317C212.696 449.309 209.343 448.478 209.343 448.478C209.343 448.478 204.07 446.515 203.211 446.844C202.351 447.188 199.657 451.502 196.72 453.952C192.994 457.048 188.352 456.245 187.205 456.13L184.225 458.796C183.251 455.6 180.6 445.454 180.6 445.454L180.585 445.469Z" fill="#FFBF9D"/>
<path d="M205.056 418.702L204.71 421.908L208.214 422.286L208.56 419.08L205.056 418.702Z" fill="white"/>
<path d="M133 560.425H27.4683V480.878H125.735C129.475 480.878 132.513 482.426 132.513 484.346L133 560.425Z" fill="#146EB4"/>
<path d="M121.809 480.993C121.809 481.208 101.734 481.366 76.9741 481.366C52.214 481.366 32.1394 481.194 32.1394 480.993C32.1394 480.793 52.214 480.621 76.9741 480.621C101.734 480.621 121.809 480.793 121.809 480.993Z" fill="#263238"/>
<path d="M132.455 588.513C132.24 588.513 132.083 568.852 132.083 544.605C132.083 520.358 132.255 500.683 132.455 500.683C132.656 500.683 132.828 520.344 132.828 544.605C132.828 568.866 132.656 588.513 132.455 588.513Z" fill="#263238"/>
<path d="M219.073 560.039C219.073 560.254 199.772 560.411 175.972 560.411C152.172 560.411 132.856 560.239 132.856 560.039C132.856 559.838 152.157 559.666 175.972 559.666C199.786 559.666 219.073 559.838 219.073 560.039Z" fill="#263238"/>
</svg>
