<svg xmlns="http://www.w3.org/2000/svg" viewBox="0 0 444.56 459.17">
  <defs>
    <style>
      .cls-1{fill:#fff}.cls-3{fill:#f5f5f5}.cls-4{fill:#455a64}.cls-5{fill:#ffbf9d}.cls-6{fill:#e0e0e0}.cls-7{fill:#ff9a6c}.cls-8{fill:#146eb4}.cls-9{fill:none;opacity:.3}.cls-10{fill:#263238}
    </style>
  </defs>
  <g id="Background_Complete" data-name="Background Complete">
    <rect width="146.69" height="213.26" x="126.69" y="17.56" class="cls-1" rx="4.78" ry="4.78"/>
    <path d="M268.53 231.32H131.54a5.36 5.36 0 0 1-5.36-5.36V22.41c0-2.96 2.4-5.36 5.36-5.36h136.99c2.96 0 5.36 2.4 5.36 5.36v203.56c0 2.96-2.4 5.36-5.36 5.36ZM131.54 18.07c-2.4 0-4.34 1.95-4.34 4.34v203.56c0 2.4 1.95 4.34 4.34 4.34h136.99c2.39 0 4.34-1.95 4.34-4.34V22.41c0-2.4-1.95-4.34-4.34-4.34H131.54Z" class="cls-6"/>
    <path d="M140.97 207.56h122.06v4.98H140.97zM140.97 215h122.06v4.98H140.97z" class="cls-6"/>
    <path d="M140.97 102.71h122.06v88.33H140.97z" class="cls-3"/>
    <path d="M262.4 118.02c0 .15-27.27.26-60.91.26s-60.92-.12-60.92-.26 27.27-.26 60.92-.26 60.91.12 60.91.26Z" class="cls-10"/>
    <path d="M157.03 191.03c-.15 0-.26-19.65-.26-43.88s.12-43.88.26-43.88.26 19.64.26 43.88-.12 43.88-.26 43.88ZM211.93 192.05c-.15 0-.26-19.88-.26-44.39s.12-44.39.26-44.39.26 19.87.26 44.39-.12 44.39-.26 44.39ZM239.38 192.05c-.15 0-.26-19.88-.26-44.39s.12-44.39.26-44.39.26 19.87.26 44.39-.12 44.39-.26 44.39Z" class="cls-10"/>
    <path d="M145.23 108.47h7.11v5.22h-7.11zM145.23 127.09h7.11v5.22h-7.11zM145.23 138.9h7.11v5.22h-7.11zM145.23 149.23h7.11v5.22h-7.11zM218.03 108.47h15.09v5.22h-15.09zM220.4 122.95h10.41v5.22H220.4zM220.4 138.79h10.41v5.22H220.4zM246.74 138.79h10.41v5.22h-10.41zM220.4 149.32h10.41v5.22H220.4zM246.66 148.83h10.41v5.22h-10.41zM246.66 123.3h10.41v5.22h-10.41zM245.02 108.47h12.05v5.22h-12.05zM163.91 108.47h39.46v5.22h-39.46zM163.91 125.99h23.46v5.22h-23.46zM163.91 138.41h39.46v5.22h-39.46zM163.91 148.83h20.95v5.22h-20.95zM239.38 191.03h23.64v12.02h-23.64zM204.66 39.98h52.48v4.98h-52.48zM144.03 55.48h12.83v4.98h-12.83zM143.66 63.83h34.25v4.98h-34.25zM258.63 60.47H245.8v-4.98h12.83zM258.99 68.8h-34.25v-4.98h34.25zM143.66 79.22h34.25v4.98h-34.25zM143.66 87.87h87.43v4.98h-87.43zM144.85 37.46h2.33v8.23h-2.33v-8.23ZM156.67 37.46v8.23h-1.92l-3.63-4.38v4.38h-2.28v-8.23h1.92l3.63 4.38v-4.38h2.28ZM166.64 37.46l-3.53 8.23h-2.29l-3.51-8.23h2.52l2.23 5.36 2.28-5.36h2.3ZM166.59 41.58c0-2.47 1.94-4.28 4.57-4.28s4.57 1.81 4.57 4.28-1.94 4.28-4.57 4.28-4.57-1.81-4.57-4.28Zm6.79 0c0-1.42-.98-2.35-2.22-2.35s-2.22.93-2.22 2.35.98 2.35 2.22 2.35 2.22-.93 2.22-2.35ZM176.96 37.46h2.33v8.23h-2.33v-8.23ZM180.52 41.58c0-2.5 1.92-4.28 4.52-4.28 1.52 0 2.74.55 3.54 1.55l-1.48 1.34c-.52-.62-1.15-.96-1.94-.96-1.35 0-2.29.94-2.29 2.35s.94 2.35 2.29 2.35c.79 0 1.42-.34 1.94-.96l1.48 1.34c-.8 1-2.02 1.55-3.54 1.55-2.61 0-4.52-1.77-4.52-4.28ZM196.23 43.89v1.8h-6.6v-8.23h6.45v1.8h-4.15v1.39h3.65v1.74h-3.65v1.5h4.3ZM136.56 25.2c0 1.23-1 2.24-2.24 2.24s-2.24-1-2.24-2.24 1-2.24 2.24-2.24 2.24 1 2.24 2.24ZM142.31 25.2c0 1.23-1 2.24-2.24 2.24s-2.24-1-2.24-2.24 1-2.24 2.24-2.24 2.24 1 2.24 2.24ZM148.07 25.2c0 1.23-1 2.24-2.24 2.24s-2.24-1-2.24-2.24 1-2.24 2.24-2.24 2.24 1 2.24 2.24Z" class="cls-6"/>
    <rect width="146.69" height="213.26" x="275.93" y="166.95" class="cls-1" rx="4.78" ry="4.78"/>
    <path d="M417.77 380.72H280.78a5.36 5.36 0 0 1-5.36-5.36V171.8c0-2.96 2.4-5.36 5.36-5.36h136.99c2.95 0 5.36 2.4 5.36 5.36v203.56c0 2.96-2.4 5.36-5.36 5.36ZM280.78 167.46c-2.4 0-4.34 1.95-4.34 4.34v203.56c0 2.4 1.95 4.34 4.34 4.34h136.99c2.39 0 4.34-1.95 4.34-4.34V171.8c0-2.4-1.95-4.34-4.34-4.34H280.78Z" class="cls-6"/>
    <path d="M290.2 356.96h122.06v4.98H290.2zM290.2 364.39h122.06v4.98H290.2z" class="cls-6"/>
    <path d="M290.2 252.1h122.06v88.33H290.2z" class="cls-3"/>
    <path d="M411.64 267.42c0 .15-27.27.26-60.91.26s-60.92-.12-60.92-.26 27.27-.26 60.92-.26 60.91.12 60.91.26Z" class="cls-6"/>
    <path d="M306.27 340.43c-.15 0-.26-19.65-.26-43.88s.12-43.88.26-43.88.26 19.64.26 43.88-.12 43.88-.26 43.88ZM361.17 341.45c-.15 0-.26-19.88-.26-44.39s.12-44.39.26-44.39.26 19.87.26 44.39-.12 44.39-.26 44.39ZM388.62 341.45c-.15 0-.26-19.88-.26-44.39s.12-44.39.26-44.39.26 19.87.26 44.39-.12 44.39-.26 44.39ZM294.47 257.86h7.11v5.22h-7.11zM294.47 276.49h7.11v5.22h-7.11zM294.47 288.3h7.11v5.22h-7.11zM294.47 298.63h7.11v5.22h-7.11zM367.27 257.86h15.09v5.22h-15.09zM369.64 272.35h10.41v5.22h-10.41zM369.64 288.19h10.41v5.22h-10.41zM395.98 288.19h10.41v5.22h-10.41zM369.64 298.72h10.41v5.22h-10.41zM395.9 298.22h10.41v5.22H395.9zM395.9 272.69h10.41v5.22H395.9zM394.25 257.86h12.05v5.22h-12.05zM313.15 257.86h39.46v5.22h-39.46zM313.15 275.39h23.46v5.22h-23.46zM313.15 287.81h39.46v5.22h-39.46zM313.15 298.22h20.95v5.22h-20.95z" class="cls-6"/>
    <path d="M388.62 340.43h23.64v12.02h-23.64zM353.9 189.38h52.48v4.98H353.9zM293.27 204.88h12.83v4.98h-12.83zM292.9 213.22h34.25v4.98H292.9zM407.86 209.87h-12.83v-4.98h12.83zM408.23 218.21h-34.25v-4.98h34.25zM292.9 228.62h34.25v4.98H292.9zM292.9 237.27h87.43v4.98H292.9zM294.09 186.86h2.33v8.23h-2.33v-8.23ZM305.9 186.86v8.23h-1.91l-3.63-4.38v4.38h-2.28v-8.23H300l3.63 4.38v-4.38h2.28ZM315.87 186.86l-3.53 8.23h-2.29l-3.51-8.23h2.52l2.23 5.36 2.28-5.36h2.3ZM315.83 190.98c0-2.47 1.94-4.28 4.57-4.28s4.57 1.81 4.57 4.28-1.94 4.28-4.57 4.28-4.57-1.81-4.57-4.28Zm6.79 0c0-1.42-.98-2.35-2.22-2.35s-2.22.93-2.22 2.35.98 2.35 2.22 2.35 2.22-.93 2.22-2.35ZM326.2 186.86h2.33v8.23h-2.33v-8.23ZM329.76 190.98c0-2.5 1.91-4.28 4.52-4.28 1.52 0 2.74.55 3.54 1.55l-1.48 1.34c-.52-.62-1.15-.96-1.94-.96-1.35 0-2.29.94-2.29 2.35s.94 2.35 2.29 2.35c.79 0 1.42-.34 1.94-.96l1.48 1.34c-.8 1-2.02 1.55-3.54 1.55-2.61 0-4.52-1.77-4.52-4.28ZM345.47 193.29v1.8h-6.6v-8.23h6.45v1.8h-4.15v1.39h3.65v1.74h-3.65v1.5h4.3ZM285.8 174.6c0 1.23-1 2.24-2.24 2.24s-2.24-1-2.24-2.24 1-2.24 2.24-2.24 2.24 1 2.24 2.24ZM291.55 174.6c0 1.23-1 2.24-2.24 2.24s-2.24-1-2.24-2.24 1-2.24 2.24-2.24 2.24 1 2.24 2.24ZM297.31 174.6c0 1.23-1 2.24-2.24 2.24s-2.24-1-2.24-2.24 1-2.24 2.24-2.24 2.24 1 2.24 2.24Z" class="cls-6"/>
  </g>
  <path id="Floor" d="M433.32 447.51c0 .14-97.01.26-216.65.26S0 447.65 0 447.51s96.99-.26 216.67-.26 216.65.12 216.65.26Z" class="cls-10"/>
  <g id="Invoice">
    <rect width="146.69" height="213.26" x="43.66" y="52.96" class="cls-1" rx="4.78" ry="4.78"/>
    <path d="M185.5 266.72H48.51a5.36 5.36 0 0 1-5.36-5.36V57.81c0-2.96 2.4-5.36 5.36-5.36H185.5c2.96 0 5.36 2.4 5.36 5.36v203.56c0 2.96-2.4 5.36-5.36 5.36ZM48.51 53.47c-2.4 0-4.34 1.95-4.34 4.34v203.56c0 2.4 1.95 4.34 4.34 4.34H185.5c2.4 0 4.34-1.95 4.34-4.34V57.81c0-2.4-1.95-4.34-4.34-4.34H48.51Z" class="cls-8"/>
    <path d="M57.93 242.96h122.06v4.98H57.93zM57.93 250.4h122.06v4.98H57.93z" class="cls-6"/>
    <path d="M57.93 138.11h122.06v88.33H57.93z" class="cls-3"/>
    <path d="M179.37 153.42c0 .15-27.27.26-60.91.26s-60.92-.12-60.92-.26 27.27-.26 60.92-.26 60.91.12 60.91.26Z" class="cls-8"/>
    <path d="M74 226.43c-.15 0-.26-19.65-.26-43.88s.12-43.88.26-43.88.26 19.64.26 43.88-.12 43.88-.26 43.88ZM128.9 227.45c-.15 0-.26-19.88-.26-44.39s.12-44.39.26-44.39.26 19.87.26 44.39-.12 44.39-.26 44.39ZM156.35 227.45c-.15 0-.26-19.88-.26-44.39s.12-44.39.26-44.39.26 19.87.26 44.39-.12 44.39-.26 44.39Z" class="cls-8"/>
    <path d="M62.2 143.87h7.11v5.22H62.2zM62.2 162.49h7.11v5.22H62.2zM62.2 174.3h7.11v5.22H62.2zM62.2 184.63h7.11v5.22H62.2zM135 143.87h15.09v5.22H135zM137.37 158.35h10.41v5.22h-10.41zM137.37 174.19h10.41v5.22h-10.41zM163.7 174.19h10.41v5.22H163.7zM137.37 184.72h10.41v5.22h-10.41zM163.63 184.23h10.41v5.22h-10.41zM163.63 158.7h10.41v5.22h-10.41zM161.98 143.87h12.05v5.22h-12.05zM80.88 143.87h39.46v5.22H80.88zM80.88 161.39h23.46v5.22H80.88zM80.88 173.81h39.46v5.22H80.88zM80.88 184.23h20.95v5.22H80.88z" class="cls-6"/>
    <path d="M156.35 226.43h23.64v12.03h-23.64z" class="cls-8"/>
    <path d="M121.63 75.38h52.48v4.98h-52.48zM61 90.88h12.83v4.98H61zM60.63 99.23h34.25v4.98H60.63zM175.59 95.87h-12.83v-4.98h12.83zM175.96 104.2h-34.25v-4.98h34.25z" class="cls-6"/>
    <path d="M60.63 114.62h34.25v4.98H60.63z" class="cls-8"/>
    <path d="M60.63 123.27h87.43v4.98H60.63z" class="cls-6"/>
    <path d="M61.82 72.87h2.33v8.23h-2.33v-8.23ZM73.63 72.87v8.23h-1.92l-3.63-4.38v4.38H65.8v-8.23h1.92l3.63 4.38v-4.38h2.28ZM83.6 72.87l-3.53 8.23h-2.29l-3.51-8.23h2.52l2.23 5.36 2.28-5.36h2.3ZM83.56 76.98c0-2.47 1.94-4.28 4.57-4.28s4.57 1.81 4.57 4.28-1.94 4.28-4.57 4.28-4.57-1.81-4.57-4.28Zm6.79 0c0-1.42-.98-2.35-2.22-2.35s-2.22.93-2.22 2.35.98 2.35 2.22 2.35 2.22-.93 2.22-2.35ZM93.93 72.87h2.33v8.23h-2.33v-8.23ZM97.49 76.98c0-2.5 1.92-4.28 4.52-4.28 1.52 0 2.74.55 3.54 1.55l-1.48 1.34c-.52-.62-1.15-.96-1.94-.96-1.35 0-2.29.94-2.29 2.35s.94 2.35 2.29 2.35c.79 0 1.42-.34 1.94-.96l1.48 1.34c-.8 1-2.02 1.55-3.54 1.55-2.61 0-4.52-1.78-4.52-4.28ZM113.19 79.29v1.8h-6.6v-8.23h6.45v1.8h-4.15v1.39h3.65v1.74h-3.65v1.5h4.3Z" class="cls-8"/>
    <path d="M53.52 60.6c0 1.23-1 2.24-2.24 2.24s-2.24-1-2.24-2.24 1-2.24 2.24-2.24 2.24 1 2.24 2.24ZM59.28 60.6c0 1.23-1 2.24-2.24 2.24s-2.24-1-2.24-2.24 1-2.24 2.24-2.24 2.24 1 2.24 2.24ZM65.04 60.6c0 1.23-1 2.24-2.24 2.24s-2.24-1-2.24-2.24 1-2.24 2.24-2.24 2.24 1 2.24 2.24Z" class="cls-6"/>
  </g>
  <g id="Device">
    <path d="m328.87 426.56-130.76-.58c-15.73-.07-28.42-11.85-28.35-26.33l1.38-301.6c.07-14.48 12.88-26.17 28.62-26.1h.04l130.72.52c15.73.07 28.42 11.85 28.35 26.32l-1.38 301.63c-.04 14.47-12.83 26.17-28.56 26.13h-.07Z" class="cls-8"/>
    <path d="m329.42 80.9-25.31-.11-74.06-.32h-8.91l-22.2-.09c-11.02-.05-19.99 8.25-20.04 18.54l-1.35 298.95c-.05 10.29 8.84 18.67 19.86 18.71l130.51.56c11.02.03 19.98-8.28 20.01-18.57s1.35-298.96 1.35-298.96c.05-10.29-8.83-18.67-19.85-18.72h-.01Z" class="cls-1"/>
    <path d="M330.59 107.48a1.63 1.63 0 1 1-1.63-1.63c.9 0 1.62.73 1.62 1.63ZM330.58 113.39c0 .9-.74 1.63-1.64 1.62-.9 0-1.63-.74-1.62-1.64 0-.9.73-1.62 1.63-1.62.9 0 1.63.74 1.63 1.64ZM330.56 119.23a1.641 1.641 0 0 1-3.28.02c0-.91.73-1.65 1.63-1.65h.02c.9 0 1.63.73 1.63 1.63Z" class="cls-8"/>
    <path d="M297.65 114.38h-73.26c-1.45 0-2.63-1.18-2.63-2.63s1.18-2.63 2.63-2.63h73.26c1.45 0 2.63 1.18 2.63 2.63s-1.18 2.63-2.63 2.63Z" class="cls-6"/>
    <rect width="97.67" height="29.96" x="216.75" y="346.1" class="cls-8" rx="14.75" ry="14.75"/>
    <path d="M261.76 359.73c0 1.94-1.46 3.14-3.79 3.14h-1.49v2.23h-2.41v-8.53h3.9c2.33 0 3.79 1.21 3.79 3.16Zm-2.44 0c0-.79-.5-1.26-1.5-1.26h-1.34v2.5h1.34c1 0 1.5-.46 1.5-1.24ZM268.22 363.44h-3.61l-.67 1.66h-2.46l3.77-8.53h2.38l3.78 8.53h-2.51l-.67-1.66Zm-.71-1.78-1.1-2.73-1.1 2.73h2.19ZM276.12 362.04v3.06h-2.41v-3.09l-3.25-5.44h2.55l2.02 3.39 2.02-3.39h2.34l-3.27 5.47Z" class="cls-1"/>
    <path d="M196.72 164.82h126.23c.85 0 1.54.69 1.54 1.54v.05c0 .85-.69 1.54-1.54 1.54H196.72c-.85 0-1.54-.69-1.54-1.54v-.05c0-.85.69-1.54 1.54-1.54Z" class="cls-8"/>
    <path d="M333.15 293.4c-4.01-11.03-5.9-22.72-5.9-34.45v-62.53c0-20.81-16.58-30.03-16.58-30.03H196.65s16.58 9.22 16.58 30.03v73.44s.73 46.41 23.75 51.16l110.35-.15h10.87v-7.2c-6.68-5.05-21.61-10.81-25.05-20.26Z" class="cls-9"/>
    <path d="M337.9 287.91c-4.01-11.03-5.9-22.72-5.9-34.45v-62.53c0-20.81-19.68-24.54-19.68-24.54H198.3s19.68 3.73 19.68 24.54v73.44s.73 46.41 23.75 51.16l119.34-.5c-11.51-2.38-18.78-15.04-23.17-27.11Z" class="cls-1"/>
    <path d="M337.9 287.91s.32.77.9 2.28c.63 1.49 1.52 3.73 2.95 6.54 1.43 2.8 3.37 6.22 6.32 9.75 1.5 1.74 3.25 3.5 5.4 5.03 2.14 1.53 4.72 2.79 7.63 3.38l1.23.25h-1.25c-27.15.15-68.87.36-119.34.62h-.04c-4.75-1-9.01-4-12.02-7.95-3.06-3.94-5.22-8.58-6.86-13.42-1.66-4.85-2.79-9.93-3.63-15.12-.8-5.2-1.38-10.51-1.44-15.91V191.01l-.14-2.46-.07-1.23c-.06-.4-.15-.8-.22-1.21-.45-3.24-1.7-6.32-3.47-9.01-1.78-2.69-4.15-4.96-6.83-6.7-2.67-1.75-5.66-3.05-8.72-3.76l-2.26-.52h2.31c41.66.02 80.38.03 114.02.04h.04c2.46.55 4.76 1.51 6.92 2.65 2.15 1.16 4.15 2.57 5.84 4.27 3.51 3.29 5.63 7.71 6.5 12.16.86 4.49.5 8.93.58 13.19 0 4.27 0 8.42-.01 12.44-.02 16.08-.04 30.07-.05 41.58-.1 11.52 1.58 20.47 3.07 26.42.75 2.98 1.46 5.23 1.95 6.74.25.75.44 1.31.57 1.7.13.38.18.58.18.58s-.3-.76-.82-2.26c-.51-1.5-1.24-3.75-2.01-6.73-1.53-5.95-3.26-14.91-3.2-26.45-.01-11.52-.03-25.51-.05-41.58 0-4.02 0-8.17-.01-12.44-.08-4.26.27-8.71-.59-13.11-.86-4.37-2.94-8.71-6.39-11.93-1.66-1.67-3.63-3.05-5.75-4.19-2.12-1.13-4.41-2.07-6.79-2.6h.04c-33.64.02-72.36.03-114.02.04l.05-.52c3.17.73 6.17 2.04 8.91 3.83 2.73 1.78 5.16 4.09 6.98 6.85 1.81 2.75 3.09 5.91 3.55 9.21.07.41.16.82.22 1.23l.07 1.25.14 2.5V263.34c.06 5.36.63 10.67 1.43 15.84.84 5.17 1.96 10.23 3.6 15.04 1.63 4.8 3.77 9.4 6.78 13.28 2.97 3.89 7.11 6.81 11.74 7.79h-.05c50.47-.17 92.19-.31 119.34-.4l-.03.26c-2.95-.61-5.55-1.9-7.71-3.45-2.17-1.55-3.92-3.34-5.42-5.09-2.95-3.56-4.88-6.99-6.29-9.81-1.41-2.83-2.28-5.08-2.89-6.58-.56-1.52-.84-2.31-.84-2.31Z" class="cls-8"/>
    <path d="M365.01 315.01c8-5.84 13.2-15.36 13.8-25.25l-128.93-.52c.65 5.98-.03 12.1-1.98 17.8-1.12 3.26-2.76 6.52-5.6 8.48l122.71-.52Z" class="cls-6"/>
    <path d="M365.01 315.01s-.2.02-.6.02c-.42 0-1.01.02-1.78.03-1.59.02-3.91.04-6.9.07-6.04.04-14.79.11-25.73.18-21.93.12-52.62.28-87.7.46h-.83l.68-.47c1.83-1.28 3.21-3.17 4.22-5.23 1.01-2.07 1.72-4.31 2.29-6.59 1.12-4.57 1.47-9.41.95-14.22l-.03-.29h.3c1.19 0 2.47.01 3.76.02 51.62.25 97.32.47 125.17.61h.17l-.01.16c-.31 4.72-1.59 8.82-3.15 12.15-1.56 3.33-3.41 5.9-5.05 7.84-1.66 1.93-3.14 3.21-4.15 4.06-1.05.81-1.6 1.2-1.6 1.2s.13-.12.39-.33c.27-.22.65-.53 1.16-.93.99-.86 2.45-2.16 4.08-4.1 1.62-1.94 3.43-4.51 4.96-7.83 1.52-3.31 2.77-7.39 3.05-12.06l.15.16c-27.85-.09-73.56-.23-125.17-.39-1.29 0-2.57-.01-3.76-.02l.26-.29c.53 4.87.17 9.77-.97 14.4-.58 2.31-1.3 4.57-2.34 6.7-1.03 2.11-2.46 4.08-4.39 5.43l-.15-.47c35.06-.11 65.72-.2 87.63-.27 10.95-.01 19.71-.02 25.75-.03 3.01 0 5.33.01 6.92.01.78 0 1.38.01 1.79.01.4 0 .61.02.61.02ZM317.14 190.51c0 .15-19.06.26-42.57.26s-42.58-.12-42.58-.26 19.06-.26 42.58-.26 42.57.12 42.57.26ZM317.14 208.66c0 .15-19.06.26-42.57.26s-42.58-.12-42.58-.26 19.06-.26 42.58-.26 42.57.12 42.57.26ZM322.21 258.61c0 .15-20.2.26-45.1.26s-45.11-.12-45.11-.26 20.19-.26 45.11-.26 45.1.12 45.1.26ZM264.51 182.95c0 1.47-1.22 2.34-3.51 2.34h-4.61v-8.53h4.36c2.24 0 3.34.91 3.34 2.23 0 .82-.41 1.47-1.14 1.85.96.34 1.56 1.07 1.56 2.11Zm-5.73-4.45v1.65h1.66c.8 0 1.22-.28 1.22-.83s-.41-.82-1.22-.82h-1.66Zm3.29 4.18c0-.59-.44-.87-1.27-.87h-2.02v1.73h2.02c.83 0 1.27-.28 1.27-.87ZM265.77 176.76h2.41v8.53h-2.41v-8.53ZM269.9 176.76h2.41v6.62h4.07v1.91h-6.48v-8.53ZM277.34 176.76h2.41v6.62h4.07v1.91h-6.48v-8.53Z" class="cls-8"/>
    <path d="M233.12 197.05h43.25v6.46h-43.25zM293.65 197.05h25.66v6.46h-25.66zM233.12 216.62h41.44v6.46h-41.44zM233.12 230.45h17.32v6.46h-17.32zM233.12 243.23h28.08v6.46h-28.08zM236.4 278.61h87.62v6.46H236.4z" class="cls-6"/>
    <path d="M307.42 216.62H320v6.46h-12.58zM307.42 228.98H320v6.46h-12.58zM307.42 242.73H320v6.46h-12.58zM302.35 264.39h17.43v6.46h-17.43z" class="cls-8"/>
  </g>
  <g id="Character">
    <path d="M89.17 457.52h-6.81l-8.22-48.13h10l5.03 48.13zM25.52 457.52h6.81l8.23-48.13h-10l-5.04 48.13zM203.58 457.52h-6.8l-8.23-48.13h10l5.03 48.13zM139.94 457.52h6.8l8.23-48.13h-10l-5.03 48.13z" class="cls-8"/>
    <path d="M19.17 390.13h184.66v20.3H19.17z" class="cls-8"/>
    <rect width="132.28" height="28.23" x="60.03" y="351.67" class="cls-8" rx="8.94" ry="8.94"/>
    <path d="M152.3 335.57h46.1c5.41 0 9.79 4.39 9.79 9.79v45.3H152.3v-55.09Z" class="cls-8"/>
    <path d="M65.54 276.76h88.93c7.24 0 13.11 5.88 13.11 13.11v61.8H65.54v-74.92ZM188.31 390.98l-114.17.1v-12.69h114.17v12.59z" class="cls-8"/>
    <path d="M24.31 276.76h112.55v74.92H19.17V281.9c0-2.83 2.3-5.14 5.14-5.14Z" class="cls-8"/>
    <path d="M24.26 276.76h23.93v67.09c0 4.32-3.51 7.83-7.83 7.83H26.99c-4.32 0-7.83-3.51-7.83-7.83v-62c0-2.81 2.28-5.09 5.09-5.09Z" class="cls-9"/>
    <path d="M99.68 251.02 94 219.27c-1.49-9.62 2.86-18.51 12.52-19.74l.9-.06c9.05-.62 17.06 5.81 18.4 14.78 1.25 8.35 2.52 17.58 2.77 22.09.52 9.33-8.7 11.41-8.7 11.41-.02 0 .56 5.65.87 8.38l-1.56 7.22-19.51-12.34Z" class="cls-5"/>
    <path d="M119.87 247.79s-5.85.75-12.38-2.76c0 0 3.4 6.81 12.64 5.33l-.26-2.57Z" class="cls-7"/>
    <path d="M123.51 222.94c.07.7-.46 1.34-1.19 1.43-.73.09-1.38-.41-1.45-1.11-.07-.7.46-1.34 1.19-1.43.73-.09 1.38.41 1.46 1.11ZM124.08 218.19c-.15.18-1.21-.49-2.64-.39-1.43.08-2.43.89-2.6.72-.08-.07.06-.4.5-.76.43-.36 1.17-.74 2.07-.79.89-.06 1.67.22 2.12.53.46.31.63.61.56.7ZM111.02 223.9c.07.7-.46 1.34-1.19 1.43-.73.09-1.38-.41-1.45-1.11-.07-.7.46-1.34 1.19-1.43.73-.09 1.38.41 1.45 1.11ZM110.06 219.48c-.15.18-1.21-.49-2.64-.39-1.43.08-2.43.89-2.6.72-.08-.07.06-.4.5-.76.43-.36 1.17-.74 2.07-.8.89-.06 1.67.22 2.12.53.46.31.63.61.56.69ZM115.95 230.14c-.01-.08.87-.3 2.3-.58.36-.06.7-.16.75-.41.07-.27-.11-.65-.32-1.07-.4-.86-.83-1.76-1.27-2.71-1.77-3.86-3.08-7.05-2.93-7.12.16-.07 1.72 3 3.49 6.87.43.95.84 1.86 1.23 2.73.17.41.44.86.29 1.42-.08.28-.33.5-.56.58-.23.09-.44.11-.62.13-1.45.18-2.35.25-2.36.16ZM110.22 214.97c-.17.38-1.59.09-3.28.17-1.7.04-3.09.44-3.28.07-.09-.17.18-.52.75-.86.57-.34 1.46-.63 2.48-.67 1.02-.04 1.93.19 2.52.49.6.29.89.62.81.8ZM123.86 213.98c-.27.35-1.46.11-2.87.21-1.4.06-2.57.43-2.87.12-.13-.15.03-.5.52-.85s1.32-.67 2.28-.73c.96-.05 1.82.17 2.34.46.52.29.71.61.6.78Z" class="cls-10"/>
    <path d="M95.2 225.81c-.16-.06-6.53-1.46-5.89 4.9.64 6.36 8.02 4.57 8.02 4.57 0-.18-2.12-9.47-2.12-9.47Z" class="cls-5"/>
    <path d="M94 232.72s-.1.09-.28.19c-.17.1-.48.19-.83.1-.7-.18-1.37-1.19-1.51-2.33-.07-.58 0-1.14.15-1.62.15-.48.42-.84.75-.93.33-.11.59.07.68.24.1.17.08.3.11.31.02.01.13-.12.05-.38a.704.704 0 0 0-.29-.37c-.16-.11-.4-.15-.63-.1-.49.08-.88.58-1.06 1.1-.2.53-.29 1.16-.21 1.81.17 1.28.95 2.41 1.89 2.58.46.07.82-.1 1-.27.18-.18.2-.32.18-.33Z" class="cls-7"/>
    <path d="M137.68 204.18c-.14-.36-.44-.65-.79-.81-.77-.36-1.6-.22-2.42-.15-2.02.17-4.07-.15-5.96-.89.6-.38 1.14-.82 1.59-1.37.93-1.13 1.36-2.75.76-4.08-.11-.25-.29-.5-.56-.56-.43-.09-.75.36-1 .71-.84 1.15-1.67 1.69-3.1 1.69-.89 0-1.76-.12-2.49-.48-.03-.03-.06-.06-.09-.08-.36-.31-.72-.6-1.07-.89-2.63-2.14-4.84-3.58-7.05-4.22-3.23-.94-8.47-.94-11.62.23-3.15 1.17-5.8 4.08-5.93 7.44-1.97-1.36-4.69-1.08-6.81.03l-.06-.02c-2.38 1.12-3.52 3.86-4 6.44-.03.14-.05.28-.07.43-.7 1.4-1.72 2.64-3 3.56-.22.16-.48.36-.48.64 0 .27.25.48.49.61.63.36 1.35.57 2.07.63-.17.62-.37 1.22-.65 1.81-.23.5-.51 1.09-.22 1.56.23.36.72.47 1.13.37.41-.1.76-.37 1.1-.63l-.63 2.05c.91.07 1.82-.09 2.66-.44.75 2.3 1.58 6.61 2.34 8.14 1.69-.14 2.08-.36 2.96-.16 1.14.26.91 2.25 2.29 1.55.7-.35 1.55-3.23 1.72-4 1.13-5.09 1.15-10.43.06-15.52.91-1.19 2.06-2.2 3.35-2.96l-.1.11c2.51-1.16 5.36-2.34 7.95-1.36 2.01.76 3.33 2.63 4.91 4.08 3.01 2.74 6.23 4.04 10.29 3.81.64 2.77 1.2 7.35 1.6 9.96l1.72-5.46v.02c.15-.32.27-.65.39-.97l.04-.1c.18-.53.35-1.05.59-1.57 0 0 .02.01.03.02 1.54 1.11 3.45-1.01 2.18-2.42-.25-.28-.54-.52-.87-.72.71.55 1.7.74 2.53.4.82-.35 1.4-1.27 1.24-2.15-.11-.6-.6-1.1-1.17-1.28a5.83 5.83 0 0 0 3.25-1.06c.62-.44 1.2-1.12.9-1.92Z" class="cls-10"/>
    <path d="M100.99 201.49s-.37.28-.85.95c-.48.66-.98 1.77-1.12 3.23-.08.73-.09 1.53 0 2.39.08.86.24 1.77.4 2.73.16.96.33 1.98.37 3.05.02.53.01 1.08-.05 1.63-.06.54-.15 1.13-.5 1.63-.28.4-.8.62-1.27.57-.47-.04-.91-.24-1.25-.55-.67-.64-.9-1.51-1.13-2.28h.2c-.25.74-.51 1.46-.94 2.07-.42.6-1.05 1.04-1.71 1.16-.33.06-.67.04-.98-.07-.31-.11-.54-.34-.72-.58-.16-.25-.27-.53-.28-.81-.01-.28.07-.55.23-.75l.11.08c-.64.89-1.35 1.4-1.85 1.7-.25.15-.46.24-.6.3-.14.06-.21.08-.22.08 0 0 .07-.04.2-.11s.33-.17.57-.33a6.25 6.25 0 0 0 1.78-1.71l.11.08c-.28.36-.24.95.07 1.39.16.22.38.41.65.51.27.1.58.12.88.06.61-.12 1.19-.53 1.59-1.1.41-.57.66-1.28.9-2.02l.1-.31.09.32c.23.77.47 1.6 1.08 2.18.3.28.7.46 1.12.49.42.04.83-.14 1.08-.48.31-.43.4-.99.46-1.52.06-.54.07-1.07.05-1.6-.04-1.05-.2-2.06-.35-3.02-.15-.96-.31-1.88-.38-2.75-.08-.87-.06-1.69.03-2.42.17-1.48.7-2.61 1.21-3.26.51-.66.92-.9.92-.9ZM130.67 207.71s-.02.03-.07.07c-.06.05-.13.12-.22.19-.09.09-.21.19-.37.29-.15.11-.32.24-.54.35-.82.5-2.17 1.04-3.91 1.11-1.73.07-3.85-.33-5.82-1.52-1.99-1.15-3.82-2.96-5.37-5.09-.79-1.06-1.45-2.16-2.17-3.17-.71-1.01-1.47-1.93-2.36-2.63-.88-.7-1.86-1.19-2.84-1.36-.49-.09-.97-.08-1.43-.02-.46.07-.88.21-1.27.38-.78.35-1.38.86-1.83 1.36-.45.51-.73 1.03-.92 1.47-.34.9-.31 1.45-.34 1.44v-.1c0-.08 0-.17.02-.29.02-.25.09-.63.25-1.09.18-.45.45-.99.9-1.51s1.06-1.05 1.85-1.42c.4-.18.84-.33 1.31-.4.47-.06.98-.08 1.49.01 1.02.17 2.04.67 2.94 1.38.91.71 1.69 1.65 2.41 2.66.72 1.01 1.39 2.11 2.17 3.16 1.54 2.11 3.34 3.9 5.3 5.04 1.94 1.18 4.01 1.59 5.71 1.54 1.72-.05 3.05-.56 3.88-1.03.83-.47 1.21-.86 1.23-.83Z" class="cls-4"/>
    <path d="M131.12 203.54s-.1.11-.31.27c-.21.16-.53.37-.94.6-.41.23-.93.46-1.51.67-.59.2-1.26.36-1.97.46-.72.09-1.4.1-2.03.06-.62-.05-1.18-.14-1.64-.26-.46-.11-.82-.23-1.06-.34-.24-.1-.37-.16-.37-.18.01-.04.55.18 1.46.36.45.1 1 .17 1.61.21.61.03 1.29.01 1.99-.08a11.233 11.233 0 0 0 3.45-1.05c.83-.42 1.3-.76 1.32-.73Z" class="cls-4"/>
    <path d="M116.3 234.49c-.1-.22-1.53.52-3.19-.18-1.66-.69-2.29-2.31-2.5-2.21-.1.03-.1.49.22 1.14.31.64.99 1.46 2.01 1.89 1.01.42 2.01.31 2.63.06.63-.26.9-.6.84-.7ZM205.08 371.2l12.3 16.42s20.82-6.99 23.39-4.17l-30.99 24.99-20.21-24.8 15.51-12.44Z" class="cls-10"/>
    <path d="M206.72 394.01c-.47.65-.34 1.66.29 2.15s1.65.37 2.13-.27.36-1.85-.32-2.27c-.68-.42-1.88-.21-2.19.53" class="cls-6"/>
    <path d="m209.79 408.44-1.94-2.58 30.43-23s1.86-.51 2.49.58l-30.99 24.99Z" class="cls-4"/>
    <path d="M217.76 387.06c.12.16-.58.83-.94 1.92-.38 1.08-.24 2.04-.42 2.1-.16.08-.67-1-.22-2.31.44-1.31 1.5-1.87 1.58-1.7ZM222.09 385.78c.15.12-.29.9-.29 1.96-.03 1.05.4 1.85.24 1.97-.12.14-.94-.66-.92-1.97.01-1.31.85-2.09.97-1.95ZM227.07 388.19c-.11.14-.93-.44-1.21-1.58-.29-1.14.16-2.04.33-1.97.19.06.08.87.33 1.8.22.94.69 1.61.55 1.75ZM214.54 383.63c.05.19-.81.54-1.62 1.29-.82.73-1.26 1.56-1.44 1.49-.18-.04.02-1.12.99-1.99.96-.87 2.06-.97 2.08-.79Z" class="cls-1"/>
    <path d="m177.45 427.19-.78 20.5s20.58 7.68 20.8 11.48l-39.81-.08-.1-32 19.88.1Z" class="cls-10"/>
    <path d="M164.37 445.94c-.77.21-1.3 1.07-1.13 1.85.18.78 1.05 1.33 1.83 1.13.77-.2 1.45-1.21 1.18-1.97-.26-.75-1.33-1.34-2.03-.97" class="cls-6"/>
    <path d="m157.67 459.09.12-3.23 38.12 1.29s1.77.77 1.57 2.02l-39.81-.08Z" class="cls-4"/>
    <path d="M177.32 447.49c0 .19-.98.28-1.94.9-.97.6-1.47 1.44-1.65 1.36-.18-.04.11-1.2 1.29-1.93 1.17-.74 2.34-.51 2.3-.33ZM181.49 449.23c.04.19-.8.52-1.46 1.34-.69.8-.85 1.69-1.05 1.68-.18.03-.31-1.11.53-2.11.83-1.01 1.98-1.09 1.98-.91ZM183.85 454.23c-.18.04-.45-.93.06-1.99.49-1.07 1.41-1.49 1.49-1.32.11.16-.48.73-.88 1.61-.42.87-.48 1.69-.67 1.71ZM176.98 442.8c-.08.18-.97-.09-2.07-.02-1.1.05-1.96.42-2.06.25-.11-.14.72-.86 2.02-.93 1.29-.08 2.21.54 2.11.7Z" class="cls-1"/>
    <path d="M96.55 337.28c.52-.16 18.63-8.11 33.53-14.24 9.9-4.08 22.23-6.26 22.23-6.26s15.12-8.8 20.86-.8c5.73 8 46.48 63.77 46.19 64.63-.29.86-19.77 18.15-19.77 18.15s-41.97-53.44-42.83-53.16c-.86.29-20.27 15.48-20.27 15.48s-5.83 6.02-10.13 6.6c-4.3.57-29.47-1.42-29.47-1.42l-9.53-25.83 9.19-3.15Z" class="cls-10"/>
    <path d="M117.96 359.79c.9.6 10.46 7.3 10.46 7.3l21.63 5 4.41 71.05 25.85-.92s.04-51.23.04-63.23-.3-23.1-3.9-27c-3.6-3.9-19.69-6.37-19.69-6.37l-38.8 14.17Z" class="cls-10"/>
    <path d="M180.31 376.23s-.03-.29-.04-.84c0-.6-.02-1.4-.03-2.41-.03-2.09-.09-5.12-.34-8.85-.15-1.86-.33-3.9-.68-6.06-.1-.54-.21-1.08-.31-1.64-.15-.54-.27-1.1-.44-1.65-.35-1.1-.83-2.18-1.72-2.97-1.86-1.54-4.3-2.53-6.82-3.41-2.54-.86-5.23-1.56-8.01-2.19-1.46-.32-2.9-.62-4.27-.86l.21-.05c-8.19 6.4-15.46 12.09-20.74 16.21-2.6 2-4.71 3.63-6.21 4.78-.71.53-1.27.95-1.69 1.27-.39.29-.6.43-.61.41-.01-.01.18-.18.55-.5.41-.34.95-.79 1.63-1.35 1.48-1.19 3.55-2.86 6.11-4.92l20.63-16.35.09-.07.12.02c1.38.24 2.83.53 4.3.86 2.79.63 5.5 1.34 8.07 2.22 2.54.9 5.01 1.9 6.98 3.54.98.88 1.49 2.08 1.84 3.2.18.57.29 1.14.44 1.7.1.56.2 1.12.3 1.66.34 2.19.5 4.24.62 6.11.2 3.75.2 6.78.17 8.88-.02 1.05-.05 1.86-.07 2.41-.03.55-.06.84-.07.84Z" class="cls-4"/>
    <path d="m96.94 252.36 1.58-8.02 17.46 9.82 4.02-5.25.41 1.62 17.35 29.57 11.06 35.73-47.4 19.38-5.18-29.17.7-53.68z" style="fill:#fafafa"/>
    <path d="M133.5 311.92s-.06-.2-.13-.58c-.07-.45-.16-1-.27-1.69-.21-1.47-.56-3.59-1.03-6.2-.94-5.22-2.52-12.38-4.9-20.11a176.48 176.48 0 0 0-7.29-19.38c-1.08-2.42-1.99-4.37-2.64-5.7-.29-.63-.54-1.14-.73-1.55-.16-.36-.24-.55-.22-.56.02 0 .13.17.32.51.22.4.49.89.82 1.5.71 1.31 1.67 3.23 2.8 5.64 2.26 4.81 5.06 11.62 7.46 19.37 2.39 7.76 3.91 14.96 4.76 20.21.43 2.62.72 4.75.87 6.23.07.69.12 1.25.17 1.7.03.39.04.6.02.6Z" class="cls-10"/>
    <path d="M122.74 255.88s-.19.32-.6.85c-.49.6-1.09 1.35-1.81 2.23l-.11.14-.14-.12c-1.22-1.08-2.69-2.39-4.36-3.86l.4-.11c-.49 1.71-1.02 3.58-1.59 5.55l-.09.31-.29-.14c-.4-.2-.83-.41-1.26-.62-4.19-2.07-7.96-3.97-10.68-5.37L99 253.06c-.75-.41-1.16-.65-1.14-.68s.46.14 1.24.49l3.29 1.53c2.76 1.31 6.57 3.16 10.75 5.23.43.21.86.43 1.26.62l-.38.17c.58-1.96 1.13-3.83 1.63-5.54l.11-.38.29.27 4.26 3.97-.25.02c.77-.85 1.41-1.55 1.93-2.13.46-.49.72-.75.74-.73Z" class="cls-10"/>
    <path d="m96.9 366.27 4.52.34 6.54-34.19s-7.13 4.34-7.31 4.89c-.18.55-3.75 28.96-3.75 28.96Z" class="cls-9"/>
    <path d="m97.87 247.67-2.74 5.07-14.95 8.05 4.91 55.32s-9.51 26.98-9.51 38.92 2.65 17.69 5.75 19.24c3.1 1.55 15.04-4.2 15.04-4.2s1.29-7.04 8.22-22.99c6.94-15.95 14.33-33.39 14.33-33.39s2.21-8.62-2.87-24.32c-5.09-15.7-18.17-41.68-18.17-41.68Z" class="cls-4"/>
    <path d="M168.13 272.04s-.31-8.33.13-9.73c0-.01 0-.03.01-.04.67-2.08 3.09-4.26 5.24-4.65 1.13-.2 2.04-.15 2.42.23.42.41.98 3.52.98 3.52l11.13-2.06s-6.58 10.26-8.43 13.02c-1.86 2.75-3.78 4.58-3.78 4.58l-12.29 29.29-4.99-16.68 9.58-17.48Z" class="cls-5"/>
    <path d="M192.56 241.83c-2.78 5.3-12.12 23.47-14.79 28.66-.4.78-1.35 1.11-2.15.75a1.662 1.662 0 0 1-.8-2.27l14.74-28.69c.43-.85 1.48-1.17 2.31-.71.81.44 1.11 1.45.68 2.26Z" class="cls-10"/>
    <path d="M188.8 249.45c.27.04 1.35-.24 1.51 1.01.15 1.25-.04 5.56-.66 5.84s-1.58.72-1.58.72.57 2.72-.07 3.67c-.64.95-1.85 1.58-1.85 1.58s-.05 2.26-.73 3.14c-.67.88-2.25 2.34-2.25 2.34s-.44 3.6-2.12 4.27c-1.68.67-2.06 1.2-2.06 1.2l-.53-2.17s-4.57-3.14-5.49-3.72c-.92-.57-1.34-1.87-.45-2.45.9-.57 6.82 2.45 6.82 2.45l2.14-2.21-1.27-2.44s-2.61-2.84-2.55-3.44c.06-.6 1.17-1.61 2.22-1.5 1.04.11 3.65 2.4 3.65 2.4.19.49.87.53 1.12.06l.16-.3s-.91-2.82-1.39-4.93c-.13-.56.05-1.52.59-1.76 1.08-.49 1.99-.53 2.58.5l2.21-4.28Z" class="cls-5"/>
    <path d="M171.04 261.43c0 .06.5.09 1.34.09l-.16-.12c.12.53.24 1.26.72 1.99.23.36.6.71 1.07.9.45.19 1.05.25 1.57-.03.45-.25.7-.7.83-1.1.13-.41.18-.8.22-1.17.08-.74.05-1.41-.01-1.97-.14-1.12-.43-1.75-.48-1.74-.08.02.08.68.13 1.76.02.54 0 1.18-.09 1.88-.1.68-.23 1.54-.84 1.88-.34.19-.77.16-1.14.01-.37-.15-.66-.4-.88-.7-.44-.61-.61-1.3-.78-1.81l-.04-.13h-.12c-.84.1-1.33.18-1.33.24ZM178.46 271.05c.04-.06-.72-.65-1.97-1.55-.68-.48-1.42-1-2.22-1.57-.42-.29-.85-.59-1.3-.9-.38-.31-.75-.78-.81-1.24-.08-.44.41-.76.86-.7.5.04 1.02.19 1.49.34.95.32 1.8.67 2.51.97 1.42.6 2.28 1 2.32.94.03-.06-.78-.57-2.17-1.27-.7-.34-1.53-.74-2.51-1.09-.49-.17-1.01-.34-1.62-.4-.29-.05-.71.05-.96.26-.29.2-.49.62-.43.99.11.72.54 1.2 1.01 1.58.46.31.91.61 1.35.9.82.53 1.58 1.02 2.27 1.47 1.3.83 2.13 1.31 2.17 1.25ZM185.51 263.28c.13-.02.04-.94-.56-1.89-.59-.94-1.39-1.42-1.46-1.31-.09.11.49.72 1.03 1.59.55.86.85 1.65.99 1.61ZM186.22 253.26c-.13.07.29.99.88 2.04.58 1.04.92 1.95 1.06 1.92.13-.02 0-1.06-.61-2.16-.61-1.08-1.21-1.85-1.33-1.79Z" class="cls-7"/>
    <path d="M163.83 279.1c-.44.66-7.04 12.09-7.04 12.09s-15.08-34.46-20.3-35.01c-5.39-.57-1.21 14.92-1.21 14.92l12.96 39.55s9.11 2.82 14.19-.5c5.09-3.32 16.54-26.16 16.54-26.16l-15.14-4.9Z" class="cls-4"/>
    <path d="M120.4 250.29s12.51 24.42 16.09 37.36c2.35 8.49 5.69 31.44 5.69 31.44l10.3-2.28-8.8-30.77-7.19-29.85-11.13-2.2-4.97-3.69Z" class="cls-4"/>
    <path d="M116.56 308.83s-.12-.17-.31-.52c-.21-.4-.49-.91-.82-1.54-.73-1.41-1.73-3.35-2.95-5.71-2.48-4.9-5.85-11.58-9.57-18.95-1.84-3.72-3.66-7.21-5.17-10.51-1.5-3.3-2.58-6.48-3.03-9.28-.47-2.8-.4-5.14-.17-6.7.11-.78.25-1.38.35-1.78.11-.4.18-.6.19-.59.05.02-.2.85-.37 2.4-.17 1.55-.19 3.85.31 6.59.49 2.74 1.58 5.86 3.09 9.12 1.52 3.26 3.35 6.76 5.19 10.47 3.68 7.4 7.01 14.1 9.45 19.03 1.17 2.4 2.12 4.37 2.82 5.8.3.65.55 1.18.75 1.59.17.37.25.56.23.57ZM140.48 263.88s.09.16.22.49c.14.39.31.86.52 1.43.43 1.25 1 3.07 1.64 5.35 1.26 4.55 2.64 10.94 3.82 18.05.58 3.55 1.14 6.93 1.65 10.01.26 1.53.5 2.99.73 4.37.24 1.35.58 2.59.93 3.71.7 2.24 1.37 4.03 1.77 5.29.2.63.35 1.12.44 1.46.09.34.12.52.11.52-.02 0-.09-.16-.21-.49-.14-.38-.32-.85-.53-1.42-.46-1.24-1.18-3-1.94-5.25-.37-1.12-.75-2.37-1.01-3.75-.24-1.37-.51-2.83-.78-4.36l-1.69-10.01c-1.18-7.1-2.49-13.47-3.66-18.04-.59-2.28-1.1-4.12-1.47-5.38-.17-.58-.31-1.07-.42-1.46-.09-.34-.13-.52-.11-.52ZM125.36 253.98s.18.07.5.25c.32.19.77.49 1.33.92 1.11.86 2.62 2.23 4.3 4.09.84.93 1.73 1.98 2.62 3.16.88 1.2 1.71 2.53 2.56 3.96 1.68 2.85 3.35 6.12 4.59 9.75 1.29 3.6 2.24 7.15 2.66 10.45.44 3.3.32 6.32.02 8.81s-.75 4.47-1.11 5.83c-.18.68-.34 1.2-.45 1.55-.12.35-.18.53-.2.53-.02 0 .02-.2.1-.56.09-.42.21-.94.35-1.57.3-1.36.69-3.34.94-5.82.24-2.47.32-5.45-.14-8.7-.44-3.25-1.39-6.76-2.67-10.33-1.24-3.59-2.87-6.83-4.51-9.68-.83-1.42-1.64-2.77-2.49-3.95-.85-1.18-1.72-2.24-2.54-3.17-1.64-1.88-3.09-3.28-4.15-4.18-1.06-.9-1.72-1.3-1.7-1.34ZM95.63 344.05s.09.19.2.58c.1.38.23.95.35 1.69.23 1.47.4 3.61.1 6.18l-.03.24-.24-.04c-2.83-.48-6.24-.92-9.93-1.11-3.8-.2-7.34-.11-10.26.08l-.5.03.3-.39c1.44-1.9 2.66-3.51 3.59-4.74.88-1.13 1.39-1.76 1.43-1.73.04.03-.41.71-1.22 1.89-.89 1.26-2.06 2.91-3.44 4.86l-.2-.36c2.94-.26 6.5-.38 10.33-.18 3.71.19 7.15.66 9.98 1.2l-.27.2c.35-2.51.25-4.62.1-6.08s-.34-2.29-.28-2.3Z" class="cls-10"/>
    <path d="M80.17 260.79s-9.26 6.18-10.5 13.24c-1.66 9.51 1.62 42.83 2.49 50.41.87 7.57 5.84 14.28 11.03 14.71 5.19.43 46.3-14.49 46.3-14.49l-4.11-15.14-29.85 6.06-3.03-35.05-12.33-19.73Z" class="cls-4"/>
    <path d="m92.89 284.98 2.64 30.58 29.85-6.06 4.11 15.14s-31.42 12.42-35.83 12.97c-4.41.55-16.36 2.79-18.93-5.2" class="cls-4"/>
    <path d="m137.4 312.458 2.448-22.688a.95.95 0 0 1 1.046-.843l13.72 1.481c.518.056.9.52.843 1.046l-2.448 22.689a.95.95 0 0 1-1.047.842l-13.72-1.48a.95.95 0 0 1-.843-1.047Z" class="cls-8"/>
    <path d="M140.88 288.92s-.32-.06-.7.28c-.2.18-.28.46-.29.86-.04.39-.07.83-.12 1.33-.2 2.05-.48 4.92-.83 8.44-.37 3.58-.81 7.82-1.29 12.52-.1.51.23.92.79.91.6.06 1.21.13 1.83.19 1.23.13 2.49.26 3.77.4 2.56.27 5.21.56 7.93.85.25.03.5-.09.64-.29.07-.11.11-.21.12-.35l.05-.5c.07-.67.14-1.34.22-2 .14-1.32.29-2.63.43-3.91.28-2.56.55-5.03.81-7.39.26-2.35.51-4.59.75-6.68.06-.52.12-1.04.17-1.54.02-.24.07-.53.07-.72 0-.19-.09-.38-.23-.51-.15-.14-.3-.2-.54-.21-.24-.03-.47-.05-.71-.08-.47-.05-.92-.11-1.37-.16-3.52-.41-6.38-.75-8.42-.99-.95-.12-1.72-.22-2.29-.3-.52-.07-.8-.12-.79-.14 0-.02.28 0 .81.03.57.05 1.34.12 2.3.2 2.05.2 4.92.48 8.44.83.45.05.9.09 1.37.14.23.02.47.05.71.07.24 0 .57.11.78.31.22.2.36.49.37.8 0 .31-.05.52-.07.78-.05.51-.11 1.02-.16 1.54-.22 2.1-.45 4.34-.7 6.69l-.78 7.39c-.14 1.28-.28 2.59-.42 3.91l-.21 2-.05.5c-.01.19-.09.42-.21.6-.24.36-.7.57-1.13.52-2.72-.29-5.37-.58-7.93-.86-1.28-.14-2.54-.28-3.77-.41-.62-.07-1.23-.14-1.83-.2-.28 0-.75-.14-.96-.44-.25-.27-.33-.73-.26-1.02.53-4.69 1-8.93 1.41-12.5.41-3.52.75-6.38.99-8.43.06-.49.12-.93.17-1.32.02-.37.14-.75.37-.92.46-.35.8-.2.78-.21Z" class="cls-8"/>
    <path d="m149.338 299.638 1.63.176-.312 2.894-1.63-.176zM149.798 295.412l1.63.176-.311 2.893-1.631-.176zM148.887 303.866l1.63.176-.312 2.893-1.63-.176zM148.402 308.04l1.63.176-.312 2.893-1.63-.176z" class="cls-1"/>
    <path d="M74.74 332.42s.06.09.14.27c.09.2.21.47.37.8.34.68.99 1.65 2.14 2.54 1.15.9 2.86 1.59 4.93 1.9 2.07.32 4.48.3 7.12.04 1.32-.13 2.7-.34 4.16-.53 1.4-.24 2.86-.75 4.35-1.22 2.99-.99 6.17-2.15 9.53-3.39 6.71-2.49 14.1-5.34 21.91-8.42l-.16.32c-.73-2.68-1.49-5.5-2.27-8.36-.62-2.29-1.24-4.56-1.84-6.78l.32.19c-10.97 2.21-21.14 4.26-29.86 6.01l-.25.05-.02-.25c-.75-9.2-1.38-16.84-1.82-22.21-.2-2.65-.36-4.73-.47-6.2-.05-.69-.08-1.23-.11-1.63-.02-.37-.02-.56-.01-.56s.04.19.08.55c.04.4.1.94.17 1.62.14 1.46.34 3.54.6 6.18.49 5.37 1.18 13.01 2.02 22.2l-.27-.2c8.72-1.78 18.88-3.86 29.85-6.1l.25-.05.07.25c.6 2.22 1.22 4.49 1.84 6.78.78 2.86 1.54 5.68 2.27 8.36l.06.23-.23.09c-7.82 3.07-15.22 5.9-21.94 8.37-3.36 1.23-6.55 2.37-9.56 3.34-1.51.47-2.95.96-4.44 1.21-1.45.18-2.84.38-4.17.5-2.67.24-5.11.23-7.21-.12-2.1-.34-3.84-1.07-5-2.02-1.17-.94-1.8-1.95-2.11-2.65-.13-.34-.24-.61-.32-.82-.07-.19-.1-.28-.09-.28ZM74.66 266.97c0-.05 1.02-.19 2.66 0 1.64.19 3.89.82 6.08 2.12 2.18 1.3 3.81 2.98 4.76 4.33.96 1.35 1.33 2.32 1.28 2.34-.08.05-.57-.85-1.59-2.1-1.01-1.26-2.62-2.83-4.74-4.1-2.12-1.25-4.27-1.92-5.86-2.21-1.59-.29-2.6-.29-2.6-.39Z" class="cls-10"/>
    <path d="M126.03 310.86s9.58-9.31 11.29-11.21c1.71-1.9 11.96-2.38 13.5-1.69s1.32 2.8.39 3.11c-.93.31-6.49-.06-8.2.61-1.71.66 4.37.46 6.86 2.31 2.48 1.85 1.1 3.06.15 3.13 0 0 1.33 1.18.28 2.31-1.05 1.13-2.24.61-2.24.61s1.68.72 1.03 2.11-2.99.81-2.99.81-3.68-1.37-4.28-1.14c-.6.24-2.48 3.25-4.53 4.96-2.6 2.16-5.84 1.6-6.64 1.52l-2.08 1.86c-.68-2.23-2.53-9.31-2.53-9.31Z" class="cls-5"/>
    <path d="m142.866 294.419.242-2.237 2.445.264-.241 2.237z" class="cls-1"/>
    <path d="M92.82 391.08H19.17v-55.51h68.58c2.61 0 4.73 1.08 4.73 2.42l.34 53.09Z" class="cls-8"/>
    <path d="M61.94 410.43H19.17v-74.86l42.54.11.23 74.75z" class="cls-9"/>
    <path d="M85.01 335.65c0 .15-14.01.26-31.29.26s-31.29-.12-31.29-.26 14.01-.26 31.29-.26 31.29.12 31.29.26ZM92.44 410.68c-.15 0-.26-13.72-.26-30.64s.12-30.65.26-30.65.26 13.72.26 30.65-.12 30.64-.26 30.64ZM152.89 390.81c0 .15-13.47.26-30.08.26s-30.09-.12-30.09-.26 13.47-.26 30.09-.26 30.08.12 30.08.26Z" class="cls-10"/>
  </g>
</svg>
